<mxfile modified="2024-07-22T09:19:33.625Z" host="app.diagrams.net" agent="Mozilla/5.0 (Windows NT 10.0; Win64; x64) AppleWebKit/537.36 (KHTML, like Gecko) Chrome/126.0.0.0 Safari/537.36" etag="WqGpI2E6vhxNGX_G3ScG" version="24.7.1" type="github">
  <diagram id="WI9T0HZ2pTsCkuznbFz-" name="Page-1">
    <mxGraphModel dx="1793" dy="1333" grid="0" gridSize="10" guides="1" tooltips="1" connect="1" arrows="1" fold="1" page="0" pageScale="1" pageWidth="1169" pageHeight="827" background="#FFFFFF" math="0" shadow="0">
      <root>
        <mxCell id="0" />
        <mxCell id="1" parent="0" />
        <mxCell id="seNpa9M3IsFzkgEDLgjZ-1" value="" style="rounded=0;whiteSpace=wrap;html=1;" vertex="1" parent="1">
          <mxGeometry x="53" y="27" width="240" height="270" as="geometry" />
        </mxCell>
        <mxCell id="seNpa9M3IsFzkgEDLgjZ-2" value="" style="shape=image;html=1;verticalAlign=top;verticalLabelPosition=bottom;labelBackgroundColor=#ffffff;imageAspect=0;aspect=fixed;image=https://cdn0.iconfinder.com/data/icons/logos-microsoft-office-365/128/Microsoft_Office-10-128.png" vertex="1" parent="1">
          <mxGeometry x="60" y="50" width="60" height="60" as="geometry" />
        </mxCell>
        <mxCell id="seNpa9M3IsFzkgEDLgjZ-3" value="IFD-Copilot&lt;div&gt;( Microsoft Teams message bot)&lt;/div&gt;" style="verticalLabelPosition=bottom;aspect=fixed;html=1;shape=mxgraph.salesforce.bots;" vertex="1" parent="1">
          <mxGeometry x="132" y="129" width="60" height="57" as="geometry" />
        </mxCell>
        <mxCell id="seNpa9M3IsFzkgEDLgjZ-4" value="&lt;b&gt;&lt;font style=&quot;font-size: 15px;&quot;&gt;......&lt;/font&gt;&lt;/b&gt;" style="text;html=1;align=center;verticalAlign=middle;whiteSpace=wrap;rounded=0;" vertex="1" parent="1">
          <mxGeometry x="557.42" y="730" width="60" height="30" as="geometry" />
        </mxCell>
        <mxCell id="seNpa9M3IsFzkgEDLgjZ-5" value="" style="sketch=0;points=[[0,0,0],[0.25,0,0],[0.5,0,0],[0.75,0,0],[1,0,0],[1,0.25,0],[1,0.5,0],[1,0.75,0],[1,1,0],[0.75,1,0],[0.5,1,0],[0.25,1,0],[0,1,0],[0,0.75,0],[0,0.5,0],[0,0.25,0]];rounded=1;absoluteArcSize=1;arcSize=2;html=1;shadow=0;dashed=0;fontSize=12;align=left;verticalAlign=top;spacing=10;spacingTop=-4;whiteSpace=wrap;strokeWidth=2;" vertex="1" parent="1">
          <mxGeometry x="353" y="-104" width="830" height="857" as="geometry" />
        </mxCell>
        <mxCell id="seNpa9M3IsFzkgEDLgjZ-6" value="" style="rounded=1;whiteSpace=wrap;html=1;" vertex="1" parent="1">
          <mxGeometry x="808" y="338" width="160" height="90" as="geometry" />
        </mxCell>
        <mxCell id="seNpa9M3IsFzkgEDLgjZ-8" value="&lt;span style=&quot;font-weight: normal; font-size: 20px;&quot;&gt;(2)&lt;/span&gt;" style="endArrow=classic;startArrow=none;html=1;rounded=0;startFill=0;entryX=1;entryY=0.5;entryDx=0;entryDy=0;fontSize=20;fontStyle=1" edge="1" parent="1" source="seNpa9M3IsFzkgEDLgjZ-12" target="seNpa9M3IsFzkgEDLgjZ-47">
          <mxGeometry x="-0.1149" width="50" height="50" relative="1" as="geometry">
            <mxPoint x="580" y="420" as="sourcePoint" />
            <mxPoint x="350" y="160" as="targetPoint" />
            <mxPoint x="-1" as="offset" />
          </mxGeometry>
        </mxCell>
        <mxCell id="seNpa9M3IsFzkgEDLgjZ-9" value="" style="endArrow=classic;startArrow=classic;html=1;rounded=0;entryX=0.5;entryY=1;entryDx=0;entryDy=0;exitX=0.5;exitY=0;exitDx=0;exitDy=0;exitPerimeter=0;" edge="1" parent="1" source="seNpa9M3IsFzkgEDLgjZ-10" target="seNpa9M3IsFzkgEDLgjZ-6">
          <mxGeometry width="50" height="50" relative="1" as="geometry">
            <mxPoint x="650" y="500" as="sourcePoint" />
            <mxPoint x="700" y="450" as="targetPoint" />
          </mxGeometry>
        </mxCell>
        <mxCell id="seNpa9M3IsFzkgEDLgjZ-10" value="" style="verticalLabelPosition=bottom;html=1;verticalAlign=top;align=center;strokeColor=none;fillColor=#00BEF2;shape=mxgraph.azure.sql_database;" vertex="1" parent="1">
          <mxGeometry x="870" y="490" width="37.5" height="50" as="geometry" />
        </mxCell>
        <mxCell id="seNpa9M3IsFzkgEDLgjZ-11" value="Store pemission token of user" style="text;html=1;align=left;verticalAlign=middle;whiteSpace=wrap;rounded=0;" vertex="1" parent="1">
          <mxGeometry x="668" y="398" width="80" height="30" as="geometry" />
        </mxCell>
        <mxCell id="seNpa9M3IsFzkgEDLgjZ-12" value="" style="rounded=1;whiteSpace=wrap;html=1;arcSize=23;" vertex="1" parent="1">
          <mxGeometry x="808" y="112.5" width="160" height="90" as="geometry" />
        </mxCell>
        <mxCell id="seNpa9M3IsFzkgEDLgjZ-14" value="" style="rounded=1;whiteSpace=wrap;html=1;" vertex="1" parent="1">
          <mxGeometry x="808.75" y="630" width="160" height="90" as="geometry" />
        </mxCell>
        <mxCell id="seNpa9M3IsFzkgEDLgjZ-15" value="" style="endArrow=classic;startArrow=classic;html=1;rounded=0;entryX=0.5;entryY=1;entryDx=0;entryDy=0;entryPerimeter=0;exitX=0.5;exitY=0;exitDx=0;exitDy=0;" edge="1" parent="1" source="seNpa9M3IsFzkgEDLgjZ-14" target="seNpa9M3IsFzkgEDLgjZ-10">
          <mxGeometry width="50" height="50" relative="1" as="geometry">
            <mxPoint x="650" y="610" as="sourcePoint" />
            <mxPoint x="700" y="560" as="targetPoint" />
          </mxGeometry>
        </mxCell>
        <mxCell id="seNpa9M3IsFzkgEDLgjZ-16" value="Portal" style="sketch=0;html=1;verticalAlign=middle;labelPosition=right;verticalLabelPosition=middle;align=left;spacingTop=10;fontSize=11;fontStyle=1;fontColor=#999999;shape=image;aspect=fixed;imageAspect=0;image=data:image/svg+xml,PHN2ZyB4bWxucz0iaHR0cDovL3d3dy53My5vcmcvMjAwMC9zdmciIHhtbG5zOnY9Imh0dHBzOi8vdmVjdGEuaW8vbmFubyIgd2lkdGg9IjM2NS40NjQ5OTY3NzA0MjQ5MyIgaGVpZ2h0PSIzNzkuMjIyOTk0NDYzNTc3OTUiIHZpZXdCb3g9IjAgMCA5Ni42OTU5OTkxNDU1MDc4MSAxMDAuMzM1OTk4NTM1MTU2MjUiPiYjeGE7PHN0eWxlIHR5cGU9InRleHQvY3NzIj4mI3hhOwkuc3Qwe2ZpbGw6IzQyODVmNDt9JiN4YTsJLnN0MXtmaWxsOiNhZWNiZmE7fSYjeGE7PC9zdHlsZT4mI3hhOwk8cGF0aCBjbGFzcz0ic3QwIiBkPSJNMjkuNzk0IDEwMC4zMzZMNDYuOTIgNTAuMTY4aDQ5Ljc3NnpNMCA5OS42NzFsMTIuOTc2LTQ5LjUwMkgyOS4yMkwxNi44OTcgOTIuMDU0eiIvPiYjeGE7CTxwYXRoIGNsYXNzPSJzdDEiIGQ9Ik0yOS43OTQgMEw0Ni45MiA1MC4xNjhoNDkuNzc2ek0wIC42NjZsMTIuOTc2IDQ5LjUwMkgyOS4yMkwxNi44OTcgOC4yODN6Ii8+JiN4YTs8L3N2Zz4=;spacing=12;" vertex="1" parent="1">
          <mxGeometry x="868" y="656.5" width="34" height="42" as="geometry" />
        </mxCell>
        <mxCell id="seNpa9M3IsFzkgEDLgjZ-17" value="" style="shape=image;verticalLabelPosition=bottom;labelBackgroundColor=default;verticalAlign=top;aspect=fixed;imageAspect=0;image=data:image/png,iVBORw0KGgoAAAANSUhEUgAAAOEAAADhCAMAAAAJbSJIAAAAw1BMVEX///9DhfdDhvlDhvtDhvpDhvhEhfVEhfRAe99EhfY/e+FDhvxFg+tAet0/e+JFg+1Zlvxbku3v9PxtmehVieA4d9/m7fv2+f5lkueFq+tAfedomfWHsfr1+f84gfo2d+QibuDb5/5MhePP3febvPmwxPMrefTi7P0zffPA0vUtcuCQsu42ddmUtv2ux/2zzP2Bq/xSjvnK2/xhl/dtnfS3y/NqlueZt+2Zvf5Njvx5p/yxy/1voPsZa+N9o+yGqe1Og9/R1TPrAAAO6klEQVR4nO2de3eiPhPHpXbx1h9VNKC2imBRQVurFm27fXTf/6t6QAiGOwkB7Dl+z/6xLUXyYSYzkwtYqdx000033XTTTTfddNNNN92Uq0bC+vN9185bu/dPQxiVAbh+/5qNi9Hs631dOB//PB63itN4/MoXCyhviuQ7M7blIgH5dtGAFmKBVuS/iwc0Eb+LQ3wtA7DVmr0WBTi9KwWw1bqbFkT4U44JTT/9KQZwPSsJ0PRTowhAfteqlqXWrohg8zYuDbBaHb/lDyj/Kc+EphH/5J/3v8s0oWnE77wB5VmpgCZizkYc7co1oUm4y3ck9bdkPku5DqT4dplhxlYr1wr8vWwftTR+zg9wXnaYsTWb50Z4FSY0jfieF+C6Wr2/BlXvcwo2/FOrbDZHrad8gs3buGwyV/mUp/ysbC5EszyM+Hw9JjSNmEPG2H5dR5ixVf3a0gbkf67JhKYRf2j76fq6AE1E2hnj7pp81FL1D13A12szoWlEqrOn8ub+7tp0v6E4FhafW2XzhKj1LFIj1MZl04RqrFEj3FTLhglVdUML8O06TWga8S8dwGsMM7YoBRvx9VpNaAabTxrBRr67VhOaRryjYcT2NWYKqFY7O6BxvT5qaZx5vY3f3f+5Zt1nntD4HJfNkKDxSzZA+euubIQE3WXMGN+tsgkS1cq03qbNym5/Cs0yTGjwP9cdZmzdZ5jQWP8GQBOReEJjvvklhBvSpZrn6072F5HOns5/C6CJSGRE8eeaC1KvWj8kYwyjwfweNQjKU/6pWnazMVQlKE9fx2W3GkvjT1xA4XcBMsxCwCR8XpTdZEzhZoxfFWZssVizp/zPbwoztqofONvB1r+tF1paYJSno98IyDCz9EZ8XTR+oxapM8Z0w5TdWCIxaSc0Rt+/04SmEb/T+alRMiCzgLrHPXWRrjz9ysNHL/EgsZUfz1DvNdyrpFpve6FuQjOQL9jNZvf09NTebMwf4igZZP6TV3AvtUgxeyrTDjPMuPH0ujam8pzneVneGm/Pu2jI2Qsy0hMUCbMxaYLNK7bzx15xMWv/nfPe8akoyJ/s7D6s8TNPdSkowyEm4n3iDo0tTR9l7tsvUSX/9n0TNGTN62QW4ZDFu+Yiafa0TdFHF5u3uPkT+ZXx+QuzOaiW4FlnQkwrMrt4QGNMjY9ZPCfMD4nT3ZjxnaPr+v8G0KltQkzE+PW2eZth6ajBhDyZHJxpeNv4LlgbDpfuUZuQG9Zwrsy0427sS5USIMs8ezrg1FDV5bK7XKqq5j3wsfCc12APl4OODblhA+vSMRljXsP6qGg1Zn+R8CkfuspQsqVLXP+oIgdHOw+iWz3zF0JMxMZXtBF3lHyU2Vz6gqh1JpI0RCXpkyPiwp/IVWsQUOsghJiOGh1stEXy2WnUqF0Ap0cvHYR8OLg3Wnxxr8vAdKhyimX8h6GLiNOAqIzBP1Ey4eVpXXHwEApoMSqX2+D2xYZjfHUomTYUO5c/x3JU5iN89vSFjgkbjPuogKDoEXyWJkvYHcVveG/PVRs/MG9LpyJ00LuD5aj3oU8rzP2Bm1CMuyly2okyoGPGIwyr83bjcvr8ZJ3W4ffes3EclQldb3umY0KmDZuteT1Un5hm89pU6sCboc3g+Y1G+3xap++/PTiOugiZPZ3OEk9L99nwvQfyxNM+ZWuOv0dbxfNLqQ8H5afL/W2wETbHseIsUG+MPphajc3+j4HPlZm9iLtoOHAsK5yGyK85aeB2WRZ+iFXYcOEyEVO2hAlMaBg1KmIfnXsnHgHSMrB3c7y4Rw8Mh7CEUSX0cyIITcS0DWF95anZ1akQuhXTEbUgJyGVmuA5wk2c3MX3h+gHRVoxbUsabe+47XNBBZCF5fZcR5sFuui1+kPvMREaMR1iWit6JzQEOoA1txeevCZcohcbeI4NOWdFRdS9BsrqqKxnve2boUMIA6nGeeOJihKqXjcFHeFyV9APy+qoDLIdTKulNT08+TydGei6bMMxh9eEPhv6DnKSExOmkq/1lzRBZEX20V1vO2cKDC0W39v5XH5r+xmhkwoP3kaBfnQ/tAKtc5ZiHUCb2Ouc1SREZNz1tjesXsgy7qvTjJ0XceHcNEP3NWmC5N/pxO92ExGxPGLFhlNATx8CiOmauoDlKZaPsiwSo+ZPKCJbc6rBLvC1SOq7xT7vNyHH6RraQZHWMx92FzUCNyWdFdlHpxdimZDxLGHx6LksHLT4TWi2qOscErqBYxw4OQ2p2z8jJeDONu/J/4nNdFa0nUp8wjKhvXFlejjZ8y0Ggth4t/1eDhJyQFdlQZAPut+81jHHwrJim7fz5Gr3fj7krZDSIzY+rDsktzEAa+fBn6hKEpD6VufiO8gxx3+1EELTUyVFkaSwI6BvO6PQP3PoMo9IRA9hI+6sNm43OIQLq6tpdpOtCCkOLvXk4m8cYbSGiux0UZswbJo86BepEDdWTbjGShWzyiXdnSOkGR78hMswSwEATMOD0DSuOIWC7Yt66FQZ7KR4iA1r9wJerrAIeWd4oBtOAHSOMesoQknn+sflcjnodriQnlh3gmk3hlAMBOg0SeOcL7La0HIf+xgcsHgJh0CXTluB5yuiKPKCYOx1H6RbmsYRaoG8z6VIGuebrj3ixFKnH1pXs6bDKqKNYx8L81LA7f1zeyNVkdDmDqGXdmP64STUvxOsaBdu0w0WIYylkm7HUgW4V4KEaGkt9YyQza3yAC02YaQR9+cT9WlILO2EZJlkK7Ib697xO5zBb8OfDyFN7VIkIbFU70Ts+zQQm4CebTUnloJO31XveD5/dAxNM4mIDfsthGusUOPdliNcGmo6vTOPOHUJwSByd7JRd60CM/68Z/8KuJKUiJompaPCvRk4gKbQuhRNxG7VNoJlJDjG7NxVLzY82r+ZKr7Gg71Tl8Yl2Lik4dSlmPmixixhu7Wep3c0dk6MgL/W47YmX6akJGc2yggAOmOLQCpMieiOLUYfeNNQjHScmuNDVfGntoUzSDo4vWYSAwjzu/Vngvc0V72+NTxU6hFRJgmxcdmPqT1iEZqjb92UFLiw5DiwnIrQTeF1+2c+mNPt3hjPF434iOypxZ6nCZ9DAR374wTHTdMRSs7gSUgkwUNE52kI5trCESdOOeL0qFSEQHFOCjhpRkTv3nb8+dJQRBgznMyWjhDOesfHE2xE327TeRtzti0cEWY2J77HE9qRxjXhFHPMlYDI+rdkEKxbhCLCmdFzT9RFPlrOYEF3zvCuZ1BA9G+rGX1gG7E2bAYJoRGnVr0KunE653fJmUoMGf9hI3pmIoObaaczAis2A3Knt40m12yCOJnHm66PikcAP8L+DweCH56gOmLF4PphpfJMMLMfRLzUMaqe3CagwIYY8K/NOtxi43p7AkQOJnYm7AmaOdaMVCQiOMFi2xwnJ7SIk+DQkefg34KBYJ1oujsRotOu8Odm30iWZwKIXBN28dEyAREAt+iAPspNDtZeDGBa0qob8BFtR2XD3xzJEwSbMETgfoOBVo9ro7R3b/QBAjqbbFRgElZEEkTLUdmI/TSVLdEqYhBRcVuuRbeRk7puM4y6Y2w4+11R6yZhRa4n+XkYopnsI3fRYs1+RyOCS9vngwkIayWQmob7R1s3bnJ1uA6nWYSCgk9oOir7FAVYmeOOMSIQEf+rCCdF8kGaQ4YessfSQBIDp0NEnpSwyT3EbDB9ITJiiBUV5CLT5Z6TAOxpAOjKUUUOq57OynGe/aUkhAD5hKARd0SEIYg99AtTeOGw7+kTXZ9MuF5XE9A4oPpSO8ehe4QJCMG/2OdljcUjkYZ1n5r6MjAJxc8Dv5L3UhM9y5p9miD7vJv+z02WnvBk0K5GiBhoi3RMfKsKbyjAc1uUg2Ht1YdGICHkegkX3TKEiFygMUAZxD8kP91znO8cbxciIQSJ9/WTJSMMOqrpc9JAjpow5bWeDgKn6Cf0bwgIQbBz+CW3CY0Ygmj1q5MRUuWLU3UPgnwW4sHz3BMuYfNfiocsXxhCwjBEk7HZOx6m6I0VtOVeCeezjIA4Ko9NKMVlClcPpEYMRTT7vpkCdbNTnnVUdPMHENNyqTuAOtYxCc/735OlkfZECzEyTXHIuDchoV2EnQvTvXVg9J4LYgECx5SvqZluiP30MWRiozgpqb95btkgJrT6olnfl/IPLJPRoJ8S1m5ncf/hRQdqauoYL8YwMhjx0V+nFCWA8yYl/oO8J5ZlRdDF+qorLQNgOYjNOubbvU9ZjFiGo4JBMpRHQpZgU4YVAe57oirL34WIkSmg+KdMflqwozb78UPRUBmZAItFbNZJXgktdrMZ0XTUwtTspixIvZpLWa1YGCEgfIHpaZiN8KFZFCBupnCNqGT004IialMh/rrAdVbCYsJNk/zN89nK06KsCLe/EWmbLe0Xg6hn+rqZ94zB5jF/R/U+vokt+SEzYc5WbCoZv8TjhXxWqhjE2LW0NMpantqI+QESFaReka63eZRf6s8WZmx1sgeb/Aq4VdJaWhrJFADzQ6TxXUHikoYR83FUgnFvmGSFBmEeVky1lpZGatZhVF6IQE1ufDrRMSJ1R23+owVY0egYkbYVU66lpZGYdSycC2LMQ1X4ohRs6DoqrTBji07GoIpIKVO4ojDGoI1IF7Bi0DLiQ50O3yrzl+b5xHdpIdKx4qqbeUzh15San1JB/Jd6yT69aGUMKo66Ip0hjRO/uCIrxj6dSiyVmhEzI9IrSD3iP+ghZnPUVZYZ0jhlXW/zKJMVaWcKV6fhAz2RW3F1Sm4qoeYSRUJyRNK1tDQa0DQiKWIumQKK7zyWjrjq5RRmbKk0AQkRcwszZ40+qPopAeJqj7W5C18y1WBDgAiojnvDdKRrRFzE1TFvQGu9rVTEHDMFlErZiFiIq3wKUq/4PmUj4iDmVZB6ZVAONhiIFGdIY9Wl7adpEVf75MZRkUwbMC1iHlMX4VpSN2IqxBXlGdIY8bSTYirEVdybw2hL6BSPmHPF7Ze8LxpxtS8g13ukPhQZUVf/FZHqfdoOFGlIcfotcnpqtQL/BolP9+YhUdAOp48OTfVC1D8dNIHiSuFNN91000033XTTTTfddNNNYfo/uuMVBxZr3DgAAAAASUVORK5CYII=;" vertex="1" parent="1">
          <mxGeometry x="425" y="635" width="85" height="85" as="geometry" />
        </mxCell>
        <mxCell id="seNpa9M3IsFzkgEDLgjZ-18" value="" style="endArrow=classic;startArrow=classic;html=1;rounded=0;exitX=1;exitY=0.5;exitDx=0;exitDy=0;entryX=0;entryY=0.5;entryDx=0;entryDy=0;" edge="1" parent="1" source="seNpa9M3IsFzkgEDLgjZ-17" target="seNpa9M3IsFzkgEDLgjZ-14">
          <mxGeometry width="50" height="50" relative="1" as="geometry">
            <mxPoint x="510" y="670" as="sourcePoint" />
            <mxPoint x="625" y="680" as="targetPoint" />
          </mxGeometry>
        </mxCell>
        <mxCell id="seNpa9M3IsFzkgEDLgjZ-19" value="AZURE" style="sketch=0;points=[[0,0,0],[0.25,0,0],[0.5,0,0],[0.75,0,0],[1,0,0],[1,0.25,0],[1,0.5,0],[1,0.75,0],[1,1,0],[0.75,1,0],[0.5,1,0],[0.25,1,0],[0,1,0],[0,0.75,0],[0,0.5,0],[0,0.25,0]];rounded=1;absoluteArcSize=1;arcSize=2;html=1;shadow=0;dashed=0;fontSize=12;align=left;verticalAlign=top;spacing=10;spacingTop=-4;whiteSpace=wrap;strokeWidth=2;strokeColor=#CCFF99;" vertex="1" parent="1">
          <mxGeometry x="45" y="556" width="234" height="218" as="geometry" />
        </mxCell>
        <mxCell id="seNpa9M3IsFzkgEDLgjZ-20" value="" style="image;sketch=0;aspect=fixed;html=1;points=[];align=center;fontSize=12;image=img/lib/mscae/Azure_AD_Domain_Services.svg;" vertex="1" parent="1">
          <mxGeometry x="120" y="639" width="64" height="64" as="geometry" />
        </mxCell>
        <mxCell id="seNpa9M3IsFzkgEDLgjZ-21" value="" style="endArrow=classic;startArrow=classic;html=1;rounded=0;entryX=0;entryY=0.5;entryDx=0;entryDy=0;exitX=1.014;exitY=0.558;exitDx=0;exitDy=0;exitPerimeter=0;" edge="1" parent="1" target="seNpa9M3IsFzkgEDLgjZ-17" source="seNpa9M3IsFzkgEDLgjZ-19">
          <mxGeometry width="50" height="50" relative="1" as="geometry">
            <mxPoint x="300" y="678" as="sourcePoint" />
            <mxPoint x="350" y="660" as="targetPoint" />
          </mxGeometry>
        </mxCell>
        <mxCell id="seNpa9M3IsFzkgEDLgjZ-22" value="SSO" style="text;html=1;align=center;verticalAlign=middle;resizable=0;points=[];autosize=1;strokeColor=none;fillColor=none;" vertex="1" parent="1">
          <mxGeometry x="442.5" y="605" width="50" height="30" as="geometry" />
        </mxCell>
        <mxCell id="seNpa9M3IsFzkgEDLgjZ-23" value="Data Resource" style="sketch=0;points=[[0,0,0],[0.25,0,0],[0.5,0,0],[0.75,0,0],[1,0,0],[1,0.25,0],[1,0.5,0],[1,0.75,0],[1,1,0],[0.75,1,0],[0.5,1,0],[0.25,1,0],[0,1,0],[0,0.75,0],[0,0.5,0],[0,0.25,0]];rounded=1;absoluteArcSize=1;arcSize=2;html=1;shadow=0;dashed=0;fontSize=12;align=left;verticalAlign=top;spacing=10;spacingTop=-4;whiteSpace=wrap;strokeWidth=2;strokeColor=#FF0080;" vertex="1" parent="1">
          <mxGeometry x="1291" y="-104" width="270" height="857" as="geometry" />
        </mxCell>
        <mxCell id="seNpa9M3IsFzkgEDLgjZ-24" value="" style="image;html=1;image=img/lib/atlassian/Jira_Software_Logo.svg;" vertex="1" parent="1">
          <mxGeometry x="1399.7" y="68" width="74" height="76" as="geometry" />
        </mxCell>
        <mxCell id="seNpa9M3IsFzkgEDLgjZ-25" value="" style="image;html=1;image=img/lib/atlassian/Confluence_Logo.svg;" vertex="1" parent="1">
          <mxGeometry x="1405.2" y="186" width="63" height="57" as="geometry" />
        </mxCell>
        <mxCell id="seNpa9M3IsFzkgEDLgjZ-26" value="" style="dashed=0;outlineConnect=0;html=1;align=center;labelPosition=center;verticalLabelPosition=bottom;verticalAlign=top;shape=mxgraph.webicons.github;gradientColor=#DFDEDE" vertex="1" parent="1">
          <mxGeometry x="1399.7" y="272.6" width="82.4" height="82.4" as="geometry" />
        </mxCell>
        <mxCell id="seNpa9M3IsFzkgEDLgjZ-27" value="" style="shape=image;verticalLabelPosition=bottom;labelBackgroundColor=default;verticalAlign=top;aspect=fixed;imageAspect=0;image=data:image/png,iVBORw0KGgoAAAANSUhEUgAAAPoAAADJCAMAAAA93N8MAAABKVBMVEX///9ChfT7vAXqQzU0qFP7uAA1f/QkpEmv2LizyfozqUk8lrNChPj7ugDzPRr/vQAoevMrif8OplerY5j803nCtSnqPi/pOirpNiXv9P7Htif8vwDpMh/pMB32+f7l7f3pODfoKhT+8NN3o/ZMi/T2vbr97ezU4fzA0/v/+/GYuPjxjIb7393rTkLznpn+9PNhlvXuaCz81oT+9N7+6sJUj/WOsvj1sKzvfXb51NLsWU34yMXucGfymJKiv/nK2vuAqffrTjLzjSD2mhr3pRT5rw78y1n7wzP93JjZ5fz8yVH94qv7wCT80G3L5tHl8uhTsmvtYlnwhX7vJwDl1uL0qaXxfCb5u2LyhCPsUCT+8df+6cL95bJpvYWPyp2x0Nzk2p9GrmC1271oh/1lAAALK0lEQVR4nOWd/VvbOBLH46R2ym5y9d1xSbo4gAtJgYSQAiHkhZe2tJS3tnDX3l67cNf9//+Ik+O8x441o5Fkdr8/9enzFPzpjEbSaEZKJBSr3Co1a5XD7m17O8W03b7tHlZqzVKrrPpLFKpaOuqm3KJTKORzTKmB2J/z+YJTdFPdo1JV91dSq1w6artFhpyaq1y+UHTbR6U/igPsdCopN5J6gt9NVTo7ur9bVOXmrevkealHyjtut/mIjV/+0nYL3NaesX7BvW0+TtuXbgW4h/Tdjm4OqKoVxxHk7tMXc18ek+k7ty5ifIep4N49limvtF0kMfhIebf7GOBLKRpPn1Qu/vAMnJ57AB/nya7VLkoC9+ErcQ145a4rwdXHlXeauiEDVZMN7slpx2/It1IF+eApz+uPdKNOqeIqAfdUSMXJ8K0U4QomUjm3pht4qCN1Jvfl3MYj1O+01YzyceWKcdjVdKhXrXyKgdPXVDv7QE5XM3lX1ro1WvltnQN+Z1tlZJ9WrqBvlqvy5xrl6J//0kTe0hPgRvrL3+0NLeQdXQFuRP5Xw17QQF6KA7lh2Md/VnIN7LEhV84ei3Fu6GBvxYncUBnrqvEiZ+wnisjL+havweSM/UIN+rb2lcw0uWFYz1WQ3+pct4eQG8a6AvKK+sQEB7mRWZNOrntCDyFnLi97iivHlZyFupdy0TWHuDnkzO7LMsk1D/S55EamLpFc8/p1PrnU4b5DZvNcvuA4xZ4cp5Dny/ZEkbPhviIL/ZBiRveqArcPj5qdVrVaLlerrU6pdtd2ik4UfzS5YTQkkYu7e67gpu6Ca0HLnaP5lWY85NJcXtDmXiXY/CrAndJhMawahYtclstXhNDzbpur/q/TDSy+4iQ3DBlRXminmncr3Dnzcs2ZCafc5IaMHO0tfjFTcGqwg5JmbhKen5wNd3LyDrpAKI85GfwyXlMMITesLWp0LHjOvcMdjVWGpTkgcubyxFv3JnI1U9hGn4tV++f2QHIjc0rIzYQkFzsF7x1gQ8mpJ7gvKPS8aMFPNZWHkxNnLVCJSIrD/y6cnNbsKKPTlHxs2XB0SrNj1nEuUaHPBoKdzuwlhNGLZBUPJ3D2zAHVL4dnpXIFwgLul3B2myhXNWchtzqr3t9TkmPYqTav3UCjM8rXr76+eXv2zkwml5aWkknz3dnbN19fvV5dzREX7SN8nuT3BuSfGfXXN2dLvpIj9f/m7N/7myS/eqgFKLtFcgBZy09hp76+NaeYJ7WUNM3k4j7FLx/owIKh08xvE+6++vrXd/Ooh8pmTfPyis749QyMnWIT0xoFOWZvPu4BPqP/TfwLeloGolsE5QZ3+aHB30K4h/S7e+IfkYCHeYLkbN/oq6/OwNwD+vcvxD+DLWlhw118RddxfPB3SHAf/pICfh2ELj61H7Iot/ofEfA+vLjbA11e2OOL/hgXAvfhb4TD/Sko1InG+FZx9VcCcB/+ShB9GWR20Rh/xHydBNyTeS7o9aBIJ7qqeUNkcl9Z84PY54CCvCVyGrF5Scjdk3kuNOKPQew23u4vzCw1OjP8dwF02Gg3MgZycv9gkoN7EnL6A+hSHuX0N3LIGft7PPoKdPdqI3JV57LIvQGPZ68D0Q0LOuA3k/TDfKRsEh3sNoAbd8beACXqNrMyyb3dPHaGBwY6T5l1ALtsci/QY9nXgIHOYze42eWTC7DDPd4TJ7sKcs/nceP9OeI0htvnpUa4MfYkCh24bR+wc21hz9WQM3bcHAdd1fjimeOkrWRmhVvb4Aa7YUWubSStXkPYMWta8IKur6iWsBcqyRk7JmeHs3pUW9SmqnHeJ19EkMPXskPN+6mXStFx5MAU3Zjm5W2UDnQsOTBfMa7wLezeoyDHhvgee1iWVtmMLkSeOMGjh7XHXCmd19DkiQs8eojLbz4ScvTE7ts96CfeKHR3EXIx9KDCaZUxTogct3cbKiDSKZzSxcgF0WcLpxWuYAXJBdFnD97VGV2UXBR9ek33TZnRhclF0afN/l6V0cXJhdEnR7vAnO5VifXF8d9HQM7QLewGpm/28UTdLtLoXnnY7tX3b3t7ey/2P9wko/ApyBPLx1sHa4YA/0SZDcrojHtx6th07+p8HjwJeV/PTw4MG0s/+jG/IdCz5nVgOeDeYig8JXlPL9dw8GMVtIiZzUyG1sBu3gTDk5MzPT9FpeWH8xs8yEVUhny7DviJMsiZVuqIjdww0IF3q9lk1KnR4syPlESeQFSMj5XZQP3dvIz+nunwIY+cbeDBA37g8VB/N294vmdyUyCTnE1361B42/+H+zB0PvLJtbFcciYoez/GL4L8Pcvh7b6+D9mlkyeWgVbP+BkL0Mlq9pr/ewbhUz45m+WAcb538gob6qCKAH9TpIIc3BXVm95AQx14QJhVRp5InMKqSL3BDtm6QNzdE5viVJEnEqBI19vCQGZ1cJXnuTpy2KlMb2aHGB1cB7HPOROSCFZqAotyJmnbHrlAZmdxDpSV0w0XIRD6CiTAZ3d1s0VoCxDpWIgHbNvMb7rZInQBmNutBcjcltWNFimAx7OlLP8pY1agjl2RAAW0mQNABl60Z0eBFgBmXwOUUgh1ragRpOCinjjnJY9/lIMdvTcS1/zoxLcwSBCkUWA9wU3+GNATf2J0yHruD4YOyVdA0GluXpAqkMMDwhzJvQtSBTl6b0DmdarbRuQJUk1YByRpYr9xg+3Y1yBreO4MvDYB+mIyp5Cdm6mbLFKAFBXbuQFq4GOen4JFObZfh2RpVOYYMYJs3KwNUJlk3D2+wU9uWBewjGy8d+yQ/FSvTBh0zqqbbq5ATc7ejeKg05c4mx1k9N4d+qBywThvYUD9b737VkFFczFOTULCe7+QCHi+HteFPLAtxC+PhpDHd+sKbGv3239g/T4Ct4vIFPDazX5hOLBCNnsdQ/Y1YClNv2YQWjcXQ7tDyYd9T9CGzmw2Xvma5Qa4THZwdQW8gTlWS5sTeFPAsBkA0d0nfGEgmZYxZeGjzh9EC3PWvIkF/DGqD2R0VQuqh/nZL/cfNTJ7WtmyUF3N4zduItCf/fK3dPrJgz76i+MGtvdlvOUJ3sXMyJ8wpdPpH/cPT5H67wJOx1unDRtncE8TjW7g5sY+ua80Uj/9zL4fpYxQo9vkLS3AQDdBjtZPP4u16mE1eWsDrB2AhlwX+vRr7dcAsxOR60KffrQbYHYqck3os5cKc492MnJN6LMvtfPm4+nI9aBPj3RPfJlZQnIt6IGX8nBtYijJtaAHPxGxG83+7B+E5DrQw97zjOz6oiXXYvVg8shIR0yuAd1+GYIe0H8sk1w9+ryrNeet6cjJ1aPPTukjzYny9OTK0ec/ABSar5FArho96oWAkBt0ZZArRo++QzdwLS+FXC162N2KYwq6J1wOuWKrR5IHhTpJ5ErRLa4Xn6ZXNrLIVaLzvu723VRCrhB9/nXR4xpP2cgjV4fOTz5ud4nkytAh5KPnnWSSq0K3gA897fXmOKnkatAz6+DX/DbZVkYuuRJ0K3olE6D3plxyFeiY1608/S8tlVwBOu5NM0+fnkiFl41uNUQe7byXyS4Z3Q5JQfLqo0TDS0W31kGzeaAepLFLRM/Ywu8Se/r0WRK8PHR7jeD59Z4+/pACLwvdrov7umR4Oeh2PeBAUQz+c5qaXgJ6xq6HnjII6NM9MTw5umUfCD84H6anPyjpadEtuy7yCHO0Pnn0RPh06BnGvUAV1OfR/36fJsGnQbcs2zjYAL3FKoj/8Nmv+9OGnslYjDpT39pQYO4Z/o+/P324v//8Qzn6eqO+drq1sHEhYuz/Azr40WxMyQBbAAAAAElFTkSuQmCC;" vertex="1" parent="1">
          <mxGeometry x="1396.74" y="397" width="88.31" height="71" as="geometry" />
        </mxCell>
        <mxCell id="seNpa9M3IsFzkgEDLgjZ-28" value="" style="shape=image;verticalLabelPosition=bottom;labelBackgroundColor=default;verticalAlign=top;aspect=fixed;imageAspect=0;image=data:image/png,iVBORw0KGgoAAAANSUhEUgAAAR0AAACxCAMAAADOHZloAAAAkFBMVEX3mB/////3kgD83b73kQD3lhT3lxr3lAD82LT5sWL3lRH/+/X3lAj2jgD4qU3//vz94sn+9ev97Nv+8eT71K76wYj4oTr4pUX70aj+79/959L3ni/5smX82rr5t3L//Pf4rFj7y535uXf6xJD6vX/3nzP7zKD4qlT4pEH6yJX6vH7838T5s2v70an95s76x4/KpyTYAAAQrklEQVR4nO1d6WKqOhC2aYgtglurtlWrdrd6et//7S4uZGZCQLIIck6/n0UtfExmz6R19Yt8tOq+gYtG1ewsOoNBp9Or+L/aoiJ2FsP5+ns5bgVRO0EUiGl3+/qnP6jmv1ujAnaGD89jzlkUBkK0UggRRozx4PP1+oIpOjM7gz+3jLMQWFERRIxPR/0LXWrnZGfwMeEsyCUG5Cji4fb6jDdijbOx05t3Y5YvMypC1n4bnuterHEmdgajsIzUUIL4ZH6eu7HGWdgZPvPIkJo9AtZ6OMf9WOMM7NzNeGjDzQ6CBZfEj3d2Fi/23Bz4mV7O+vLNzoo5cbPnh08uRT/7ZWc4Zq7c7BDwkdfbsoZXdkZxeRNeDNZ68nljtvDIzqMfwTlAXIT4+GPngfsSnAPYpP4AzBs7z9wrNwmCdt/XzdnCEzudsZX7VwzBP/zcnTX8sDMMTMOGcuAvXm7PGl7Y6XtWOQC29HF/1vDBzty7ygFEkzpTPx7YuT8jOUnkPq6RHnd25vE5yUno+aqPHmd2rs8qOXt6Jj4e1Aqu7DydnZxE99Smmh3ZuWufy1phsLoMuxs7i1YV5CR+z8rP05rCjZ2uczKnJOJ6ggondkYeg/JiiHYtIakLO5sKNHKKoBbD5cBOpzLJ2YH95++hS8OBnWVVSucAXkO20J6d8wYQWYipx8cuCWt2ql1XO7Dqc6nW7MyqXVc7xI8+n7wMbNnpnzn21KF6u2XLzrgaJ5mCq1XSx+vVaPbZ/Vw+vz6co5HMkp0/lWudHQS+28ePJdt1lIVBgl0jWRw833S8kCJhyU5Uh+gkijlNw3cextnGKREytvRahLdj56MW0UmeP9hnwu6+eV7jVMBaK3/ZMit2ekE9onMQnk5xl4dgbW+FHit27msSnb3meWifLJ2xqSe/2oqdaV2is6OnzJsR8Vtt7FQZm9uCjX0YeBt2lucpfPpF0PawuizYGTRAdFq7KvymDnbWZ2goOAu4c4e4BTs16mRDOGejzdkZNmNh7cEco3pzdl6bsrBaO/u/qJid5iysBOFttewMakjsOIDfVMpOfVGEHdouSQ1jdrbVZ0ydED5XyU6j1M4OscO2AlN2GuIoIwQOitmUneuGqZ0E3N7pMWWnSd7OEaF9948pO7dNiM8VMOtUqik7omlKOQGz9nkM2am+PuwBwawidu4aZ7J2sF5ahuz0myg79s0thuzcNJKdaFUNOx/tup/UBtaKx5CdBro7CcR7Nex8NywGPSKwTIIZsvPcTHaYZXHLkJ1ZA13lBPzul518sIc7K5fn32CnxTif3q43pnlCQ3Zemql3dhC7IVpfa6NcmBE7T6Np3c/oCBHx99fyKro8O4uPqd3MoQuDiOJl2RppWXY6o7bBFK/qIIIwarejyGhDfMDH5doLy7HTW7NyYiMCBJF7reBr+ZcyLydZJnwyG60+Plb/bT/bpebTpV/l4zLyU4qdTVAy+BRfs1uJGe1pFmN5TW0AEl34mnpJfms2ofSEfLIiKvbx/tNgbJTgy9NOUAl2FrPSowpoqmBOOMW1ASVLhJ01pSKE8nqkMyaInzXW5+7FYAJQwNbu7Py0y7+QiPhctLqD98gonfIx+pIiV4jvT3SFdXNe/PDdwOdg7yfKFSfZWRvMuFBLR+/kqxwsKV0/Yoy+o2QBYnDg0AVe8NaXBob11JSWU+xsTVKl7J5++Y28RwadarR9LNyi7yj5tVBeQEnb4taBTxOPlc+KQoxidhYTo1wgV/ysDfk2ytDN8y6ozVMBbNSHOiMvHkm4KBg6m0U0LXAOC9npmCxiTZKpQ7pZAhARSgHD/X098p0QdqxJeYtOVe/MZroUNacWsdOZmsWcUWbzHTXCsEquCAU0v0D+J1qrqboWAn96uN5OurMRbS99N/JbRX73ZQE7C0NyWizjYFEVy0HDkhkIAVn6JA2ATFYqxrh2N1jGUSCS+JK3sPP7YFgbyNVjBex8mcbjPP2m9ET6dAX9yN/eIgqUBUk0NiT1UvcA79G6g8GYIkZmzLhRJFbMyWl2TCzjHqBBpYJZkBIG2vuCKVC6ALDGRlSkGj56lX/qEQmMgfurL9OQMNbHXbnsmE9xYH/S78byjXfxMkFtWJgCpdr0iF588Cn/nC5SDi7yivriXfgN8zQU14ZdeezcmJeEpXJ9hDexwgKIvD5ccWZUpS6wWIGeT5Uyh08qA1yQP2FRdtO2Nuewc2de84RI4R6mcNLhRVwWTjAFakocWRxkso5UIGlSa/oMVsfc4vaFJq2aw45FdyC85+cI9CwRcWSBUKTVVrxVVBUCPZ4qWqSk1Jp+9JF7qdT9a/Zz69mxGR0DCyQxIFJISESFRAFaV4V6V0hjQ5QllfJKfk6t6SN3y2reFsvueNOyY/XjPBWBROLB8yFbs8NvDQVSV6cLH+IPZLLSz4Pqz3ROh/B0dns54oxXqGXHpusW7HnyTiPpfGALhNUyUCDtfGqqQZ8gJZPKIGJno7ATLG/uj7Ar94tIVT06dtY2bShMhobfIX4sYj0g/wOspXLW+0qvyUtorbDMv8kKSMBSWFYHQnU4nYadgVWPDvS97iQPaCCVd+SsyEgrNVmP7fSSjM5AUKT3i5zBK/8VEnWUhIYdq15/UBH7BwEaiO5EMZJ0Z1MH5lr6kJJQsHHSCOHG/lfvrVZCadbIsmOn0UAl7n0NWAAk5kHeXfoORLqgVnInnvTlIMqSShxbuIX/BtiI2q0sO3YdyWDPR7vHRuk+rOKRPvo4Pq90YLY8XUdSUJjmpnAOeuh/cjF1TTPsDO32X4EbfHB1A/mDJH0Kz5um+qSUfUWpvU+NFkoMAsUkTTIUvnVPSJroMuzY7TACoTjmA+EdkJ0VoLtTClKh63EII4+CAqsVLU8a0buefJIF2ZKjsmNnsFBy4uiFgP4l6VNIkvaOT5XGjomJl4vmqLHBtcauDaNOyXAbex13Q0oAKjuWbZMgE8cfQG4xTrYgg3xYgaJ1tP2JiEl5Oy5GLqMsHOpHqsM/eG35FCCseVR2LGfHQMr46Kwgt3iEHg2p5UMORtqgxCpJlXIMPyDTuiXZ1GwR9OfFpIheDJwdV9ixHAACkrJI1wAEkH19su8gD1K3JPpOLs/DN1DxlBYHdbmG3nzJPU0zBsuhsmPZUwrqRGaSwcR3cDABKaqDLpGzqhKrJBXuQVWBllaUYTDWdrgNVlMvFh4VkCg7PctWdtCUUHUCDdNF9wykHexQupo6Efb09qkucB3VdE3Qyqmib8Ye+EH1bspO325hoZSubAUQ8DeiU1f0TSCThaKz/a9AlLVSTYXILYfOhbuCZtJ3o+yM7H4aPTK85VD+D5wuQlsW9vo7jbL28YdcdntFzmSUpel0ZZOcCuZi5rxJCpYWZcesiCgBVgQRgdKkeL3KSHxvtKQN269Iuez2iS3Q67p8UxB/5vCzcqUHHE7CjqUr2IrkL6BiAIM0Lw7dwEzvPiuN3V48pAzuSZa2o6MPbgI+vteq5w9HesBYEnbUbFtJIOce8YDWEK7cQpy007VStxz0sDRaHEdZuTl0weLlXLNB5MUx+pK5AcJORvuV/DHIGeE1BH4DTopAzLGLtFJ3+NB5AS+tjaOsotsKGJttMi04jkcVyBVO2LH1dqR8k9wQcskRaSiO4aCHj1+URiuRQYiyTgTGAWs/K5VMi3oWhnyDhJ2JFeUoIfWQkwhEz4dCjImQrvPxcWS4lhgtiLJOFwFC/k75cRMeucIJO3ahCioxLWMGiCHJiYsrkAl6CaVTdIxdpS29YbD4S9kKEZPMhtvkNukPEnbsdD2KCjsU8u+4qAuW/oFJd/iozSXRu6xf+rGfcsuE4ZZOt+FkUr4xOwurtCDtxcoBWhzgAveZ1C1HR0s2z3UY+N9lWwYYKlf0nDxm+WYwOx27fHuZ8T9oPynY/wFP6+TpiARQSu+QximdrYxRf6RxBw9BmvfF7NjN1mFlNmQgIwKtXj3pDsuFEKdGayZz8FTDijA6IMwqSVzrcptmkqar3NlR23C1wO5uW6rlSbooJXlSh73K+g3xlMNR76jTFlnXFXeFvzktLW+yI+tRxUARHGjx71S3yPShNFrXMsoiShkl7jQeNGrbtIynj/DGTnRyKwZ9fpxMX6W6Ra4DuTiGsseLKGVULtSYMuR/urGjW1lWWrnkBA60DiBE2KQ+qXwUCM7kKiEOPErma4w2uhe3sQI62VlYsIPt+barYAJhOhrcA7b6rq9ehEhLHnlE9uOgAqAmckfsOGllrUW/svB3UNi0YIGgCFEbKIpSIDylUdb+Wqo6UuVEBRr3NmejBWTSnSy6/C+ukQQKpjRpV4gasG+fGeKGAo1MOeaH/irqi9+qt4sKHj03dyeVUMKOBeHodWkKhajojZ4y4yGhb2ZmdCld/YjZTCCO8kxuM6akg+uYwcAuhuZoG+yfwbNkdpug/XyZa8o9oc64zIS2GEyW2zRWGe45Zr/Q4+ssHu62AQpQQfQAFIVlJksq2gWp5asN1ZP4fC03V1l6XYSdH2N5RFZCO8USTagFv0XQVD+Nftv0WmZIHdoKebXGe2Q56i2xixgl9JlT83l5SElqfXekeJBhUrrbSQNw3Mm/tgPZVTEPjuVzEZGtom7pHXh79DV2DQUSD9TSVnv0iofRxmDSWqh4l9mtVmQ3V+/+lsWcx19rHO0t3KaTgctJ2TE92wg1r+tndmPFA5kIJfogXr+y8zZrKDIdKr2OWrdxnAENB1FQdkwNIbLnObP2YnjTYEcU1Ys3mqtGS+Nk6DcLIbieRhnKe1YUpNnSwvY8xxtAigdRT1Uv3QZJDJo2uGHFIxo2jpPnkduksGM2bRFrlZwqAP4IGG6SE6JZdXosqHbHhoiKRgw5n2OKNJ/a+2Wkz6CoQvdD4CdBigd23JHGUYUBjrWI/nxAwXP2cSbCZjReQPvjaEGo7KxMhAfq5/nHHEK7B/KIiFlW/FqGjVbeFsacFozOmjk3qOD91yo7JsZQjK9vjph380K0aJ1+5gZc8eBzLv86V/pPwrcbuJZb6At4Vz3gcbF5brsPGiU7nDP9yibCI6C0lx+/RrqdLwGqCqqGIGRlfjb5iXj8/Wf+9Hj3OOzffDyPY3e5aWFzrmPHtuu0DuyOwOQ7MNY2Gn6RD3qebZad60YOmPYFmnvS7ECq+Nzzi4JyjraGnU4jZyh7gXoGu27no9mElr8Jat5Wu2v2u5Hzyd2R6fPV70ef/JOqJ9qqPOjZ6TTxUA1XhNmad86kh8eLHNt5VgStbHtv3gwVq3EGTYYINL0kufN3fvzvSL1kiEiXNMqf3fTzLy2uQGgzagVzv4btho4pN0eYM3SwaKLeYPqPGHbWzTlvonAaY2/5T7iFPHe844k5p2uDibwNRUEa9uQU2KfW3zDLvQBsXFDhODlBePH8N5v2IM5MHzVi5+qq3/pbtY/gX8XHS5Sa676yHYZ02WBhvsYxYOdq8OZ7GEf9iNj65Nk2Zc+TGLwxr8M4aoZg0WuJM7XKn0XSWQfeZk3UjJC3HkqdN2Z0js31bbb61DiE2Y2SfthJBOh+yRq8xIKIt2e6Xch+2Emw6L9OGGdRg6qCreP5UKy7/jE6ZcycnR16T/ejz2nAdlXIy0dyl+J9+Xpvfoy8HTsHLAZ3T/3N9YVj038aDCyP4nVh5+/HLztF+GWnCL/sFOGXnSL8slOEX3aK8D8Y6QOR57YJZgAAAABJRU5ErkJggg==;" vertex="1" parent="1">
          <mxGeometry x="1399.7" y="490" width="101.44" height="63" as="geometry" />
        </mxCell>
        <mxCell id="seNpa9M3IsFzkgEDLgjZ-29" value="" style="shape=image;verticalLabelPosition=bottom;labelBackgroundColor=default;verticalAlign=top;aspect=fixed;imageAspect=0;image=data:image/jpeg,/9j/4AAQSkZJRgABAQAAAQABAAD/2wCEAAkGBxAOERAPDxAPDxUPEBAPFQ4PERANDg8SGRIYGBURFRUYHCggGBolHhcVITEhJSkrLi4uGB8zODMsNygtLi0BCgoKDg0OGhAQFy0dICM3LS0rLy0tMS0tLS83Ky0rLSstLS0uLS0rLSsyLS0vKy0tLS0tLSstKy0tLS0rLS0tK//AABEIAOEA4QMBEQACEQEDEQH/xAAcAAEAAgMBAQEAAAAAAAAAAAAAAQcDBQYEAgj/xABDEAACAQMABQgHBgMHBQEAAAAAAQIDBBEFEiExUQYHExRBcYGRIjJhgqGi0RZTVHKSsUJSwSMzY3OTwtJDYoOy8Bf/xAAaAQEAAgMBAAAAAAAAAAAAAAAAAQUCAwQG/8QAMBEBAAECBAQEBgICAwAAAAAAAAECAwQREiEFE0FRFDFSgWGRscHR8HHhFTIiQqH/2gAMAwEAAhEDEQA/ALxAAAAAAAAAAAAAAAAAAAAAAAAAAAAAAAAAAAAAAAAAAAAYLi8pUsdJUp087tecYZ82TETPkiZiERvqLWVVpNPtU4tP4mXLr7Swm9bj/tHzT12l97T/AFx+o5dfaUc636o+Z12l97T/AFx+o5dfaTnW/VHzOu0vvaf64/UcuvtJzrfqj5nXaX3tP9cfqOXX2k51v1R8zrtL72n+uP1HLr7Sc636o+Z12l97T/XH6jl19pOdb9UfM65S+8p/rj9Ry6+0p51v1R833TrwlsjOMvYpJsiaao84TTcoq8piWQxZgAAAAAAAAAAAAAAAAAAAcvzicpJaNtHOljpa0uhptpSUG03Kph78JPxaydGGtcyvKfKGm/c0U5x5vz9d1p1ZyqVZSqTm8yqVG5zk+Lb3lxEREZRsrM85zl6ND6WnZzUotuDfp0v4ZR7Wl/NwZjnMNV6xTdpymN+krQi00msNNZT4riblDMZJwAwAwBAMgGSAZCeNq2NbU1saCY2nOHa8ltKSrwlCo8yp49J75Re7PFrH7FRjLEW6oqp8pem4Xi6r1E0VznMf+w3pxLUAAAAAAAAAAAAAAAAAAFJc8WlOmvY28XmNpTSf+ZUxKXy9H8S2wVGVvV3VuLrzry7OCkdcuZimjCWcLE5HXnTWsE3to5ov3fV+VxM6J2UuMt6bs/HduzNyoyAyEoAARkASNnybuuiuKbe6f9k/e3fHVObFW9dqfhu7uHXeViKZ6Tt8/wC8lgFG9aAAAAAAAAAAAAAAAAAGK6uI0YTqzerGnCVSUuEYrLfkiYiZnKETOUZy/Mmkb2VzWq15+tWqTqtZzhyk3q9y3eB6CmmKaYpjopaqtUzM9XmZKGOSMZZQ6HkJealadFvZWhlfnhtwu+Ll+kijaXJjqNVEVdndG1UgDIEZJACAGQlGeGz29qAsvRl109KnV/nim/ZLdJeeTz12jRXNPZ7TD3ebapr7/svUa24AAAAAAAAAAAAAAAAcVztaV6vYSpReJXU40VjfqetUfdhavvnXgqNVzPtu5sVXpt5d1Glwq0AfMkYymC1uXQq06y/6c4ywu1J7V4rK8TCdt01U66ZpnqtaM1JJp5TSafFPczc8/MZbSkkQAyEoyBGQAEAdhyIu8wqUX/BJTX5Zb0vFfMVfELeVUV93oOD3c6Krc9N49/3/ANdOVy6AAAAAAAAAAAAAAAAFJc7+lOnvo0E8xtKaj/5J4nP4dGvBlvgaNNvV3VmMrzry7OGO1yIAiSIlLFNGEwzh33JC86W2hF76LdJ9y2x+VpeBlROyoxlGm7M9926yZuYyBAACABKUZA2fJu76G5pt7pvon3S3fNq+RzYq3rtT8N3Zw+7ysRTPSdvn/eSxSietAAAAAAAAAAAAAAAMN5cxo06lWo8RpQlUk+EYptvyRNMTVMRCJnKM5fma/u5XFWrXn61apOrLtw5SbwvYs48D0VNMUxFMdFHVVqmZnqwEsQJQwMckYSyhveRN3qV50m9laGV+eOWvg5eSIo2lzY2jVRFXZ3BtVSABKUAAIAARnwAs/RV309GnV7ZRWfZJbJLzTPPXrfLrml7LDXebapr7/Xq9ZqbwAAAAAAAAAAAAAHE87elOgsXRi8Supxpe3UXpTfdsUffOzBW9VzPs5cXXpt5d1IFyqQJQAIHzJESyhFvXdGpCrHfTlGeOOHtXisrxNc7bpqp1UzTPVaEJqSUovKkk0+KaymblFMZTlKckiAAEZAZAjISAdjyEu8xqUW/UaqR7nsaXc18xV8Qt5TFfsvuD3c6arc9N4/f3zdUVq6AAAAAAAAAAAAAAUlzuaU6e+6FPMbSmoezpJ4lN+WovdLnA29NvV3VWMrzr09nDnY5AAAAiSIlMMM0YTDOJdzyRu+ktoxe+i3Sfctsfg0vAyo8lZi6NNzPvu3Rm5UZAjIAJQSAEZA2fJu86G5pSexSfRS7pbF8dV+Bz4q3rtTHu7MDd5V+me+0+/wDeSyigesAAAAAAAAAAAAAwX11GhSqVpvEaUJ1JP/tjFt/sZU0zVMRHVFUxEZy/NN7cyr1KlafrVqk6svzSk2/3PR00xTERHRQVVapmZ6sBKAAEoIBgY5IxllDc8jrrUrypvdWjs/PHLXw1jGnaXPjKNVGrs7XJtVqABIZAgAEoyBDAtLQ151ihSq9sorW/Mtkvimedv2+Xcml7DDXebapr7/Xq9pqbwAAAAAAAAAAAcPzuaU6Cy6FPErqoqe/D6OPpTfdsjH3jtwNvVc1dnJjK9NvLupQuVQAAkAgAB8yRjLKHxSrulOFVb6clPvw848dxrllNOqJpnqs2SaymmmtjTWJJ9qa7GbomJjOFLNMxMxPRGSUASgBkCMgRkkAOz5A3mY1aDfqtVI9z2SXg0v1FVxG3vFfsveEXdqrc9N4+/wC/F1pWLoAAAAAAAAAAAFI87GlOnvnSTzG1gqfs15elNrzivdLrA29NrPuqMbXquZdnFna5ACABAAAl8yREkNzyI0T12/tqLWYqarT7VqU/SafsbSj7xzYmvRbmXTh6dVyIWVyxtOiuXJLZWiqi4a26S+GfeIwNzVay7bODidrRfmelW/5/fi0eTsV6MgMgQSAEZCTIGy5N3vQXNKTeyUujl+WWz4PD8DRireu1Me7qwV3l36Z77T7rPPPPWAAAAAAAAAAB59IXcbelVrz9WjTnUl3Ri2/2MqKZqqimOrGqqKYmZ6PzXdXEq1SpVntlVnOpJrdrSk5P4s9JTTFMREdHn5q1TMz1YiUAEAAkAgAyErS5lNFYVzeSXrNW0H24WJ1PBt0/0sq+IV7xR7rLA0bTV7Ou5cWevQVVLbRkn7dSWx/HVfga+H3NNzT3auLWtVmK/T9J2/Dgi6ecAICTIEZAAQBDJFraDvesW9Kr2yilL862S+KZ5zEW+Xcml67C3ebZpr+f89XuNLoAAAAAAAAAHDc7ulOhslQTxK6qKOM4fRwxKb89Re8d2At6rmrs48dc028u6mC6U6AAAJCAAgCGEv0XyQ0V1Kyt7drEo01Kf+ZL0p/M2vA87fucy5NS+s0aKIpbO7oKrCdOW6cZQfc1gwoqmmqKo6JuURXRNM+U7KmrU3CUoS2OEnBr2p4f7HpYmKoiY6vG1UzTM0z5xsx5JQZAgAEoySGQIA7Tm+vcqrQb3NVY9z2S+Or+oquJW94r9l3wi7tVbn+Y+/78XYlWugAAAAAAAABSPOrpTrF/KmnmNrCNJcNd+lN/FR9wvMBb02s+6mx1zVcy7OOO1xoIAAEoAACEt9yF0X1u/t6bWYwn00+GpT9LD9jerH3jRirmi1M+zfhqNdyI936DPPrwArvlrZ9Fcua3Voqfs1lskvgn7xeYG5qtZdnmuJ2tF/V0q3+0/vxaA7FeZAjJIjIACAGQNlybveguaU28Jy6OX5ZbNvsTw/A0Yq3zLVUe7qwd3lX6avaff9zWoederAAAAAAAAPNpG8jb0atefq0ac6j4tRi3he3YZUUzVVFMdWNVUU0zM9H5tua8qs51ZvMqk5VJPjKTbk/Ns9NTTFMREdHnKqpqmZnqxkoAkAAQQAAJWnzMaLxG4vJL1mreDxt1ViU2nwbcF7hVcRubxR7rPAUbTX7LNKxYgHOcurPpLdVEttGSl7dWWyS/9X4Hdw+5puae6s4ra1WdUf8AX6eU/vwV7ku3nQCAGQIyEmQIJEMGS2dAX3WLelVby3HEvzx9GXxTZ5vEW+Xcml6zC3ebZpr+f89WwNLoAAAAAAAcLzu6T6Kzjbp+ldVEmu3o4YlJ+eovFnfw+3quauzix9zTb091Nl2pgCABA+4UXLaviZxRMsKrlNO0vvq0vYTyqmPPpOrS9nmOVJz6UdWl7PMcqo59K1eS/LKwsbShbYr5pw9NqmmnUb1ptelu1mypv8Pv3Lk1bfNa2eIYe3RFO/ybT/8ASLDhcf6cf+Rq/wAVf+Hzbf8AKWPj8kPnJsOFx/px/wCRH+Lv/D5n+UsfH5MF5zjaOqQnTnG5xOMoP+zjuaw/4iaeH36KoqjLb4lePw9ymaZzynZyFOaklJPKkk0+Ka3lu85MZbPrIQjISjJIAAIyEoA7Xm7vf763b4VoryjP/Z5squJW/wDWv2/H3XPCbv8Atbn+Y+k/b5u1KpdAAAAAAAKR50tJ9Yv5QTzG2jGiuGv60335aj7hfYC3ptZ991Jjrmq7l2cgdjjAICQD1W81jHavib7dUZZOW7TMTmzGxpAAAAB8yIlMMFRGuqGymW90BX1qWq99NuPg9q/qvA0lcb5tkGABGQkAgABGSRseTl91e5o1G8LW1JcNWXotv2LKfgaMTb5lqql04S7y71NXtPv+5raPNvVAAAAAAeXSl7G2o1a891GnOo1x1VnC9r3GdFE11RTHVjXVFNM1T0fnCvWlUnOpN5lUlKcnxlJ5b82z08RFMZR0eaqqmqZmerGSgABIQCZI9VGrnY9/7m6ivPaXLct6d48mU2NQAAAQwlimjCWUPToStqVdXsqJrxW1f18zRVG7ZO9LoskNaAAEZJDIEZABKGELb5OX3WLajUbzLV1Zfnj6Mn4tZ8TzeJt8u7VS9XhLvNs01dev89WyNDoAAAABwnO7pPorSFuntuaiyv8ADhiUvm1PiWHDreq5NXZwcQuabenup4vFMEAAAgAAA9NGtnY9/wC5uorz2lz3LeW8MxsaQAAAxzRjLKGFycWpLfFqS708mquG2l1dOopRUluklJdzRrYTGT6yShGQASgBkCAAHbc3F9/fW7fCtFeUZ/7PiVXE7f8ArX7fj7rnhN3/AGtz/MfSfs7gqVyAAAACkOc7SfWL+cU8xtoqgsPK1ltm+/Wer7pf4C3osxPfdRY65ru5dtnJna4wCABCQAAA6HkBovrd/Qg1mNJ9Ynw1YbVn2OWovE5sZc0WZnvs6cJb13Y+G7ruXPIfU1rqzj6O2VS3ivU4zpr+XjHs7NmxacDxDPK3dnfpP5/LPHcOyzuWo/mPx+FfFypQAB8yIlMMNRGuqGymW50FW1qer203jwe1f1XgaU1xvm2BLEAjIACAAEZJS2PJ2+6vc0areEpqMuxakvRbfdnPgaMTb5lqqlvwt3lXqavn/H7ut8809UAAAHk0tfRtqFavLdRpzqY44WVHvb2eJnbomuuKY6sLlcUUzVPR+c61WU5SnN60pylOUuMm8t+bPUxERGUPMzVNU5y+CUBAgAEgEACErW5nNGatKvdyW2rNUYZ/khtk17HJ49wp+JXM6oo7brfh1vKma+6xisWKvOXPIjX1rqzh6W2VS3ivX4zpr+bjHt7Nux3OB4hllbuzt0n8qfH8P1Z3LUb9Y/CtC8UQEIYSxTRhLKGfRFXUq47Jpx8d6/qvE01ebbO9LfkNYBAAlKMgRkBkCGBbvJi/6za0ajeZaupLjrx9FvxxnxPN4q3y7tVL1GEu8yzTVPn1/nybU53SAAOD53dJ9Ha07ZPbc1Mtf4dPEn8zh8Sy4bb1XJr7ff8AZV/EbmVuKe6oi7UiAAAAEhAgAlnYk23sSW1t8Al+ieTmjVZ2tC32ZpU4qWNzm9s34ycn4nmL1zmXJq7vS2qOXRFPZsjU2AHC8ueRKuNa5tIpVdsp0lsjW4yXCf79++1wOP5eVu55dJ7f0qsdgIuf87fn9f7VZKLTaaaabTTWGmt6a7GX8TnvDz8xMTlKCUMc0Yyyhgk3FqS3xaa71uNVcNtMunpVFKKkt0kmvEwYzD6ySGQIyBAABkCMkpdvzaX2HWtm9+K0V7dkZ/7PiVPE7e1Nft+Put+FXN6rfvH0n7O8KhcgACkuc3SDr39SP8NvGFGPDONaTxxzJr3Ueh4fb02YnvuoMfc1Xpjts5Q7XEgJCAAgAACXR832jOtX9CLWY0W7iXdDDj87gvE5Mbc0WZ+OzqwVvXej4br3POvQAAABxvLfkZG8Tr26UK6W2OyMa6XY+E+D8HxVlgcfNr/hXvT9P6VuOwMXo10bVfVUtalKEpQnFxlFuLjJOMotb009zPRRMTGcbvO1UzTOUxlLHISiGGojXVDZTLa6Fq5puL/gk14Pb9TVDKru95LEAARkJCRADIGx5OXroXVCp2dIoS/LL0X++fA0Ym3rtVU/vdvwtybd6mr4/XZcZ5l6kAAU1zn6EqULqdyot0rlqSml6MKmqlKEn2N41lxy+DL/AIfeiu3o6wouIWZpua+kuMO9XgSAAICQgQwLf5qdATtqNS5rRcJXOqoRksSjSjlptdms3nHBRKPiN+K6oop8o+q7wFiaKZqq85d2VywAAAAByvLPkhC/i6tPFOvFbJbo1Ut0J/0fYd+CxtVidNW9P0/hw4zBU34zjar981P3dtOjOVKrGUJwerKElhp//dp6SmqmumKqZziXmq6KqKppqjKYeWaIkhttGUHTht2OTzjguxGqWcy9eSEBKUAAIyACQDb8ldFTurimknqU5xqVJ/wxinnVzxeMY732HNi70Wrc5+c7R+/B04SxN27GXlG8/vxW8ebemAAHxXoxqRcJxjOMlhwmlKMlwaexkxMxOcbImImMpaSfI3RzeeqUdvBOK8kzo8Zf9ctHhbPohH2L0b+EpfN9R4y/65PCWfRB9i9G/hKXzfUeMv8Ark8JZ9EH2L0b+EpfN9R4y/65PCWfRB9i9G/hKXzfUeMv+uTwln0QfYvRv4Sl831HjL/rk8JZ9EM9nyWsKMlOna0VJPKk467i+K1s4ZjVibtUZTVLKnD2qZzimG4NDcAAAAAAA8OkdEW11jp6NOq1sUpxTklwUt6Rtt37lv8A0qmGu5Zt3P8AemJeGPJDR62q1pd/pfU2+Nv+uWnwVj0Q+/stY/h4ec/qR4y/6jwVj0QfZWx/Dw85/UeMv+o8FY9EH2Vsfw8POf1HjL/qPBWPRB9lbH8PDzn9R4y/6zwVj0QfZWx/Dw85/UeMv+s8FY9EH2Vsfw0POf1HjL/rPBWPRCfstY/hqfzfUeMv+uTwVj0QLktY/hqfzfUeMv8ArlPg7Hohs7a2p0YqFKEKcVujCKhHyRoqrqrnOqc5b6KKaIypjKGUxZAAAAAAAAAAAAAAAAAAAAAAAAAAAAAAAAAAAAAAAAAAAAAAAAAAAAAAAAAAAAAAAAAAAAAf/9k=;" vertex="1" parent="1">
          <mxGeometry x="1403.4" y="610" width="75" height="75" as="geometry" />
        </mxCell>
        <mxCell id="seNpa9M3IsFzkgEDLgjZ-30" value="" style="endArrow=classic;startArrow=classic;html=1;rounded=0;entryX=-0.087;entryY=0.616;entryDx=0;entryDy=0;entryPerimeter=0;exitX=1;exitY=0.5;exitDx=0;exitDy=0;" edge="1" parent="1" source="seNpa9M3IsFzkgEDLgjZ-12" target="seNpa9M3IsFzkgEDLgjZ-24">
          <mxGeometry width="50" height="50" relative="1" as="geometry">
            <mxPoint x="1200" y="380" as="sourcePoint" />
            <mxPoint x="1250" y="330" as="targetPoint" />
          </mxGeometry>
        </mxCell>
        <mxCell id="seNpa9M3IsFzkgEDLgjZ-31" value="Call Rest API" style="edgeLabel;html=1;align=center;verticalAlign=middle;resizable=0;points=[];" connectable="0" vertex="1" parent="seNpa9M3IsFzkgEDLgjZ-30">
          <mxGeometry x="0.0933" y="1" relative="1" as="geometry">
            <mxPoint x="-1" as="offset" />
          </mxGeometry>
        </mxCell>
        <mxCell id="seNpa9M3IsFzkgEDLgjZ-32" value="" style="endArrow=classic;startArrow=classic;html=1;rounded=0;entryX=0;entryY=0.5;entryDx=0;entryDy=0;exitX=1;exitY=0.5;exitDx=0;exitDy=0;" edge="1" parent="1" source="seNpa9M3IsFzkgEDLgjZ-12" target="seNpa9M3IsFzkgEDLgjZ-25">
          <mxGeometry width="50" height="50" relative="1" as="geometry">
            <mxPoint x="1100" y="385" as="sourcePoint" />
            <mxPoint x="1414" y="297" as="targetPoint" />
          </mxGeometry>
        </mxCell>
        <mxCell id="seNpa9M3IsFzkgEDLgjZ-33" value="Call Rest API" style="edgeLabel;html=1;align=center;verticalAlign=middle;resizable=0;points=[];" connectable="0" vertex="1" parent="seNpa9M3IsFzkgEDLgjZ-32">
          <mxGeometry x="0.1172" relative="1" as="geometry">
            <mxPoint as="offset" />
          </mxGeometry>
        </mxCell>
        <mxCell id="seNpa9M3IsFzkgEDLgjZ-34" value="" style="endArrow=classic;startArrow=classic;html=1;rounded=0;exitX=1;exitY=0.5;exitDx=0;exitDy=0;" edge="1" parent="1" source="seNpa9M3IsFzkgEDLgjZ-12" target="seNpa9M3IsFzkgEDLgjZ-26">
          <mxGeometry width="50" height="50" relative="1" as="geometry">
            <mxPoint x="1100" y="380" as="sourcePoint" />
            <mxPoint x="1424" y="307" as="targetPoint" />
          </mxGeometry>
        </mxCell>
        <mxCell id="seNpa9M3IsFzkgEDLgjZ-35" value="Call Rest API" style="edgeLabel;html=1;align=center;verticalAlign=middle;resizable=0;points=[];" connectable="0" vertex="1" parent="seNpa9M3IsFzkgEDLgjZ-34">
          <mxGeometry x="0.1442" y="-1" relative="1" as="geometry">
            <mxPoint as="offset" />
          </mxGeometry>
        </mxCell>
        <mxCell id="seNpa9M3IsFzkgEDLgjZ-36" value="" style="endArrow=classic;startArrow=classic;html=1;rounded=0;entryX=0;entryY=0.5;entryDx=0;entryDy=0;exitX=1;exitY=0.5;exitDx=0;exitDy=0;" edge="1" parent="1" source="seNpa9M3IsFzkgEDLgjZ-12" target="seNpa9M3IsFzkgEDLgjZ-27">
          <mxGeometry width="50" height="50" relative="1" as="geometry">
            <mxPoint x="1120" y="405" as="sourcePoint" />
            <mxPoint x="1434" y="317" as="targetPoint" />
          </mxGeometry>
        </mxCell>
        <mxCell id="seNpa9M3IsFzkgEDLgjZ-37" value="Call Rest API" style="edgeLabel;html=1;align=center;verticalAlign=middle;resizable=0;points=[];" connectable="0" vertex="1" parent="seNpa9M3IsFzkgEDLgjZ-36">
          <mxGeometry x="0.1097" relative="1" as="geometry">
            <mxPoint as="offset" />
          </mxGeometry>
        </mxCell>
        <mxCell id="seNpa9M3IsFzkgEDLgjZ-38" value="" style="endArrow=classic;startArrow=classic;html=1;rounded=0;entryX=0;entryY=0.5;entryDx=0;entryDy=0;exitX=1;exitY=0.5;exitDx=0;exitDy=0;" edge="1" parent="1" source="seNpa9M3IsFzkgEDLgjZ-12" target="seNpa9M3IsFzkgEDLgjZ-28">
          <mxGeometry width="50" height="50" relative="1" as="geometry">
            <mxPoint x="1130" y="415" as="sourcePoint" />
            <mxPoint x="1444" y="327" as="targetPoint" />
          </mxGeometry>
        </mxCell>
        <mxCell id="seNpa9M3IsFzkgEDLgjZ-39" value="Call Rest API" style="edgeLabel;html=1;align=center;verticalAlign=middle;resizable=0;points=[];" connectable="0" vertex="1" parent="seNpa9M3IsFzkgEDLgjZ-38">
          <mxGeometry x="0.2053" y="1" relative="1" as="geometry">
            <mxPoint y="1" as="offset" />
          </mxGeometry>
        </mxCell>
        <mxCell id="seNpa9M3IsFzkgEDLgjZ-40" value="" style="endArrow=classic;startArrow=classic;html=1;rounded=0;entryX=0;entryY=0.5;entryDx=0;entryDy=0;exitX=1;exitY=0.5;exitDx=0;exitDy=0;" edge="1" parent="1" source="seNpa9M3IsFzkgEDLgjZ-12" target="seNpa9M3IsFzkgEDLgjZ-29">
          <mxGeometry width="50" height="50" relative="1" as="geometry">
            <mxPoint x="1140" y="425" as="sourcePoint" />
            <mxPoint x="1454" y="337" as="targetPoint" />
          </mxGeometry>
        </mxCell>
        <mxCell id="seNpa9M3IsFzkgEDLgjZ-41" value="Call Rest API" style="edgeLabel;html=1;align=center;verticalAlign=middle;resizable=0;points=[];" connectable="0" vertex="1" parent="seNpa9M3IsFzkgEDLgjZ-40">
          <mxGeometry x="0.3217" y="1" relative="1" as="geometry">
            <mxPoint y="1" as="offset" />
          </mxGeometry>
        </mxCell>
        <mxCell id="seNpa9M3IsFzkgEDLgjZ-42" value="(3)" style="endArrow=classic;startArrow=classic;html=1;rounded=0;entryX=0.5;entryY=1;entryDx=0;entryDy=0;exitX=0.5;exitY=0;exitDx=0;exitDy=0;fontSize=20;fontStyle=0" edge="1" parent="1" source="seNpa9M3IsFzkgEDLgjZ-6" target="seNpa9M3IsFzkgEDLgjZ-12">
          <mxGeometry x="0.0332" width="50" height="50" relative="1" as="geometry">
            <mxPoint x="700" y="303" as="sourcePoint" />
            <mxPoint x="750" y="253" as="targetPoint" />
            <mxPoint as="offset" />
          </mxGeometry>
        </mxCell>
        <mxCell id="seNpa9M3IsFzkgEDLgjZ-43" value="Authentication and get token" style="edgeLabel;html=1;align=center;verticalAlign=middle;resizable=0;points=[];" connectable="0" vertex="1" parent="seNpa9M3IsFzkgEDLgjZ-42">
          <mxGeometry x="0.0303" y="-1" relative="1" as="geometry">
            <mxPoint x="73" y="46" as="offset" />
          </mxGeometry>
        </mxCell>
        <mxCell id="seNpa9M3IsFzkgEDLgjZ-44" value="Redis Cache" style="strokeColor=#dddddd;shadow=1;strokeWidth=1;rounded=1;absoluteArcSize=1;arcSize=2;spacingTop=0;spacing=20;spacingLeft=20;" vertex="1" parent="1">
          <mxGeometry x="473" y="353" width="150" height="60" as="geometry" />
        </mxCell>
        <mxCell id="seNpa9M3IsFzkgEDLgjZ-45" value="" style="editableCssRules=.*;html=1;fontColor=#999999;shape=image;verticalLabelPosition=middle;verticalAlign=middle;labelPosition=right;align=left;spacingLeft=20;part=1;points=[];imageAspect=0;image=data:image/svg+xml,PHN2ZyB4bWxucz0iaHR0cDovL3d3dy53My5vcmcvMjAwMC9zdmciIHhtbG5zOnY9Imh0dHBzOi8vdmVjdGEuaW8vbmFubyIgd2lkdGg9IjIwIiBoZWlnaHQ9IjIwIiB2aWV3Qm94PSIwIDAgMjAgMjAiPiYjeGE7CTxzdHlsZSB0eXBlPSJ0ZXh0L2NzcyI+JiN4YTsJLnN0MHtmaWxsOiM0Mjg1ZjQ7fSYjeGE7CS5zdDF7ZmlsbDojNjY5ZGY2O30mI3hhOwkuc3Qye2ZpbGw6I2FlY2JmYTt9JiN4YTsJPC9zdHlsZT4mI3hhOwk8cGF0aCBjbGFzcz0ic3QxIiBkPSJNMCAxLjk0aDMuMzN2Mi41OEgwem0wIDQuNTFoMy4zM3YyLjU4SDB6bTAgNC41MmgzLjMzdjIuNThIMHptMCA0LjUxaDMuMzN2Mi41OEgwek0xNi42NyAxLjk0SDIwdjIuNThoLTMuMzN6bTAgNC41MUgyMHYyLjU4aC0zLjMzem0wIDQuNTJIMjB2Mi41OGgtMy4zM3ptMCA0LjUxSDIwdjIuNThoLTMuMzN6Ii8+JiN4YTsJPHBhdGggY2xhc3M9InN0MCIgZD0iTTE2LjY3IDEuOTRsMi42NiAyLjU4aC0yLjY2em0wIDQuNTFsMi42NiAyLjU4aC0yLjY2em0wIDQuNTJsMi42NiAyLjU4aC0yLjY2em0wIDQuNTFsMi42NiAyLjU5aC0yLjY2eiIgZmlsbC1ydWxlPSJldmVub2RkIi8+JiN4YTsJPHBhdGggY2xhc3M9InN0MiIgZD0iTTMuMzMgMjBoMTMuMzRWMEgzLjMzem02LTlINmw0LjY3LTcuNzRWOUgxNGwtNC42NyA3Ljc0eiIgZmlsbC1ydWxlPSJldmVub2RkIi8+JiN4YTsJPHBhdGggY2xhc3M9InN0MSIgZD0iTTE0IDkuMDNoLTMuMzNWMGg2djIwSDkuMzN2LTMuMjN6IiBmaWxsLXJ1bGU9ImV2ZW5vZGQiLz4mI3hhOzwvc3ZnPg==;" vertex="1" parent="seNpa9M3IsFzkgEDLgjZ-44">
          <mxGeometry width="30" height="30" relative="1" as="geometry">
            <mxPoint x="15" y="15" as="offset" />
          </mxGeometry>
        </mxCell>
        <mxCell id="seNpa9M3IsFzkgEDLgjZ-46" value="" style="endArrow=classic;startArrow=classic;html=1;rounded=0;entryX=0;entryY=0.5;entryDx=0;entryDy=0;exitX=1;exitY=0.5;exitDx=0;exitDy=0;" edge="1" parent="1" source="seNpa9M3IsFzkgEDLgjZ-44" target="seNpa9M3IsFzkgEDLgjZ-6">
          <mxGeometry width="50" height="50" relative="1" as="geometry">
            <mxPoint x="560" y="380" as="sourcePoint" />
            <mxPoint x="610" y="330" as="targetPoint" />
          </mxGeometry>
        </mxCell>
        <mxCell id="seNpa9M3IsFzkgEDLgjZ-47" value="" style="rounded=1;whiteSpace=wrap;html=1;" vertex="1" parent="1">
          <mxGeometry x="455" y="-63" width="160" height="90" as="geometry" />
        </mxCell>
        <mxCell id="seNpa9M3IsFzkgEDLgjZ-50" value="Azure Language Service (CLU)" style="image;aspect=fixed;points=[];align=center;fontSize=11;image=img/lib/azure2/ai_machine_learning/Language_Services.svg;fontStyle=0;verticalAlign=top;horizontal=1;html=1;labelBackgroundColor=none;" vertex="1" parent="1">
          <mxGeometry x="510" y="-43" width="50" height="50" as="geometry" />
        </mxCell>
        <mxCell id="seNpa9M3IsFzkgEDLgjZ-60" value="Authentication" style="sketch=0;html=1;verticalAlign=middle;labelPosition=right;verticalLabelPosition=middle;align=left;spacingTop=10;fontSize=11;fontStyle=1;fontColor=#999999;shape=image;aspect=fixed;imageAspect=0;image=data:image/svg+xml,PHN2ZyB4bWxucz0iaHR0cDovL3d3dy53My5vcmcvMjAwMC9zdmciIHhtbG5zOnY9Imh0dHBzOi8vdmVjdGEuaW8vbmFubyIgd2lkdGg9IjM2NS40NjQ5OTY3NzA0MjQ5MyIgaGVpZ2h0PSIzNzkuMjIyOTk0NDYzNTc3OTUiIHZpZXdCb3g9IjAgMCA5Ni42OTU5OTkxNDU1MDc4MSAxMDAuMzM1OTk4NTM1MTU2MjUiPiYjeGE7PHN0eWxlIHR5cGU9InRleHQvY3NzIj4mI3hhOwkuc3Qwe2ZpbGw6IzQyODVmNDt9JiN4YTsJLnN0MXtmaWxsOiNhZWNiZmE7fSYjeGE7PC9zdHlsZT4mI3hhOwk8cGF0aCBjbGFzcz0ic3QwIiBkPSJNMjkuNzk0IDEwMC4zMzZMNDYuOTIgNTAuMTY4aDQ5Ljc3NnpNMCA5OS42NzFsMTIuOTc2LTQ5LjUwMkgyOS4yMkwxNi44OTcgOTIuMDU0eiIvPiYjeGE7CTxwYXRoIGNsYXNzPSJzdDEiIGQ9Ik0yOS43OTQgMEw0Ni45MiA1MC4xNjhoNDkuNzc2ek0wIC42NjZsMTIuOTc2IDQ5LjUwMkgyOS4yMkwxNi44OTcgOC4yODN6Ii8+JiN4YTs8L3N2Zz4=;spacing=12;" vertex="1" parent="1">
          <mxGeometry x="836" y="362" width="34" height="42" as="geometry" />
        </mxCell>
        <mxCell id="seNpa9M3IsFzkgEDLgjZ-62" value="Redis Cache" style="strokeColor=#dddddd;shadow=1;strokeWidth=1;rounded=1;absoluteArcSize=1;arcSize=2;spacingTop=0;spacing=20;spacingLeft=20;" vertex="1" parent="1">
          <mxGeometry x="816" y="-63" width="150" height="60" as="geometry" />
        </mxCell>
        <mxCell id="seNpa9M3IsFzkgEDLgjZ-63" value="" style="editableCssRules=.*;html=1;fontColor=#999999;shape=image;verticalLabelPosition=middle;verticalAlign=middle;labelPosition=right;align=left;spacingLeft=20;part=1;points=[];imageAspect=0;image=data:image/svg+xml,PHN2ZyB4bWxucz0iaHR0cDovL3d3dy53My5vcmcvMjAwMC9zdmciIHhtbG5zOnY9Imh0dHBzOi8vdmVjdGEuaW8vbmFubyIgd2lkdGg9IjIwIiBoZWlnaHQ9IjIwIiB2aWV3Qm94PSIwIDAgMjAgMjAiPiYjeGE7CTxzdHlsZSB0eXBlPSJ0ZXh0L2NzcyI+JiN4YTsJLnN0MHtmaWxsOiM0Mjg1ZjQ7fSYjeGE7CS5zdDF7ZmlsbDojNjY5ZGY2O30mI3hhOwkuc3Qye2ZpbGw6I2FlY2JmYTt9JiN4YTsJPC9zdHlsZT4mI3hhOwk8cGF0aCBjbGFzcz0ic3QxIiBkPSJNMCAxLjk0aDMuMzN2Mi41OEgwem0wIDQuNTFoMy4zM3YyLjU4SDB6bTAgNC41MmgzLjMzdjIuNThIMHptMCA0LjUxaDMuMzN2Mi41OEgwek0xNi42NyAxLjk0SDIwdjIuNThoLTMuMzN6bTAgNC41MUgyMHYyLjU4aC0zLjMzem0wIDQuNTJIMjB2Mi41OGgtMy4zM3ptMCA0LjUxSDIwdjIuNThoLTMuMzN6Ii8+JiN4YTsJPHBhdGggY2xhc3M9InN0MCIgZD0iTTE2LjY3IDEuOTRsMi42NiAyLjU4aC0yLjY2em0wIDQuNTFsMi42NiAyLjU4aC0yLjY2em0wIDQuNTJsMi42NiAyLjU4aC0yLjY2em0wIDQuNTFsMi42NiAyLjU5aC0yLjY2eiIgZmlsbC1ydWxlPSJldmVub2RkIi8+JiN4YTsJPHBhdGggY2xhc3M9InN0MiIgZD0iTTMuMzMgMjBoMTMuMzRWMEgzLjMzem02LTlINmw0LjY3LTcuNzRWOUgxNGwtNC42NyA3Ljc0eiIgZmlsbC1ydWxlPSJldmVub2RkIi8+JiN4YTsJPHBhdGggY2xhc3M9InN0MSIgZD0iTTE0IDkuMDNoLTMuMzNWMGg2djIwSDkuMzN2LTMuMjN6IiBmaWxsLXJ1bGU9ImV2ZW5vZGQiLz4mI3hhOzwvc3ZnPg==;" vertex="1" parent="seNpa9M3IsFzkgEDLgjZ-62">
          <mxGeometry width="30" height="30" relative="1" as="geometry">
            <mxPoint x="15" y="15" as="offset" />
          </mxGeometry>
        </mxCell>
        <mxCell id="seNpa9M3IsFzkgEDLgjZ-64" value="(4)" style="endArrow=classic;startArrow=classic;html=1;rounded=0;entryX=0.5;entryY=1;entryDx=0;entryDy=0;fontSize=20;fontStyle=0" edge="1" parent="1" target="seNpa9M3IsFzkgEDLgjZ-62">
          <mxGeometry x="0.0001" width="50" height="50" relative="1" as="geometry">
            <mxPoint x="890" y="115" as="sourcePoint" />
            <mxPoint x="886" y="2" as="targetPoint" />
            <mxPoint x="1" as="offset" />
          </mxGeometry>
        </mxCell>
        <mxCell id="seNpa9M3IsFzkgEDLgjZ-65" value="Store user history&lt;div&gt;&lt;br&gt;&lt;/div&gt;" style="edgeLabel;html=1;align=center;verticalAlign=middle;resizable=0;points=[];" connectable="0" vertex="1" parent="seNpa9M3IsFzkgEDLgjZ-64">
          <mxGeometry x="0.0303" y="-1" relative="1" as="geometry">
            <mxPoint x="47" y="-31" as="offset" />
          </mxGeometry>
        </mxCell>
        <mxCell id="seNpa9M3IsFzkgEDLgjZ-68" value="Cloud run&amp;nbsp;&lt;div&gt;Back End&lt;/div&gt;" style="sketch=0;html=1;verticalAlign=middle;labelPosition=right;verticalLabelPosition=middle;align=left;spacingTop=10;fontSize=11;fontStyle=1;fontColor=#999999;shape=image;aspect=fixed;imageAspect=0;image=data:image/svg+xml,PHN2ZyB4bWxucz0iaHR0cDovL3d3dy53My5vcmcvMjAwMC9zdmciIHhtbG5zOnY9Imh0dHBzOi8vdmVjdGEuaW8vbmFubyIgd2lkdGg9IjM2NS40NjQ5OTY3NzA0MjQ5MyIgaGVpZ2h0PSIzNzkuMjIyOTk0NDYzNTc3OTUiIHZpZXdCb3g9IjAgMCA5Ni42OTU5OTkxNDU1MDc4MSAxMDAuMzM1OTk4NTM1MTU2MjUiPiYjeGE7PHN0eWxlIHR5cGU9InRleHQvY3NzIj4mI3hhOwkuc3Qwe2ZpbGw6IzQyODVmNDt9JiN4YTsJLnN0MXtmaWxsOiNhZWNiZmE7fSYjeGE7PC9zdHlsZT4mI3hhOwk8cGF0aCBjbGFzcz0ic3QwIiBkPSJNMjkuNzk0IDEwMC4zMzZMNDYuOTIgNTAuMTY4aDQ5Ljc3NnpNMCA5OS42NzFsMTIuOTc2LTQ5LjUwMkgyOS4yMkwxNi44OTcgOTIuMDU0eiIvPiYjeGE7CTxwYXRoIGNsYXNzPSJzdDEiIGQ9Ik0yOS43OTQgMEw0Ni45MiA1MC4xNjhoNDkuNzc2ek0wIC42NjZsMTIuOTc2IDQ5LjUwMkgyOS4yMkwxNi44OTcgOC4yODN6Ii8+JiN4YTs8L3N2Zz4=;spacing=12;" vertex="1" parent="1">
          <mxGeometry x="834" y="136.5" width="34" height="42" as="geometry" />
        </mxCell>
        <mxCell id="seNpa9M3IsFzkgEDLgjZ-69" value="" style="rounded=1;whiteSpace=wrap;html=1;" vertex="1" parent="1">
          <mxGeometry x="442.5" y="202.5" width="160" height="90" as="geometry" />
        </mxCell>
        <mxCell id="seNpa9M3IsFzkgEDLgjZ-70" value="Azure OpenAI&#xa;" style="shape=image;verticalLabelPosition=bottom;labelBackgroundColor=default;verticalAlign=top;aspect=fixed;imageAspect=0;image=data:image/png,iVBORw0KGgoAAAANSUhEUgAAAlgAAAJYCAYAAAC+ZpjcAAABfGlDQ1BpY2MAACiRfZE9SMNAHMVfU7UirQ52EOmQoTpZEBVxlCoWwUJpK7TqYHLph9CkIUlxcRRcCw5+LFYdXJx1dXAVBMEPEFcXJ0UXKfF/SaFFjAfH/Xh373H3DhAaFaaaXeOAqllGOhEXc/kVMfAKASH0I4IeiZl6MrOQhef4uoePr3cxnuV97s8RUgomA3wi8SzTDYt4nXh609I57xOHWVlSiM+Jxwy6IPEj12WX3ziXHBZ4ZtjIpueIw8RiqYPlDmZlQyWeIo4qqkb5Qs5lhfMWZ7VSY6178hcGC9pyhus0I0hgEUmkIEJGDRuowEKMVo0UE2naj3v4hx1/ilwyuTbAyDGPKlRIjh/8D353axYnJ9ykYBzofrHtjxEgsAs067b9fWzbzRPA/wxcaW1/tQHMfJJeb2vRI2BgG7i4bmvyHnC5Aww96ZIhOZKfplAsAu9n9E15YPAW6Ft1e2vt4/QByFJXSzfAwSEwWqLsNY9393b29u+ZVn8/L1ZyjLHZ+AYAAAAJcEhZcwAADsMAAA7DAcdvqGQAAAiwaVRYdFhNTDpjb20uYWRvYmUueG1wAAAAAAA8P3hwYWNrZXQgYmVnaW49J++7vycgaWQ9J1c1TTBNcENlaGlIenJlU3pOVGN6a2M5ZCc/Pgo8eDp4bXBtZXRhIHhtbG5zOng9J2Fkb2JlOm5zOm1ldGEvJyB4OnhtcHRrPSdJbWFnZTo6RXhpZlRvb2wgMTIuMTYnPgo8cmRmOlJERiB4bWxuczpyZGY9J2h0dHA6Ly93d3cudzMub3JnLzE5OTkvMDIvMjItcmRmLXN5bnRheC1ucyMnPgoKIDxyZGY6RGVzY3JpcHRpb24gcmRmOmFib3V0PScnCiAgeG1sbnM6R0lNUD0naHR0cDovL3d3dy5naW1wLm9yZy94bXAvJz4KICA8R0lNUDpBUEk+Mi4wPC9HSU1QOkFQST4KICA8R0lNUDpQbGF0Zm9ybT5XaW5kb3dzPC9HSU1QOlBsYXRmb3JtPgogIDxHSU1QOlRpbWVTdGFtcD4xNjc2Mjk4NTIyNTIxNjYyPC9HSU1QOlRpbWVTdGFtcD4KICA8R0lNUDpWZXJzaW9uPjIuMTAuMzI8L0dJTVA6VmVyc2lvbj4KIDwvcmRmOkRlc2NyaXB0aW9uPgoKIDxyZGY6RGVzY3JpcHRpb24gcmRmOmFib3V0PScnCiAgeG1sbnM6ZGM9J2h0dHA6Ly9wdXJsLm9yZy9kYy9lbGVtZW50cy8xLjEvJz4KICA8ZGM6Zm9ybWF0PmltYWdlL3BuZzwvZGM6Zm9ybWF0PgogPC9yZGY6RGVzY3JpcHRpb24+CgogPHJkZjpEZXNjcmlwdGlvbiByZGY6YWJvdXQ9JycKICB4bWxuczp0aWZmPSdodHRwOi8vbnMuYWRvYmUuY29tL3RpZmYvMS4wLyc+CiAgPHRpZmY6T3JpZW50YXRpb24+MTwvdGlmZjpPcmllbnRhdGlvbj4KIDwvcmRmOkRlc2NyaXB0aW9uPgoKIDxyZGY6RGVzY3JpcHRpb24gcmRmOmFib3V0PScnCiAgeG1sbnM6eG1wPSdodHRwOi8vbnMuYWRvYmUuY29tL3hhcC8xLjAvJz4KICA8eG1wOkNyZWF0b3JUb29sPkdJTVAgMi4xMDwveG1wOkNyZWF0b3JUb29sPgogIDx4bXA6TWV0YWRhdGFEYXRlPjIwMjMtMDItMTNUMTQ6Mjg6NDIrMDA6MDA8L3htcDpNZXRhZGF0YURhdGU+CiAgPHhtcDpNb2RpZnlEYXRlPjIwMjMtMDItMTNUMTQ6Mjg6NDIrMDA6MDA8L3htcDpNb2RpZnlEYXRlPgogPC9yZGY6RGVzY3JpcHRpb24+CgogPHJkZjpEZXNjcmlwdGlvbiByZGY6YWJvdXQ9JycKICB4bWxuczpzdEV2dD0naHR0cDovL25zLmFkb2JlLmNvbS94YXAvMS4wL3NUeXBlL1Jlc291cmNlRXZlbnQjJwogIHhtbG5zOnhtcE1NPSdodHRwOi8vbnMuYWRvYmUuY29tL3hhcC8xLjAvbW0vJz4KICA8eG1wTU06RG9jdW1lbnRJRD5naW1wOmRvY2lkOmdpbXA6ZTBkMjIyNTEtYmU3YS00OGQ5LTgxOWItMjM5NjA2OWJjNmU0PC94bXBNTTpEb2N1bWVudElEPgogIDx4bXBNTTpIaXN0b3J5PgogICA8cmRmOlNlcT4KICAgIDxyZGY6bGkgcmRmOnBhcnNlVHlwZT0nUmVzb3VyY2UnPgogICAgIDxzdEV2dDphY3Rpb24+c2F2ZWQ8L3N0RXZ0OmFjdGlvbj4KICAgICA8c3RFdnQ6Y2hhbmdlZD4vPC9zdEV2dDpjaGFuZ2VkPgogICAgIDxzdEV2dDppbnN0YW5jZUlEPnhtcC5paWQ6YjEwOTY4YjMtNmZhMS00NzdlLTg1OTMtYjJkYTAzNjdmZGFlPC9zdEV2dDppbnN0YW5jZUlEPgogICAgIDxzdEV2dDpzb2Z0d2FyZUFnZW50PkdpbXAgMi4xMCAoV2luZG93cyk8L3N0RXZ0OnNvZnR3YXJlQWdlbnQ+CiAgICAgPHN0RXZ0OndoZW4+MjAyMy0wMi0xM1QwOTowNjoyNzwvc3RFdnQ6d2hlbj4KICAgIDwvcmRmOmxpPgogICAgPHJkZjpsaSByZGY6cGFyc2VUeXBlPSdSZXNvdXJjZSc+CiAgICAgPHN0RXZ0OmFjdGlvbj5zYXZlZDwvc3RFdnQ6YWN0aW9uPgogICAgIDxzdEV2dDpjaGFuZ2VkPi88L3N0RXZ0OmNoYW5nZWQ+CiAgICAgPHN0RXZ0Omluc3RhbmNlSUQ+eG1wLmlpZDpmNGZhYzkxZC0yNzYyLTQ5YTctYTFjMy04OWY4NTQ0N2QyN2M8L3N0RXZ0Omluc3RhbmNlSUQ+CiAgICAgPHN0RXZ0OnNvZnR3YXJlQWdlbnQ+R2ltcCAyLjEwIChXaW5kb3dzKTwvc3RFdnQ6c29mdHdhcmVBZ2VudD4KICAgICA8c3RFdnQ6d2hlbj4yMDIzLTAyLTEzVDE0OjI4OjQyPC9zdEV2dDp3aGVuPgogICAgPC9yZGY6bGk+CiAgIDwvcmRmOlNlcT4KICA8L3htcE1NOkhpc3Rvcnk+CiAgPHhtcE1NOkluc3RhbmNlSUQ+eG1wLmlpZDozNzY4MDY3NC04NGQ3LTRiODEtYjEyMy02MDQzMGQ4OTAwMzQ8L3htcE1NOkluc3RhbmNlSUQ+CiAgPHhtcE1NOk9yaWdpbmFsRG9jdW1lbnRJRD54bXAuZGlkOmQyZmNlNjkyLTA4YzUtNGNjZC05NTllLWExNjIwNmY2ZjEyMzwveG1wTU06T3JpZ2luYWxEb2N1bWVudElEPgogPC9yZGY6RGVzY3JpcHRpb24+CjwvcmRmOlJERj4KPC94OnhtcG1ldGE+Cjw/eHBhY2tldCBlbmQ9J3InPz7nAwMoAAAqvnpUWHRSYXcAAHicrZxpdiU3kqX/YxW1BMzDcjCe0zvo5fd3zRmRklJZ1ZndEQqSIt9zhwNmdzAY6O7//l/P/dd//VfwMUSXS+t11Or5k0cecfJF99+faR+Dz/bR/pTu4893//R99/sHkW8lPqfvB71+n8Ov7/+84dfnMPmq/OFCff/8YP35ByN/n2P/y4V+bpQ0Ig3h/Fxo/Fwoxe8H4ecC83ssX0dvf3yEdb/PP+//poF/Th/2/R4v/Nztr/+fG7N3Ct9MMd7Et/mYUvwGkPQvuTTti8mP+QkfM1/H1PmY7aXhm5C/m6fffwYjehpq/tsX/WlVfn8V/v777q+rlePPS9JfJrn+/vy333eh/P2q2NT/4c65/3wV//z9UWL9RvTrT//Hv/dOf/bMPMXMlamuPw/161HsK163uIVu3R1Dq77xr3CJZn8HfztRvQmF47df/N1hhMhyvZDDCTO8cO3zDpsh5nhdbHwR447JvtlTiyPu9K0ff8OLLY10WMeYti07q/l7LMFuO/x2drfOnU/gpTFwscBb/u2/7t99w3tKhRB8/z1XjCtGTTbD0MrpIy9jRcL7mdRiE/zr71//aF0TK1g0y0qRwcSu7xKrhG+JFRLJFjrxwsLnLwdDOz8XYIq4dWEwIbECrFpIJdTgW4wtBCays0CToceU42IFQinxMMiYU6qsTY+6NW9pwV4aiaTYHN8HzFiJkmpqrM1Ik8XKuRA/LXdiaJZUcimlllZ6GWXWVHMttdZWBYqzpZZdK6221nobbfbUcy+99tZ7H32OOBKgWUYdbfQxxpzcc3LlybsnL5hzxZVWXsWtutrqa6y5CZ+dd9l1t9332PPEkw74ceppp59x5g2XULr5lltvu/2OOx+h9pJ7+ZVXX3v9jTd/r9rPsv7T339j1cLPqkVbKb2w/V41vtvar0sEwUnRmrFgsEhgxZuWgICOWjPfQ85RK6c18wP4SyUyyKI1O0ErxgrmG2J54dfaufitqFbu/2ndXMt/Wrf4n66c09L9myv3z+v2d6t2REPbVuzLQk2qT2Qfr5mx8x9c9c+f3b/6wb/7+f/Thfp1bdywSg+3rg6Qxz58LeMC0nPOdPaY16cbQ9uF+UrEQ68HRGU+5t7pltVyvZE5ai2ddcep61bCvbb+1s7hprh6PHOWu9oZwPAsK7Pcu67XedO9tXOLEQ9fp+ZaB4Qbdw7ljZNjCW+natD9Xg8tk1+peBahhNUucfg8kDLeuTzC8+1F0Ulyk5DVc6Yz87snkpX+nF37m82H2/Ma767S7l6vjrwWSNaXrpbzHuQVPHOhCLfB38dzbd7Eyr+5Vs7EQrnBoxt4NEbLE3CL98a9YzDm3nefjwdJrwB+p9TtTryE0lq93qmRkAa97BR1s9I28LigsAuf3ZVuKAxmldtfO7GsNXZ9BXBl1dIJpIbkxluDQb2YmMvxwuL6T4ptcyUy48ZJ5sx8OpQ1mKOTtwD8bkV8c1NaiJHeXKSySvgPP7u//0Hhui+0d4mB51cmDjSHPP1cey4CRBm+WklvoxPqy+4u5nXxDp7oVLCRz9DCYlXTuZn3TOJVb72NBayBDG6bDCbPW5r9vKyvYRHSv4W0AInAtWMeTFe/BHzhEn3EpjAfsYzQgXmmd4Bga4AvQAQrVdI6fW53uTo3BkRGvif3m8oekRgHoNJOvOF1xgTD5MUKHwKTe6ByViU/mOW1EhPuXSM4yA5G7SMxvU5Y2z8ybdUBJy5FYh/kzmm3aa35YeCOLBePzjQCUXx3ucPoL2CWmha7BjIQSOvSxemF2Hp487Q5CHUpgpq2Jwdynemt6MvdEme1cKGWYgDYiAZ4GYlRzjsorKDV6A1ZfcA2u0hfutqTqCv2nQ5q31me7w99dOYghmMme86Ce1Yq88Iv6d03Nnh+FBBtowV5ETiQIzmUNIWlNPhnxOjXdhsQQNdl/24pN+oiPcyJ03kltEW+TZISVO/EFlF1Qxe3H25xTuJzTnX5tMGjECdxSM7vfa+SKzMlRBLQ/voiLguSjxS5Y8VLrKUawoU55kgrvgDOkZ3MEVhTlF5eOIX+lJTsAMe9ROd5N43O5OVLqqdNqNZxYy8tEZPgCav9jjLXvZpAjGfzQEI3FiOzRBV2W/VwEz9SAHNIRzKVD1BZFMwRV7EBArx57RKwEPDYPG/zCC8BNizYK/UOnom1DGt2QQnrtxbUnvrO4HFu4HIm+d7LIIW/3b15d4zlROaWKZ0Fqie/BtboDQApkpjA/i3MxAaSGMvepz4Qa889/JKYB0hc/zD8jRlB//18fptwzXWHmRYxmWNYZzHEV1cOMA0/5XGgEa4LFJMK3AjKhjFmzSTTHSiAcPaZe5JGLSeotyde2yYzWP47np3R/eUbdS0FAxOOxJng/F4JTwBpH0YOhpQ2KlEBn1iswWx60NncbUzlQuF0NIjvR/iNEKjQQSUGHnAAB50aS30E/Z11DNIx9S6+DGM3gxYC8iQtFEjXcCpEGyCXUDj59pr3GcA1YK6k94flhnIAB5IyzJdYTgSR55pluNFlp5IAreUTgVDczEh53/0i0VPO4SUZOmt6zVWyXr9JtSDMYOmnmK07sAUoaFrVEAb+jkdD3ghwCVHIZyPw8E8P8t1wWCqs6CIiV+seuPI7zXkb0q8hEsIg9kAd/w8OKGA00EhOT89FJuQj9L4zIgZrQaoSMVmSCeOOjnD5+gp8j9NsWnlTYxBIUCSDzDkyb/IsRUyyxbb1sBqHK3OfbylYmCPjhyQ9DbIj1R5Tk5lpFvHW3BNPUC88YSg5kBsprVBZQdQkyJ6vUQVyZVeXbCEkYwrq9c4APhX0H2kHDaFId5u1HdZrwibEWV6iigvJT3Slxt6krLAQPCkvuhVWAEPFUZ115s28Hpa+TB+gkAqB1cAV8hYBIDjc5yxwlSUTsHXgFS6VQgBedqiKbMRMiwBtQsCTuukihP184s8HrRxDw7nXjfFUeQJEBKzGemGUUL2HWNtGVciNadLBc1HAYxYePCHNt+nw07TOESSVcGMduneJVDnp+gzxxNMZB5EJIm/Z12Aj24ABSqOBUTUCwH4QQswYkYHDkjsA+twGCW0YMxiogRCE7903MApMPOsCQvMs0DaQRXzNrocdZGdMd/E4wxMJICT6CDFI7PBWRORee6+PtxD05GebpPrZfChaghRLnwngrmAFXMCDdjjJIZ4wufdKRhLjBIAom3celskviIlY4knRDhZjUsUHo4MKzeBhEUEyA9f5gezdQRHQ0DNnd56IAVdP/HVwbtdkZA4ioiK4uFabKWap9SSo3IBFKrhsxFPNGJo4ctvM1muTJ7pzY2ZQmaghxuFXAoFJZTR7HoHQYLGZxZNYevLoui3laHPw4nwLHzMqMxCY5NhAHlgEgcp0RgRxytK9f4u47vuCUfUC92PKJjRPSuAEN6DIhT8F5q0qOZlkro5UWXD3CdCmPOHqARGBrk6RbyAFAYQmsubrDgrgJ7hWIITRBNnvVwsP0Uw7Mvv3ogZB2AlOPsURyHkEzvA86KHKHbjsVyBd6jsy3UcSUyBO9qk0OSFgOTgy6rAIpY/gYPdJcgAXo7JkNaI7D9MuGYXSxmmiNhlfQEY/z3Ag2SAYANbwAwFTGpTTjrCGDXBIqG7JoI24eVwskbqDNOlwzhmp++VJKVQepNuxoIClLwXCVhKDXO5G1IaUGAlHdhEk5nCY9sUzblFcl9hhFFxZQJMmmlZzCFNw54S+9Hu4gIduZfnBrX0jd/c0fdOJG6b7ITvihgCJ1krMTD0K9i6NjUIgBYA6ieToHvmMKF2wHv+LumNCyUp8IUKaEY0BrwwcG5af8BKmI+ygwJk3CwB2e5z7bSx/KyDFCoZAn8T08jsYrNHj7OSoCsMIZ2EuIvcCIbIKkOiCXAIPvxAR/iVw/rMXXmtFZGRZvYuw9lV0NonrHAqMcgvrVaCVsLcSAUhBm6Auz3MlMe770a0nS00YMyHoabsCYzc5cgY4z7hBeuBx4MJIc6TdlyV1uTU3NxlHT3Fn5ikwXg9VKK/GRKKSPYAD/O2DzpcCe4pzVP7Ua1Y++yIyUSOSfPAOAiWyNiNBFkiaAinhruEKgmgx+bEUTAePsohPhdwZQUo4NIbao6soBPBMAk6PD+U/aCWgSkBd+CuAkHg3lPaLFeXI5V6EaoXU9tIeklyJG8gBwsNqK33UIGBFMaFFUc0sM+YP1XcsSmVVa8bel4YI2QutuyIiEUm23WRkHTz1kmOVYOBZzApJZftVsAtk7+BmgBhouEBcVfXQRA81iBfigfnK5YOWx5Ix0i7wgwsIgDiJ0o0jVBXyYV0EjzLQymroEvdDJPEtbB05DcA6AUa5ANpSIGzAqUFWTxL0QUxg00HOtEbUkWKqR+DLVAtLVVK1o5cecJLcYdi8p49WIxMQsTE4YlRMR3hI74sdrbJwr4Lmw6M/f14SWqo8ETYoy4xhgEc2sxZCQpohuxNDN682w6uAHzncALhJPEmHV/H7HEdiNDOTJPvWy1FrVjTIRAE+ZRysRCtQE0IfYMabHHArS86+VdEtLNFNz8DccePD14RIKMh2bBNqqcHskQuQkLeeiXxB6m2I86DQgCM8MmSNvkQQMBBiOABsJKpsUcSRVkgNdcl4EOmIclVR0MErk0c4H9KBMIiq4Im3z1UlepNvyQdXYAdvSnvyhxtnlWhst0M1axJv3US0oPTeKcJYeRBC4DKaP/zAfT8RCzPoN/MiapiwgXbnQRHK0ISoBKN01i+MHiYxoryBviIwl9MX0/5DrwI4ssC6DWGCuARsgCu95ni0r1Qz9822kthVoynomZv8XGhY1MppQT4pHhXwVHeoAaWAapS6HhnzWyEfJqNVRQ9i5Zk34xruMuXE5hUzPO0bymvCZoATIoDEHzwN/1ukKPBBAb8EnC/Voaccvypvx1f0Ecuc4DysEZaEKboDfH+YJqSfwJS073KtCK3DQxCZA/1Hlp2wFRNYleCb9kUe0IcgB+huWlA3Av4J4GCEE5hYTFLKWMvJG8GT18hhLk50EPwNtQIGLIcQufvX4BfqFhD6Bh9qtHoJLzjwqyowrxOzQ/eCeVQCzZhc2SakH4mFYt8qgc8fAhH+Yz5wqgdhh/iQE5EtQgBODImY5JBf6O7NzJZO2D70EaNjpYEltLF8SGsVH9wwDJAL4hyhGpg2vBnOZ0kgNlVsPs/kMwsCw0yXYVImr/2YpoUpbrL+fnAxIhxpBT/lwrSUuiKSpd6A/WbFpA1V8oShgNpDKOBVZSoQ5HgC5oYHRzwSVQOVz7DWJsAJ2Pnk65qK2wAoK8DkqhgFzD0n/yQnCwbdynhfzS9jOnirxASkwrPvLMmBEp23h5XWVEE+onUQ3gnZAP65V40mmlkygAZmNzceNrEHLZydLyK+4DQxRLKe8CasifLrpGH8CgWPgES61tcSEscjjnnhiBFvK0EDq2A//J4ZTXuBjDOtanGVS2V8VYusQi82i6Abd8WpynVXKVnDeegJfLDZPeQwagpwCEwTprviT0F5DNStV9IUsYLydgRuleXVrSQWSbOKaWSJ84PdzoyhZ8L0Nm/+pJyQM8RdsBLMOvGE5CQRHGRMgIpBEl/A36gguA1qW7ASKxbJIdXBcmY9RoY2CmHytKsCaoEriG4UmYMPuCtphGcfXjOwTGmdi3RBHg0bBwHAcoOg+CY8J3JJjGd4wZpJ9Ls/2YGE2b+YSWITOgGIgFa0APbUPLfHkjOWMBGR8J3EO2y1g8yMyxINwK58b/Z4alEX7KToVikQgMX6MwzYqQJOoWLPcaSN+eHFgwUSpkSHzxyEECgIKI25BfyXcMOfZW01JA+2DvQHU6D6tGxvrR/UgtVTGKQkdJiQXz/7008k3vnZP9D+F9YL6SEF4eNY+BaRyFgJK4rEPyr2rFcMf7Kx04Uz/hXQ/8J5BeZo34IAI5D+2tIe1XMPu1RImqLAAwE1+HjCADeIxJ7YGCkWrsL658iDo9zxk8klDCDSnxj0ip1bQcR0QgIjVNlhLhHuEkAeW4XQTizXmQEbh3thObCMYj3USMC47IbKwTIdrWlBOTbe2EAUxljB6xmPdu6IBrRc7yIetDQ6D70MhRCEx509U5DsZ1lMtOQmP4/MIFBJg9aG1G5Zd0k3Hzw/5BvJrCSXp0rxJnCrO54AWVvweiA+YA8h/pXsv/0sayWR92Dg74owGVGAInCPC0FITI0dNSJkclZlwXCJiCpWFixHpIQZT8gersc0+WC7oq8Ik/GDyGPsFGCC8VNtJEmDRvALnCSIe1TFGv+rsphYWOp+nRIq6f2UccJBeFVFcguEoYKRQ3uJf3ibN1mchxx2RDO1bUgg184VeB1Jjf4EKq8QXPSI7OXBFKnRQToAsWnuT3KjIxEQ3PpK+xPFTVxwd0T3joLUA9ek/aV1Be6ZEcKLLlgFnUkitEoNffJmSZKN10XUrUrmMhUPKXCLbWOoAk7OAVbRXJv2T2p3GAglg/IFhoERoGveUr/dBiE8Q9QOAtHSWTjciaqZSNtTt1SOygTldEa0+NOFJYQfsCF9IEUhYIJMl0oPumRUCfIRfieVNp722t4wr8hSrOtIaEg9Bu5v22Ppx7Z7Xg4DnjI/4byQGKgSnK82mokLKSOy03AcuHTTdOsOqsORx6UWjCqxnrL8Kn7p4H5ZKFX4ZCAsIVUfLsyR5gT4AoarU91UNR9deUOiPaOoS9SuwVHd40hlSAaATQQ1ATSYeFR7CSjETHBv8mF6V/kYcpMsQ9fghx/kr8dQQQVaaFGBCChFr0gjo2rU5KMyoN+DeYOMSFVX0VDEO9KepCsMlYAHZib3qvlznOQcCjQiJ3xFjoxQeopdhV/Smw9Ey8oAW7ENw9+ftd3FSpBrsJt2yAqQNWD1DkZoR7NJJbC4+LjUdmHSTNVqLxdQWTxga6qj8vOPy0ASlnuoDvLtVLAuZwAdy9wLqpUpQPxLlF1MDYCH40UsY3yXqgJlC9aXFIvSDpl+ZIV58K09nr4zcIZLGii92wX/2px1cfVAwBqgRwxE0bbFw2Re2AI86YhLmCRIoJUeArkeVUeIqi+k/bFNkqf9H+jmXFWSF3GDy5tFnRBF/h0tzNo1VXk9Vju6WLCwqR+GzDQs8xKTpP9FM/+CZVT5V53hNx+59/t16iSzV/6RjU6QFvUS7V6qqGEjU9zY3gobE0kZueRH6g7B8JpAiHzhMlYFNYMhjw1vykPE+pfaIz6N5ON+B8GcVZ1LjifD/NwaqmoVu0N4sKISKqjAKW2qtLSPgDq39Fya8apMlOdQJeKBMG5mnEwcBChJgouXOyQV+iuIFxguSxkq0WcB43pJyVdVPwiNo9oPt62q4Tp1CajB4hoIQKoe6OVNPaiguOH7eC/GF3GSH7IaYWybhABVGlamUjGiVEd6rooTI+R2ucxpUEk9mHSoQ09pPtXMp+c9E6BmHU4n90kBhoWARgE5vJ5K48eqnXWp9OEvjgdLQyrGpbK2uhSqNjK6eg9CQmebxoVElTBerQ/uoVMhZqgJasvayBA4ARU8FV/LuwME2pEZSmhsBsTYT0DTqmIAeFhfBI828HsoTB4vHFWjFY0iUIgC3NReoopEak2xbQJkPVEV/cnDgu2av+jVyZaAanjK3iEhGAhz8RayVHIEMkia3mKFRSDEy6Vm2ySAqjBBU1vXSGAX2sYEMYURB3Nn13Yab02q5LOuCJoj9ilHU1VBaCNKLwlzlEzhMtdMl7NskNNHdAZZFWxKEDYS/qO1g0Fkaqy2tFkkom9pXZDs2vYKjAkRBg27G492vlEQMcjN+KEaNKNBkwQCh6mUxT+bdUDcSUoSdSri59m5Z9ezyGZpRPEvaItDQlkThl7FK5YpN+6BZ0EtAdPSMaQ590YhZHIJRmsOSh+gAa5i45Nr/0JRI5I2E6JB9BgxbcjIVOGfeK+eP5IlCaJcPD+UTdRWq70yAWAdESOV81Kr0rC4qh5w2+NOkcqqzERVxyHprM1gC2rbwnFLMoaB1gbGkGgSjqQ8RLJQ7Uw7/gPYWyjMRuRf6RVMgxgmz0WYgTEzpuGyRGvOF6e/cxhXWhPEbQExalm2VcStKhuOHgn9b78ItI2frgo9iLMd9EtidVauaZP3kwzIGxXIqya4HH9VhFzW4qGyFA8hL9BH014E6JgHI1JnAqkSQDwM2pKMAmLi2hKduocnrACnrYxKY8r2NxXsCVqrK4Ejardx2v/lkaPEfoFqgCnmuGt/9mqPfVeLYPKvWLPDBTI9DFvVXrMhMDwxSiU5sUuN2hsexXolYAtGZ2prxcoQA/4RVGJptIsZo9Bf7KSWm6MdQqTow2VHTPTUXqg22UA5bcg8tTOwaFlbwdhU1ExaKosRw/GiT7BfuL6g0vBAv6WE8dP+NdMfZhohS2ih64PgWxH+j9LXXypf2l5fUvgwwpKKdvwgnXU2aqENYVDB9LLIWAOgEhP6VQ3K/EuBtm4061SzB5ryqQ4JCeIW6sLsKJhb5imxnVclNY+JVhmnbuJ1aJfKf1X6aR7gaQsakGkM1G1mWvpWnbk84JXO+qdX/X7R12VT0E8B7pCKigskloYkDRdi7EyRDnNVUujqcmnqi9g8GxQfbUdZrSRHFU9uFlT3he/UukPgojfctLqJSgUk7VCZe+MvY0hpaDNRTRZZO3SyYHAKAYHTvT5Y0TN2Xe5iquVpwRjCs1uz2OPtFwad4POybc66hg4fqD2v9ohubCws5tUkFkLnqe0PSnMMmmuGhRUhJZlztW4hsNV8NFVk7eS6EQaqGvpj/gBtUAy53FXxTIhgbIvDyAH3prK14/OmKDKhcycoq3qVdtrAZuQWol0tS3jH20sOaMVq1U4r4bs/1u7Vur5RZTpnAZ8F0709K9cBWVuxpj65hStAYFcT2J0UG3mQIgHpgAA+yIQaRlVDI+JxmqoM27ok1VSC9Jdl3CqMIh8qvp11xDSQclYZBWmX9l1n2wlXSIznDkOz8o3QInzVWu9Z4S478LRTnWTYsCxAG7cHTVDxDruTh6aXnJFoU8snMK9CuJIX/TEO04ZciaSwdurROqKp1NH8gDwaV9txaMh1oXv4CjZpaB/CB1yQGYywuboSrWn8ay5iydQSP8Us0Xa2r+2cpu1Qk2rU1koyUdqj77XWH0sXIRovaTZIYF6/TJCtwlzIukH+8AMAuTTZn3U8GKynfhEiRtYfbwwr9FKsIDm6athLl2b4CGkMAPCpeiQ4Ird6HIr7a3gD2KBOA0FkvvqntDNyjzoQyH04iySKYI7q5nBN0a6atpME1mWK19TZEV9ScwRiqVa1QgHD46jUvZMpDpYA9FGLBEjFxAESBIupqiEKH07SAPVWCAbyBjBC+wPcKGjIjmGsjffh2he9dDDxs3/SGyGqqutT4AwknxPDgsHkmrZMjuzYAUrUJHfO72IMIQX+EXyoACBBe31J/UjkqAYFQ7r+CR3t0DHLCOSmBgpMPR6H5ID+CmOVVQMTCG/tM2l3CXJpIDKJAKDh3l3cksfoWLRUZ+RMof+2HC84Xku/vkPkQ40yLCQ5xPKQfepisfnWCmFCHE5CXTOqo5t5vqK2ZDWVzNJog3BH+UrkJcq4WWMQqBBksVXou0BzHd4hpbSnKwPGaxeSEk0fimrLpTQkJNJzhRFhsNT1JF5+vd6uI1JDsh+3zS0cTth2M5QocmG6QyCpWWEAFoE+k5Jce7LHFko2gBtkj+US73b19j3MMdQ6vj0ptWqx2GoW5H0plr8nnn9Qyh/5xv0d4bCSmn3ZU/IvyJ6ibB5Bos0xNTD8eoE2x76XyPfbq6yQYq+zPkbp5fhTEy3kr+pbZkOJc7kWteR/bajcLm/iyH6o3VXuGNWCZ+q2QeBgjXVlE0gtY9LxjWQgoIxPUNFFtWA1EyDoeTqHlpor6klzxTIVHHpVE3VBbklKf5t0XylIJRpr2T0EgkFmUScxKu0+R14/1dzVC89qAtXXY/mgNJ7OzCW6eRME9xE+J0uPKRzzX7S5w662JgcEFZC+y1v5XV2ra6kHXE0PtgXU7vJqi20a0cH/wC9oER5Eb+qkiIRcwY2jTsnkr9tIbcfQAncPUss4DhwgqAJzqgo0hMm6lMpSLBZ8ijkmjcjChYbBuqvpcBXf1aL0kv98AElsdQWesaSrCYMZdNADy0PYAwKdVRsRQQKnKWOZafXPL/U9Y/032KHeapyfNuAj8QGCwPxX1R6w4zV0SXss+5QasR1RU0cIQBPAKJxdb4mYITxJ1EYHCK22rknwoTnstEHRBqBhOgkHr/nsIwYVRs/q8AL+Sv/6L0BZVVK/3gtSWR016udqIC0CMSF3UE8lvuizQ2CPr4MFMahGg6J+wqfHUmcN2kyOur+u4y+y9lfbLV05KRBVY6zBjfbXjg4xIL9mUZOQGqoSwv58hQ5iNGCO1ZZhtD25co5q7p1SQwdPoibj5Y42A5HRej0xKp8iWVTsBAF87CEbDL5wEwMPdzI3jfdLH6iWf9F4whpHNBNnKvaTafhVhoeNONYjz+pG3gxeVUT4K0UW0lR2VFn1raPCqTYV8GuopTVhlKJd/yyrN7oK7UoDPT+PyxiZbeTnwDBC79V2ZzOmXsUrNUVjhpx1cpbbUrVTRfLru1VQH95RE2LuzZNueVonEnKLNGtwrjUPAZFkk3aLp1O1fzI3+FCdD6iSdHuOq+5yyZWnMan3B3r4+urPuioBkD2wkZo/CCUsBM9+SaLx07qvO2lbSocLNBnW5ok8t+7xGsnTDb6MsbTfCXo0VYjQm9X1prIpOrAMFp4w6Tr7B4R9+9jMo4HFGdoOsYQmseH4aH7nzqreCPSLG7UipFM/wf/ivpqsLSyYlDcVPH6qf0kb49IhQWL+YgfHz4+j+/VTlbd//1x7fxLEiBQwTye91B3xdCJK2z9TB4Km9nW+lwA7wX2vEm4/G/jv19n5mr8zC//wCm38cAQM4f5AET8EAffBrE0NhHbiA68TdRiEmLjqC0YYVzIViMCeBHsxJOC23SPopFNHEWBhR1HH/NRxhZza0PY4Er0KCrbqvFDN0E4w48NA4C/UOb1cjtr4VTmeyccekIjK0yxB+bXNoWcBJrRNLVv+cGF1hgqj2hsfapGVtnY6dYa5UfGBt6xZSAi+sKbcg0DVnnfWMUDEaC8I0aOOYgAZoTur7Xqa3HCLxwraMCCzy8HuDQR4Sto8wECg55Yap3L5b874NDWaurCW3CvKOxb1jqPH1cvE4m0AAJl1rfI1kdvIGbX4wEi25VNVjUpy8ujLq7PrR0LuqEW3aebBwollkKfY1tSust0JwWqJ2RvWsyDWFFus5UEdUA6OJ3IaeOcX0kJdfSheRDjBYgcSDqGHtJYWg/+D2iS08/dQdw15qs0x1Ndyav6NCizU0ugi9+dBsWFsnKLVezqeDO5NBaH9B3GdvmNhwfbl3PYkScNU4zt0QJ+HiS/rIJAODkxtzvEZ6jtJW606JJduaMAzT2JapJg0dMgT9dyFoNMSOjclja/zjU0NfksxgMjOmIenfUUY1LpB1PmsKs9uuEh1B7qu7VbV+M5KEgfMY9cpsKfmevUr6JDVDjr5JmGFhlLSIPFZopK8dtDHGOk6+ZPL01TbVCTktmAFeXLUcNoIoCDDAOwBLzo9rC6l8VUGAfIGNXmmMDjELQ/D+yC9mSPe+lf7j84BCM3JQPhxmVfzdauNmHD75CuyYumQT0Mfvaf+NC5PDB/pF3vftTbrkS2xvOQnkw1xRbX97j+eANAuKhLJqW22nNPtWAhwmQQKanl5ZjKHokMtq53IXE2dHACpaX0dQYfVVUwEmV0rWLCn1jl4KGsnmrhX5xJ5aycAuLidAPDWkHqsni61qiJpZZkVhCtpW6y3UPPYhI0OkDFc6yDj5RDBsVOR2lAQhyIFUlCnulolWLO8IXnWW41ZDjTxOlyNfUU0aS2ehauVeL5SR4lImG6KBeb/E2p7HY7EyqfgEElNkbyrV4c/siZ00ku9zby6HcNu7cHxQp4Au8aPYkeqqPSPHcWkMRfYLJ0GX7Yl2f1MOpQlL9jLCyrVQf5hq/rTvfZDpqhd9UZSak9t11kDMhHokp2mCoh5ELwCC4CHjlbcxLoSCXBeIxtBTe2jAurdermOygIgrxJPp1yaU8c3uLa1U4YGHjgU1efwjNgIzEJEvkGJECGCXFvPCaa1pln+7zv2x6grCPnlUGDBcEv8U6vEAhBQMAXgzEfnVdAV1rg4GUrM1rioAlid//0JX1ABrbGfaqtRDchqy5R6u9qqUqG+6cAF5Bh+df5Hh/rtP63/vJ8lv+r8R1lZ57/6hbRbrC2D58nno9MgHsCIrajJLhc7UQKwXbkidArh8wluHbVRCV1zt0xqTHXqinJiybECDWApnMAKdbU0oZHfvg7Fm1QX8cjRZqcoYNjKK79TFGiIptr1r1MUp2zDhSNxsSTWdbo1ze1UTECrwbd2/CNr5wRwiPLmT4I2oIhC6UUbizr9qKM76gBXE4s2uYE/nh7BruYVbVMOPPzDJaFrGErR0azV1GSKCrGzhhDc12/fdSEFGTMddDLp3DWd9sTIO7V7qIUrFHQSq6IDyjpV7U9Bvx71Lem3UKwKBergh+nwXKYa0VX4tObTqrbuS54Nf+zMdDKlTE7/yD+UhAll9RETtYrmfYJJViQP/AvmEUfx2fnFwsCaTIvmAMeu979jLn7JODHysXmxYNjOfym+kGw9AXJ5qOwDgfs5me2n5mvtLpTyqabHMui4z1RfdFEGCfjqdxoA8vhOA3S+XZ1OtSB5mtYnqiSvg3AJKzGmtvxxUGoKUvd3tDPiT2egVMxRs9rQb4NB3U1V2IFBIl8bpXagoOap5kowRrUqFEfejzHtfRNCQootqlKhGmW0Yx6omkjkqDZCTk1lRRo4cm2cH6hT5wBQM2pcy9t+fY390akKHUwAXoOdkpUdUGeHm1hrvG+9TYcB1F1/7TTAtQ6WUv5h7pv2BEVlCM0eWUk8zvBISxUmspPanF1mrpkaTj/WqKsnjQzAcJB7gSCIUUfI1REHaA8iAb7rjO3pV050B7HA4oGUi3Eb+zQVkNQXDMPBgFnV+q3dpBVR9A3LsffWGTgd8tIJdisruWDdysTQ1FkPwv3ImJCqDCWrqZ+gICDSbdYZnuD6Hpa6fqvOIgjDdays6giDTkjebGcjY8TUQ95aFwhwCA/ki4CnIROKg56gpAJ0c+tcQSaptJacDlcJ/hOC/jAN6vqTEAkwTVGzpw756/zL//BbENxfWwu0+aTWAvnogakbGgLc3dTpihWWZFYfqP4FyfOE8MYfQ9kMCbrKQ0EB4a+7kIjpVRWH1eSljlVVEVVKQJR8tRtkg85gHh0v9+VgIfbyec7mlc3Qdg/as5zqgNfhd7VqYQfI/SoE1b7o0tQAAmpxVTu7ijIEsZO8DDoBWKa8d924VLUBIt+R1VHHu55lOxArTY5wT3YqafJoWhHNQ/DbfX1HRWcP9RUrqLOO4PZcWXz9FJWMK8vBqAr2tTWCXyDb2Nr+tH4u17X3onNUgPzKajxK3s4XNAWz9q4LzhSIuc868pHdO3+VHdsavgqwsRSQ1j/GUNVOe7QlOTLyGLBCsJIVYHQHBy72GHWiEuQMwNbWudArvXd0guA6tba1r2Nex8WBNJDZTlwEPIbdQQ0G0GHRORKEI39bUOuqztSqlqLwbc7bcfCDxqobsiBd8IcRteYDKKj9yFeiJNfRPktb6FasPJBhnI15Vcv+8405mmAWpsprT+NxX4QOvrTuZedp051jncUi6VdfqQu4he+oggrCoFxBJELyTgfNK5gutKjqrkVuMF9VnfDaGusWK0vFH6tyFRVM9Isv1OyoTmitKsrOgbPQ5dTvYglfF6zRwyKDZ1KzprqndJjbJndm0JWceWnDmOI74H53fLKzFqVZLoveqvYeS0Sma8VBKa++HfhxqJdybCyRfqHLLEB2Qqvod47grJiXs90WyEUsxPjV1a/fF9Anoku78RH8iSxjkegF6bDE9lvEyIsFEz/1S+q3w+Agf35dg0lk+x0QOjm7wC45qUjifr+CIq5U1XIGXKkdGXECksJlXb+DAm+IPkKEEZsb8AqBVx71w8kPhKbtkHBz9koPdJBtzYEF+Z+a37z9Lo3wdz/4v/wcdFhdfU+ao6sN9oA3RjVl7VeNGXTY9U5zMH2Friok7glHeHWy7tN2xX53i/YUEUnufW1eSVszU5UUJgFXoN3UHuQoc7I9iDYEgKXCVlvdnGpDq2igI+9b9OtmSJZuv0uF8FW3Q1E7QrYGbZa3o9X1yyyetryKHX4XfJSq/LKyo45VoPDVE8Fy+9WaOlXRZFbWVR8Sr2Z6D75Jhyy1DQXpjQjR7E0c8JarfPro9LqjkhsGSof3j36jGOGLCQudgDw6nms9GtE60ltR6cdbVyY0q5aFU8EwbcQ4HRJdWFnYGgNt4yax1GClpghUXkM83oG60K5S6hBzr1HNJkv9GYCvFPh97n6nMvRLzppcDbhZqvxxS1PHI5sOn7JU5LTVXqNVXyXtj9p51bQT0GDJAYVxTrVs+5LPfx5R7j8Oxf/0QggqVhC2+D/0au0Gy5h/GQAAIABJREFUeJzs3X9Q3PWdP/Dn99BZSytWSMkdKORACydocg6rA94BKduU9Q5qGnQ2OZxsJl0wsVAySWjICHrQhgjJgWCNgA44Im7txqTgdGmFSaAdmLpcTU6woAcmWLBgQIO6zV7dyfePFJpofvBjl9fnx/Mxk3/urunzEgLPff94vf/f+fPnz4OIiIiIfObvpAMQERERaQ0LFhEREZGPsWARERER+RgLFhEREZGPsWARERER+RgLFhEREZGPsWARERER+RgLFhEREZGPsWARERER+RgLFhEREZGPsWARERER+RgLFhEREZGPsWARERER+RgLFhEREZGPsWARERER+RgLFhEREZGPsWARERER+RgLFhEREZGPsWARERER+RgLFhEREZGPsWARERER+RgLFhEREZGPsWARERER+RgLFhEREZGPsWARERER+RgLFhEREZGPsWARERER+RgLFhEREZGPsWARERER+RgLFhEREZGPsWARERER+RgLFhEREZGPsWARERER+RgLFhEREZGPsWARERER+RgLFhEREZGPsWARERER+RgLFhEREZGPsWARERER+RgLFhEREZGPsWARERER+RgLFhEREZGPsWARERER+dh10gGISDnGx8fx+eefY3JyEmfPnp37n7///vv48MMPF/V7xsbGIjAwEABw++23AwCuu+46hIWFLT0wEZFCsWAR6Yjb7caZM2fw7rvv4uOPP8bIyAjOnTuHkpISsUwFBQWIiorCHXfcgRUrVuDmm29GeHg4AgICxDIRES3V/zt//vx56RBE5FterxdjY2OYnJzEBx98gMHBQfz85z+Hy+WSjjZvFosFd999N2JjYxEVFYVbb70VQUFB0rGIiOaFBYtIAzweD06dOoV33nkHvb29KC8vl47kFxaLBWvXrkVsbCxWrVqFiIgI6UhERJfFgkWkQnopVPNRWloKo9GIu+66i+e6iEgxWLCIVGJmZgYDAwNoa2vTdaG6GovFgszMTNx111247bbbYDAYpCMRkU6xYBEp2PT0NN588010dnayVC1CaWkpTCYT4uLieH6LiJYVCxaRwkxPT+ONN97Ar371K1RXV0vH0YyKigqsW7cOsbGxXNkiIr9jwSJSAK/Xi/7+frS2toqOTNADo9GI7du3IzExETExMdJxiEijWLCIBI2Pj6OrqwtVVVWqGqGgFRaLBZs3b0ZSUhK3EInIp1iwiJaZx+PB7373Oxw5coRbgArS2NiIdevW8SYiEfkECxbRMnG73ejs7MShQ4fgdDql49AVlJaW4nvf+x7i4uKkoxCRirFgEfnZzMwMXn/9dTz55JPcBlQRi8WCbdu24d577+WheCJaMBYsIj+Znp7Gr371K2zatEk6Ci2B2WzGnj17cN999/F9RCKaNxYsIh+bnp6Gw+FAbm6udBTyIYvFgvz8fNxzzz0sWkR0TSxYRD4ye8YqMzNTOgr5kc1mw6OPPorVq1dLRyEiBWPBIloir9eL48eP4+DBgzy8riM2mw07d+7kLC0iuiwWLKIlOHnyJPbv3w+73S4dhYRUVFRg69atCA4Olo5CRArCgkW0COPj43j66af5PiDNcTqdWLt2LW8cEhEAFiyiBfF4PHjttdeQlZUlHYUUyGKx4LHHHuMMLSLC30kHIFKLkZERWK1Wliu6Irvdjvj4eJSVlWFyclI6DhEJ4goW0TW43W48//zzyM/Pl45CKtPR0YG0tDTpGEQkgCtYRFfR19eHrKwslitaFJPJhLKyMkxPT0tHIaJlxhUsosvweDyor69nsSKfMBqNeOaZZ5CQkCAdhYiWCQsW0ReMj49j586dHL1APldTU4OtW7ciMDBQOgoR+RkLFtFFOjs7YTKZpGOQhpnNZlRWVvKmIZHG8QwWES4cZK+srGS5Ir9zOp2Ij49HW1ubdBQi8iMWLNK9kZERbN26FYWFhdJRSEcyMzNRWVkJj8cjHYWI/IBbhKRrvb29SEpKko5BOmaz2fDjH/8YoaGh0lGIyIdYsEiXvF4vjh49yqGhpAhGoxGNjY08l0WkIdwiJN3xeDz4r//6L5YrUgyXy8VzWUQaw4JFujI9PY28vDyetyJFyszMRG1tLbxer3QUIloiFizSjZGREWRnZ6OhoUE6CtEV5efnY9++fTz8TqRyPINFunDy5EmsWbNGOgbRvBUVFWHPnj0ICgqSjkJEi8CCRZrHcjU/RqMRDz74IG644QbccccdAIDbb78dAHDdddchLCxsQb+f2+3GmTNnAABjY2Nwu90AgN///vf46KOPUF5e7sP02mSz2XDgwAGWLCIVYsEiTevu7kZKSop0DMUpLS3FbbfdhvDwcKxatQrh4eEICAhY9hzT09P4+OOP8d5772FychJvvfUWi9cXmM1mNDU1cYwDkcqwYJFm8dmbC4xGI77//e/jzjvvRGRk5IJXopabx+PB2NgY3nnnHbhcLpSUlEhHEmc2m/H0008jKipKOgoRzRMLFmmS3stVRUUF7r33Xtx2222KL1TzMTo6ipMnT6KtrU23lxSMRiPsdjtLFpFKsGCR5ui1XNXV1eHee+9FbGwsDAaDdBy/mZ6eRn9/P9rb23W3nWg0GvHaa69xu5BIBViwSFP0Vq4qKiqwdu1a3HnnnZouVVfidrvx9ttv46WXXkJ1dbV0nGXBM1lE6sCCRZqhl3cFLRYLtm3bhoSEBAQGBkrHUYzx8XF0dXXhxRdfhNPplI7jV74qWRff9JycnMTZs2cBAG+//TbOnTs379/nzjvvxPXXXw8AuP7667Fq1aq5/93Xv/513oIkXWLBIk3QwyiGiooK3H///Xyv7hq8Xi/6+/vR2tqq6QPyZrMZdrv9quVlZmYGH3/8Md59911MTk7ij3/8I86dOyfy52KxWHD33XcjKioKX//613H77bfja1/7GoKDg5c9C9FyYMEi1RsZGUF0dLR0DL8wGo340Y9+hLVr1/IH0SKMjo7iZz/7mWafRpqdk3XdddfhzJkzOHXqFD788EOMjIzg5z//OVwul3TEeSkoKEBYWBjuvvtu3HLLLbj11lu5Okuqx4JFqjY6OoqsrCzV/CCZL6PRiOLiYqSlpfEHjQ+Mj4/jtddeQ25urnQUmiebzYakpCTExMSoYrwI0RexYJFqTU5Owmq1auq8DYuVf01OTuLo0aMsWipVUVGBO++8E//4j/+ImJgY6ThEV8WCRao0MzOD3Nxc2O126Sg+09LSgn/7t3/jgeBlMD4+jpdeekmzW4d6YDQasX37dhiNRtx22226vEVLysaCRarj9Xqxb98+zRxgrqmpwX/8x3/wjJWAoaEhHDx4ULfDS7WkpqYGiYmJuOOOO7j6S4rAgkWq8/LLL2PTpk3SMZbMYrHgscce461AYV6vF2+88QbKyso0td2sZ0VFRcjIyMDq1atZtkgMCxapilZmXTmdTqxdu5bbGgri8Xjw6quvaqK80980NjYiOTmZTwzRsvs76QBE8zU6Ooof/vCH0jGWpLS0FFNTU0hPT2e5UhiDwYCNGzdieHgYFotFOg75yJYtWxAdHY2cnBx0d3fD7XZLRyKd4AoWqYIWDrV3dXUhOTlZOgbNA1eztI2rWrQcuIJFiuf1evHUU0+ptlwVFBRgbGyM5UpFuJqlbRevavX19cHr9UpHIg3iChYpXltbGzIzM6VjLEpLSwseeughBAQESEehRXK73Th48KBmbq3Sl1ksFuTn5+Oee+7hv1XyGRYsUrTR0VFERkZKx1gws9mMp59+mlsQGqLmok/zw6JFvsQtQlIsj8eDH/3oR9IxFqygoADNzc0sVxqTkZGBwcFBmM1m6SjkJ3a7HUlJScjOzkZvby+3DmlJuIJFilVfX6+6J01qamqQk5PDG4IaNj09jbKyMlRXV0tHIT/jihYtBVewSJFOnjypunLV2tqKvLw8liuN+/TTT/GVr3xFOgYtg4tXtAYGBqTjkMpwBYsUZ2ZmBiaTCS6XSzrKvBiNRjQ0NGD16tXSUciPpqen4XA4VFf8yXcqKiqwefNmhIaGSkchFWDBIsUpKytTzY0to9EIu93O81Ya5vF48Otf/5oH3GlOa2sr1q1bx9VquipuEZKi9Pb2slyRYvT19WH9+vUsV3SJzMxMrF+/Hn19fdJRSMG4gkWK4Xa7kZqaqoqtQZYrbRsdHcWzzz6L8vJy6SikcEVFRfjBD36AsLAw6SikMCxYpBhNTU3YsmWLdIxrYrnSrpmZGdjtdp6zogVzOp349re/zduGNIcFixRBTQNFh4eHWa40xuv14vXXX0dJSYkqVlBJmYqKirBr1y4EBwdLRyEF4BksEuf1elFVVSUdY15OnDjBcqUxAwMDyM7OhtlsZrmiJSkvL0d6ejrPZhEArmCRAnR3dyMlJUU6xjWdOHGCoxg0ZHx8HM8//7xqLlWQutTU1GDr1q0IDAyUjkJCWLBIlFpmXrFcaYfb7cYrr7yiivN+pG4WiwU/+clPuOqtU9wiJFF2u53lipaF1+tFd3c3UlNTWa5oWdjtdkRHR6OtrY3vGuoQV7BIzOTkJFauXCkd46pcLhcSEhKkY9ASDQ0N4eDBg2hoaJCOQjpVWlqKnTt3cstQR66TDkD6dfToUekIV9Xa2spypXKTk5N44YUXUFhYKB2FdK6kpATvv/8+fvzjH/OpHZ3gChaJUPrqVWlpKfbu3cuZNirl8Xjw2muvISsrSzoK0SWMRiMaGxsRFxcnHYX8jGewSISSV68sFgt27tzJcqVSvb29WL9+PcsVKZLL5UJ8fDw6Ozulo5CfcQWLlp2SV6+MRiMcDgciIiKko9ACjYyMoLa2FtXV1dJRiOalrq4OW7du5Yc5jeIZLFp2Sv4B+NRTT7Fcqcz09DReeukl5OfnS0chWpDc3FycOnUKe/bsQVBQkHQc8jGuYNGyGhoaQmxsrHSMy6qoqMDu3bulY9A8eTweHDt2jM/b+InRaMSDDz54zf+73//+97Db7cuQSLssFgueeuopHn7XGK5g0bLq6uqSjnBZZrMZjz76qHQMmqe+vj4cPHiQP9gXYbY43XTTTYiOjkZgYCDCw8MBAOHh4Yvarnr55ZcBXBjieubMGQDAJ598gj/96U8YHh7GxMQEJ+Zfhd1ux9mzZ9HU1MSSpSFcwaJlo+SzVxwmqg6jo6N49tlnUV5eLh1FFQoKCrB69WpERUVh1apViy5QvjJbwE6dOoXBwUEcO3aMJfkiZrOZJUtDWLBo2bS1tSEzM1M6xpc0NjbCarVKx6Cr4PM281NaWoqUlBRFlKn5mpmZwQcffID33nsPLpdL9ytdLFnawYJFy8LtdiM1NVVxZ2UsFguef/55TldWKK/Xi+PHj6OoqEhxXztKYLFYkJmZibvuugu33XYbDAaDdKQlc7vdePfdd/Hmm2/imWee0eXfu9lsxnPPPYewsDDpKLQELFi0LLq7u5GSkiId40v6+/s58E+hBgYG8OMf/5hbSF9gsViwadMm3HvvvbpY5RgZGcGbb74Jh8Ohq68Fo9EIu93Oh6JVjAWL/M7r9SI7O1tx3xxramqQl5cnHYO+YHJyEnV1dbrfKrqY2WzGww8/jPvuu0/XY0SGhobQ29urm61ilix1Y8EivxsYGEB8fLx0jEsYjUa0t7cjODhYOgr9ldvthtPp5AT2i9TU1OBb3/oWYmNjVXGearl4PB689dZbcDqdmi/iHH6sXnwqh/zu1VdflY7wJaWlpSxXCuH1etHd3Y2srCyWK1z4gdrS0oKpqSnk5eUhLi6O5eoLDAYDEhISUFxcjImJCbS0tEhH8huXy4VHHnkE09PT0lFogbiCRX41MzODm266STrGJSwWC5qbm/lDSwGGhoZw8OBBNDQ0SEcRZ7FYsG3bNiQkJPDSxSLMzMygq6sLZWVlmjwYb7PZcODAAU58VxEWLPKrzs5OmEwm6RiXGBwcRExMjHQMXePzNn9jsViwZ88ezmHzEY/Hg9/+9rc4ePAgnE6ndByfKioqwuOPP66J26J6wC1C8quf/exn0hEuUVRUxHIlyOPxoK2tDSEhIbovVxaLBT09PWhubma58iGDwYC0tDQcOXIEHR0dMBqN0pF8pry8HPX19fB6vdJRaB64gkV+Mz4+PvcEh1Jw9UpOb28vysrKNLeqsFBmsxk7d+7Ev/zLv3AlYhlo8fJES0sLNm7cKB2DroErWOQ3vb290hEuwdUrGaOjo9ixYweSkpJ0X65aW1vhcDiQlpbGcrVMAgMDsWHDBkxNTaGurk46jk9s2rQJ7e3t0jHoGliwyC+8Xi8cDod0jEts3rxZOoKuzMzMoL6+HpGRkaiurpaOI6qmpgZTU1PIyMjgAXYhwcHByMnJwenTp1FQUCAdZ8nMZjP6+vqkY9BVcIuQ/GJoaAixsbHSMeYUFRVh37590jF0wePx4NixYygpKdHkba6FKCgoQF5eHgdFKozX68Xrr78Os9ksHWVJjEYjjh49yid1FIorWORTMzMz6OvrwyuvvCId5RJcvVoeJ0+ehNVqhdls1nW5MpvN6OrqQlVVFcuVAgUEBCA9PR1jY2MoKiqSjrNoLpcLTzzxBDwej3QUugyuYNGSzD7M+vbbb+PYsWOKnGfE1Sv/Gx8fx/PPP6/5qdrz4XA4YDabuRWoIt3d3di1a5dqPxTU1dUhJydHOgZ9AQsWLYjH48GpU6fQ39+P3/72t6o4W9PT04PExETpGJrkdrvxyiuv6OZtuKupqKjA5s2bdfEAsxZNTk7iscceU+SHxPng9znlYcGiaxoZGcHAwAB6e3tRXl4uHWdBjEYjent7ObXdx7xeL44fP46ioiLVfur3FZvNhp07d/KGqgZ4PB5UVFSociWW57GUhwWLLmt6ehrHjh3D888/r+qr9a2trcjIyJCOoSl83uYCo9GIAwcO4L777mOB1xCv14ujR4+qcm6WzWZDbW0tR4AoBAsWzZl9of7VV19V3UrVlUxMTHDLxkcmJyfxwgsvoLCwUDqKuMbGRjz00EM8Z6VhfX192L59u+pWaHkeSzlYsAgjIyPo7u7GM888o7pvJldTWlqK4uJi6Riqp8VJ2ItVWlqKrVu3chtGJ8bHx/H9739fdav4PI+lDCxYOjUzM4Oenh68+uqrmt3qOXHiBN94W6Lu7m7s379fdT9gfM1iseCxxx5DXFycdBRaZjMzM9i/f7+qVvWNRiPa29sRHBwsHUXXWLB05uTJk+ju7tb8Q7tGoxG/+c1veBZhkUZGRlBbW6uKW6L+ZDQaUVpaim9/+9s8Z6VjXq8XL774oqpuy1ZUVGD37t3SMXSNBUsnTp48iZ/+9KeaXa36opqaGuTl5UnHUJ3p6Wm89NJLmi/g81FXVweLxYKgoCDpKKQQvb29SEpKko4xb1zFl8VJ7hp38uRJ5OTkYM2aNbopVwCQnJwsHUFVPB4P2traEBISovtyVVRUhNOnTyMnJ4flii6RmJiIwcFBGI1G6Sjzsn//frjdbukYusUVLI3S24rVxbg9uDB9fX04ePAg7Ha7dBRRFosFO3fuREJCgnQUUriRkRFYLBZVXApqaWnBxo0bpWPoEguWxui5WM3i9uD8jI6O4tlnn1XV4V1/aW1txbp161jKad7UVLKGh4f5JqYAbhFqhF63Ai+H24NXNzMzg/r6ekRGRuq+XNXU1GBqagoZGRksV7QgUVFRsNvtqtgu3L9/P7xer3QM3eEKlsoNDAzgqaee0n2putjZs2d5duYy+LzN3xQUFCAvL4+f6mnJ1LKS5XQ6kZ6eLh1DV7iCpVJutxu1tbWIj49nubqIzWZjubqMgYEBZGdnw2QyKf4HgT+ZzWb09PSgqqqK5Yp8Qi0rWSUlJZicnJSOoSssWCrU29uLrKws3d/2uhy+O3ip8fFxlJWVIT4+XveH2B0OBxwOBydck89FRUXhxRdflI5xVS6XC0ePHpWOoSvcIlSR6elp/PSnP1XlS+/LZXBwEDExMdIxxLndbvziF7/Apk2bpKOIq6iowObNm/kmJfldd3c3UlJSpGNcFd9nXT5cwVKJ7u5upKens1xdw6pVq6QjiPJ6veju7kZWVpbuy5XNZsPg4CB2797NHyi0LJKTk+FwOKRjXNULL7wgHUE3WLAUbnp6GmVlZUhJSdH12Zn5KCoq0vVNsKGhIWzbtg0pKSm6fjvQbDajq6sLhw4d4momLbsNGzagpqZGOsYVFRYWYmhoSDqGLrBgKZTX60V7eztXrRZAr2drJicnUVlZidjYWN1feGhsbITD4UBycjLfDiQx27dvR0FBgXSMK+Iq1vLgGSwFGh8fR2Vlpe4f2l0ol8ulqyncHo8Hv/71r5GZmSkdRVxpaSm2bt2KsLAw6ShEAC7sPqSnpyt254HnVf2PK1gK09vbi/DwcJarRYiIiJCOsGx6e3uxfv163Zcri8WC/v5+FBcXs1yRogQHByt6RZmrWP7HFSyF8Hq9ePHFF7FlyxbpKKr1+eefa35baGRkBLW1tbov4EajEeXl5UhNTdX83zmp28svv6zYCydcxfIvrmApwMzMDIqLi1mulqCgoEDTP2hnZmZQW1uL6Oho3Zeruro6dHR0IC0tTdN/56QNDz30kGLPY3EVy7+4giVsdHQUjzzyiK5vfflCY2MjrFardAyf83g8OHbsGEpKShR7lmO5FBUV4ZFHHtHVVjBpg5LPY3EVy3+4giWot7cXkZGRLFc+oMVnT/r6+mC1WmE2mxX5jXm5zL7ztm/fPpYrUqXg4GA888wz0jEui6tY/sMVLAFerxdHjx5FVlaWdBTN0NKnsPHxcTz99NMoLy+XjiLO6XRi7dq1up5vRtpRVlamyLE7Wvr+qSRcwVpmbrcb+/btY7nysRtvvFE6gk/09fXhgQce0H25qqmpwdTUFNLT01muSDMeffRRRT4KzVUs/+AK1jIaHx/Hzp07df/orj989tlnCAwMlI6xaFzVvKCgoAB5eXma3PIlAoDOzk6YTCbpGF8yNjbGUSc+xhWsZXLy5Ek88MADLFd+ovZypfdVTbPZjJ6eHlRVVbFckaalpqYq8lZhV1eXdATN4QrWMjh58iTWrFkjHUOzbDYb6uvrpWMs2uHDh3VdrlpbW7Fu3TpuBZJujI+PIzw8XDrGJYxGI3p7ezn6xIe4guVnLFf+d/vtt0tHWLSTJ0/qtlxVVFRgYmICGRkZLFekK2FhYairq5OOcQmXy4U333xTOoamsGD5EcvV8vjGN74hHWFRpqenYbPZpGMsO5vNhsHBQezevRuhoaHScYhEWCwWxR1458gg3+IWoZ+wXC2flpYWbNy4UTrGgin5CQ1/MJvN2LNnD+677z5uQ/jJzMwMTpw4gZGREXz44Yc4duzY3A/N0tJS3HDDDbjzzjtx6623Ii4uTjgttbW1Ke490YmJCX7w8REWLD9guVpera2tyMjIkI6xIG63G6mpqboZINrS0oLvfve7qr6MoGQjIyPo6OhAbm7uvP8zFosF27ZtQ0JCAv9ehCjx+4Aav58qFbcIfYzlavmp8YdDX1+for6p+ktpaSnGxsawceNGVf49Kd3Q0BBycnIQHR29oHIFAHa7HSkpKfjqV7+Kw4cPw+Px+CklXUlgYCAOHDggHeMShw4dgtfrlY6hCSxYPqS3cmWxWFBUVCQdQ5UOHTokHcGvLBYL+vv7UVxczNk6fjA9PY3a2lrExsaioaFhyb9fVlYW1q9fj97eXh+ko4W47777YLFYpGPMcTqdGBwclI6hCSxYPqKnclVTU4P+/n68/PLLSEtLk46jOm63W7Pz0IxGIzo6OtDc3MwzPn7g8XjQ1taGkJAQ5Ofn+/T3djqdSEpKwo4dOzA6OurT35uuLCAgwOd/l0v1y1/+UjqCNpynJTtx4sR5AJr+ZbFYzjudzvNnz5695P/3jo4O8WwnTpwQ+ptfnNOnT4v/mfnjV11d3fnPPvtM+o9Xs3p6es6bzeZl/fv84r938o9z586dNxqN4v+GL/7Fv/ul4wrWEg0NDWl65aqoqAgnTpxAc3Mz0tPTERQUJB1J9SYnJ6Uj+FRRURFOnz6NnJwcnrPyg5GREezYsQNJSUnLeo0+NzcXJpMJnZ2dPJPjZwaDAcXFxdIxLtHT0yMdQfVYsJZgenoaO3bskI7hF0VFRRgcHMS+ffuwevVqXqv3oTNnzkhH8AmLxQKXy4V9+/YhIiJCOo7mzMzMoL6+HtHR0aiurhbJ4HK5YDKZkJ2djYGBAZEMepGWlqaouVjd3d3SEdRPeglNrc6dO3e+oKBAfBnX179sNtv5/v7+ef85cItw4VpaWsT/zJbyy2g0nnc6nefPnTsn/UepSefOnTvvdDoVt2UE4HxFRcX5iYkJ6T8izXI4HOJ/xxf/4pb/0nAFa5FeeOEFsU+V/mCxWHDixAnU19fzcDJdUU1NDdrb25Gens7nbfygr68PVqsVZrNZkWM8CgsLsXLlSo518JN//dd/lY5wiXfffVc6gqqxYC1CZ2fngmfOKJXZbEZPTw+am5uxevVq6TikUAUFBRgeHkZeXh6Cg4Ol42jO+Pg49u7dC6PRqIobphzr4B+hoaGoqKiQjjHn7bfflo6gaixYCzQ0NASTySQdwycaGxvhcDiQmJjIM1Z0WbMFvKqqClFRUdJxNMftdqOpqQnh4eEoLy+XjrMgHOvgH+vWrZOOMOfYsWPSEVSNBWsBtHKo3WKxYHh4GFarlbe+6IpaW1tx5MgRJCYmSkfRHK/Xi87OTqSmpmLLli3ScZakuroakZGRqK+vx8zMjHQc1YuPj1fMYfeGhgbN3XpeTixY8+TxeFBWVqb618adTieam5u5GkFXVFFRgampKWRkZPCclR8MDAwgOzsbJpNJkeesFotjHXwjICBAUR/kh4eHpSOoFgvWPKn9UHtpaSkmJiaQnp7O7UC6LJvNhsHBQezevZvnrPxgcnISZWWy7m9sAAAgAElEQVRliI+PV8U5q8XgWAffuO+++6QjzHnrrbekI6gWC9Y8qP1Qu9PpRHFxMUJDQ6WjkAKZzWZ0dXXh0KFDiImJkY6jOW63G4cPH8bKlStRUlIiHWdZ2O12xMfHo7KykltMixAREQGbzSYdAwBw9OhRrkguEgvWNaj5ULvZbMbw8DDS09Olo5BCORwOOBwOJCcnc2XTx7xeL7q7u5GVlYWsrCzpOCI41mHxvve970lHAHDhA/rY2Jh0DFViwboKt9uNJ554QjrGopSWlsJut/OsFV1WaWkpxsbGsGHDBl508IORkRFs27YNKSkpqj+36Qsc67Bwd9xxh3SEOZyHtTgsWFfxi1/8QpVnJRwOB/bu3ct3A+lLLBYL+vv7UVxcjLCwMOk4mjM9PY3a2lpER0ejoaFBOo6icKzDwkRERMBsNkvHAAD8/ve/l46gSixYVzAyMoJNmzZJx1gQs9mM/v5+bNiwgds9dAmj0YiOjg40NzdzUr8feDwetLW1ISQkBPn5+dJxFI1jHebv4Ycflo4A4MJWL7d4F44F6zK8Xi/2798vHWNBLBYLmpqa+MOTvqSxsRHHjx9HWloai7cf9Pb2Yv369cjMzJSOoioc63Btd911l3SEOVNTU9IRVIcF6zKOHj2qquV9m82Guro63hKkSxQVFeH06dMcKOsno6Oj2LFjB5KSknjOapE41uHqbrvtNsUMHR0fH5eOoDosWF8wPj6uqhs/RUVFqK2t5XkrmmOxWOByubBv3z5ERERIx9GcmZkZ1NfXIzIyUtWz8ZRkdqxDWVkZxzpcxGAw4MEHH5SOAQD44IMPpCOoDgvWRbxeLyorK6VjzFtNTQ0ef/xxTtumOWazGXV1dUhISJCOojkejwft7e0wmUyqnounZCUlJXNjHdxut3QcRbj77rulIwAATp06JR1BdViwLnL8+HHVfCJtbGzE9u3bWa7oEomJiVzN9IO+vj5YrVaYzWZNPW+jVLOzwzjWAbjlllukIwDgRPfFYMH6q8nJSRQVFUnHmJeWlhZYrVYeWKYvueGGG6QjaMr4+DjKyspgNBpVObJFzS4e6zAyMiIdR8yqVaukIwC48PAzLyMsDAvWX1VXV6vik2lLSws2btwoHYNI09xuN5qamhAeHq6b522Uqrq6GtHR0bod62AwGBTzbA5vEi4MCxaA7u5ulJeXS8e4ppqaGpYrIj/yer3o7OxEamoqtmzZIh2HLjI71qG9vV13Kylr166VjgAA+PDDD6UjqIruC5bb7cauXbukY1xTRUUFtm/fLh2DSLMGBgaQnZ0Nk8mkitVsPXK5XDCbzbob66CUbcL3339fOoKq6L5gdXZ2Kv6baVFREfLz83nmisgPJicnUVlZifj4eJ6zUgm9jXWIjIyUjgAAfOJogXRdsKanp1FWViYd46psNhsee+wx3hYk8jG3243Dhw9j5cqVKCwslI6zIAUFBaioqIDFYpGOIkovYx1CQkKkIwDgqIaF0nXBcjgcil69stlsOHDgAKdwE/mQ1+tFd3f33CgANZkdIltVVYXdu3ejqakJTqdTMdO+pWh9rIPBYFBEme7o6JCOoCq6LViTk5OKHhZoNBrxxBNPcKYRkQ+NjIxg27ZtSElJUd3zNk6nE01NTZcMkTUYDEhPT0d7eztqamoE08nT+lgHJQwcdblcmJ6elo6hGrotWEePHpWOcFVPPfUUwsLCpGMQacL09DRqa2sRHR2tqndGgQu3h6emppCenn7FowLBwcHIy8vD8PAwCgoKljmhsmh1rENUVJR0BADAp59+Kh1BNXRZsJS+etXY2IjExETpGESq5/F40NbWhpCQEOTn50vHWZCCggIMDw8jLy8PwcHB8/rPREVFoaqqCj09PTCbzX5OqGxaG+uglA/cn3zyiXQE1dBlwaqrq5OOcEUFBQV4+OGHpWMQqV5vby/Wr1+PzMxM6SgLYjab0dPTg6qqqkWvWiQmJuLIkSNwOBw+TqcuWhrrsHLlSukIAIDPP/9cOoJq6K5gDQ0NKXYys9FoRHFxMccxEC3B6OgoduzYgaSkJNWds3I4HDhy5IhPVrANBgM2bNiAiYkJVFRU+CCdemlhrMPXvvY16QgAgL/85S/SEVRDdwXrhRdekI5wRS+++OK8twKI6FIzMzOor69HZGSkah5tn1VRUYGJiQls2LDB5yNZQkNDsXv3bgwODirmyRUpah7roJR3Rs+ePSsdQTV0VbBGR0cV+ySOw+FATEyMdAwi1fF4PGhvb4fJZFL02crLsdlsGBwcxO7duxEaGurX/66YmBgcOnQIXV1dHOugwrEOX/3qV6Uj0ALpqmC1t7dLR7gsm82GBx54QDoGker09fXBarXCbDYreqbdF5nNZnR1deHQoUPL+sEqICAAycnJOH78OBobG5ftv1eJ1DbWISAgQBHF+OOPP5aOoBq6KVhut1uxn2737NnDc1dECzA+Po6ysjIYjUbVPW/T2NgIh8OB5ORksX/3gYGBsFqtGBsbQ2lpqUgGpVDTWIc1a9ZIR8D//d//SUdQDd0UrM7OTukIl9XS0qKY+SZESud2u9HU1ITw8HDFXla5ktLSUoyNjcFqtSrmdYawsDAUFxejv79fEZPCJalhrMOKFSukI8Dj8UhHUA1dFCyv14tDhw5Jx/gSi8WC7373u9IxiBTP6/Wis7MTqamp2LJli3ScBbFYLOjv70dxcbFiZhl9UVxcHJ/dgfLHOtx8883SEfDhhx9KR1ANXRSsN954Q5HXtffs2aOYT7JESjUwMIDs7GyYTCZVnbMyGo1wOp1obm5GXFycdJxrmn12p6OjQ9GzApeDFsY6kDxdFKxXXnlFOsKX1NTUYPXq1dIxiBRrcnISlZWViI+PV905q7q6OnR0dCA9PV115yuDgoKQk5OD06dPo6ioSDqOKDWPdfCXd999VzqCami+YA0NDSluJk5RURE2b94sHYNIkdxuNw4fPoyVK1eisLBQOs6CFBUV4fTp08jJyVH9Q+0RERHYt28fn92BOsc6kDzNF6yuri7pCF+yefNm1X/zJfI1r9eL7u7uuR9mamKxWOByubBv3z5ERERIx/Gp2Wd3WltbpaOIUttYB5Kn6YI1MzOjuNEMRUVFHChK9AUjIyPYtWsXUlJSFHle8mpaW1vR1NSEhIQE6Sh+YzAYkJGRgampKdTU1EjHEaWmsQ4kS9MF68SJE9IRvoRbg0R/Mz09jdraWkRHRytuK/9aampqMDU1hYyMDJ8/b6NUwcHByMvLw/DwsO6f3VHDWAd/4ET5+dN0wVLa9mBFRQVXr4hwYZZOW1sbQkJCkJ+fLx1nQQoKCjA8PIy8vDzdvh0aFRU19+yOns9nKX2sgz8oddSIEmm2YM3MzChuECFXr4iA3t5erF+/HpmZmdJRFsRsNqOnpwdVVVUcDoy/PbvjcDjgcDik44jiWAe6HM0WLKVtD9bV1fn9MVciJRsdHcXevXuRlJSkunNWsyUiMTFROoriBAYGYsOGDZiYmND9szv+Huvw0Ucf+fz3XKhbbrlFOoJqaLZgKW17kI85k17NzMygvr4ekZGRKC8vl46zIBUVFZiYmMCGDRs4FPgaQkND+ezOX/lrrMOZM2d8+vuRf2myYClte5CrV6RHHo8H7e3tMJlMirvNey02mw2Dg4PYvXs3/+0uUFxcHJqbm9HR0aHrZ3f8Mdbhk08+8cnvsxRKeK5HLTRZsJS2PZiSkiIdgWhZnTx5ElarFWazWXXP23R1deHQoUO8kLIEAQEBSEtLw/Hjx3X/7I4vxzoo4UWD66+/XjqCamiyYClpe9BisfAbNenG+Pg4ysrKsGbNGkX8MFgIs9mMjo4OJCcnq+55G6UKDAzkszt/pZWxDtwqnz/NFSylbQ/y5iDpgdvtRlNTE8LDwxX1728hnE4ncnNzdXPdfjnNPrvjcrl0fT5rKWMdlDLUlAVr/jRXsN577z3pCJdISkqSjkDkN16vF52dnUhNTcWWLVuk4ywZr9v7V0JCApqamlR3i9TXFvN19vHHH/s51fxcd9110hFUQ3MF6+2335aOMKeiooJvDpJmDQ0NITs7GyaTSVXnrObD39ft9cxgMCA9PZ3P7mBhX2dKKfw33nijdATV0FzBOnbsmHSEOffff790BCKfm5ycRGVlJWJjY1V3zmqh/HXdni59dqegoEA6jqj5fJ1xRIP6aKpgTU5OoqGhQToGgAsHZmNjY6VjEPmM2+3G4cOHsXLlShQWFkrHWTb+uG5PfxMVFYWqqir09PTo+tmda32d/elPfxJI9WUrVqyQjqAamipYw8PD0hHmbNu2jTeRSBO8Xi+6u7vnPmXr1ex1+9raWsUcONaSxMREPruDK491eOeddwRTXWA0GnnIfQE0VbDeeust6Qhz7r33XukIREs2MjKCXbt2ISUlRfcHk2fl5+fPXbf3eDzScTTl4md3KioqpOOImh3r0NnZCa/Xq4j5jiaTSTqCqmiqYB09elQ6AoALU6A5/ZnUbHp6GrW1tYiOjkZ1dbV0HMWZvW5vtVpx8uRJ6TiaExoait27d2NwcBA2m006jhiXywWTyYTs7GxFfMD55je/KR1BVTRTsCYnJxXxBQgAa9eulY5AtCgejwdtbW0ICQlBfn6+dBzFs9vtWLNmDcrKyjA+Pi4dR3NiYmJw6NAh3T+7o5TLJFFRUdIRVEUzBUtJ56/uvvtu6QhEC9bb24v169cjMzNTOorqlJSUIDw8HE1NTRzr4GMXP7vT2NgoHUfXVq5cKR1BVTRTsJR0/mrVqlXSEYjmbXR0FHv37kVSUpJiVoHVasuWLcjKykJ3d7eqn0NRosDAQFitVoyNjaG0tFQ6ji7xoeeF0UzB+sMf/iAdAcCF4aIGg0E6BtE1zczMoL6+HpGRkSgvL5eOoxlOpxMpKSnYtm0bhoaGpONoTlhYGIqLi3HixAldP7sjISQkRDqCqmiiYHm9XsUcxOX2ICmdx+NBe3s7TCYTcnNzpeNoVkNDA2JjY1FbW4vp6WnpOJqzevXquWd39Hw+a7kUFBRw9NACaaJgTU1NSUeYc/vtt0tHILqikydPwmq1wmw2q+55m9bWVvT396tu6nd+fj5CQkLQ1tbGsQ4+NvvsTkdHB+rq6qTjaNo//dM/SUdQHU0UrA8//FA6AoAL09sjIiKkYxB9yfj4OMrKyrBmzRrF3Eiar5qaGkxNTSEjIwNxcXGqnfqdmZkJq9WKvr4+6SiaExQUhJycHJw+fVp1BVwt+LNt4TRRsN5//33pCACABx54QDoC0SXcbjeampoQHh6OkpIS6TgLUlBQgOHhYeTl5SE4OPiS/11iYiKOHDmC1tZWoXSLY7fbYTQasXfvXoyOjkrH0ZyIiAjVFnCl4xM5C6eJgqWUb1R8e5CUwuv1orOzE6mpqdiyZYt0nAUxm83o6elBVVXVVefuGAwGZGRkYGpqCjU1NcuYcOnKy8sRGRnJsQ5+otYCrmRhYWHSEVRHEwXr2LFj0hEAALfccot0BCIMDQ0hOzsbJpNJleesjhw5gsTExHn/Z4KDg5GXl4fh4WHVbQ9t2bIFqampc8+hkO+ouYArEW8QLsJ5lTt37tx5AIr49dlnn0n/cSy7jo4O8T/3EydOSP8xLEhLS4v4n5nSflVUVJyfmJhY8p/t559/fr6rq+u82WwW//9pob8sFsv5wcFBH3yF0eUMDg6et9ls4n/PavxVWloq/denSqpfwVLKDUKz2cxXxokWyGazYXBwELt37/bJ+50BAQFITk6Gw+GAw+HwQcLlY7fbERsbi8rKSkxOTkrH0ZzZZ3e6urp4PmuBkpKSpCOokuoLllJuEC5kS4NI78xmM7q6unDo0CHExMT4/PcPDAzEhg0bMDExgYqKCp///v5UWFiIlStX4vDhwxzr4GMXF/CWlhbpOKrB8UOLo/qCdfbsWekIAIA77rhDOgKRKsyuLiUnJ/t9cGFoaCh2796NwcFB2Gw2v/53+VpWVhbWr1+P3t5e6SiaExgYiI0bN/LZnXkwm80IDw+XjqFKLFg+EhkZKR2BSNFKS0sxNjaGDRs2LPt2+uz2UEdHh6qmfjudTiQlJWHHjh2KuS2tJbPP7vT39/PZnSt44IEHOMF9kVRfsD799FPpCAB4hZXoSiwWC/r7+1FcXCz67yQgIABpaWk4fvw4GhsbxXIsRnV1NSIjI1FfX4+ZmRnpOJoTFxeH5uZm1RXw5cDn3xZP9QXrj3/8o3QEALzCSvRFRqMRHR0daG5uRlxcnHScOYGBgbBararcHsrNzYXJZEJ7ezvHOvjYbAHnszuX+uY3vykdQbVUX7A++ugj6QiwWCwwGAzSMYgUo7GxEcePH0daWppitxfUuj3kcrlgNpuRnZ2NgYEB6Tiac/GzO0VFRdJxRNlsNgQFBUnHUC3VF6wzZ85IR8Df//3fS0cgUoTZc1ZWq1U1Y0vUuj1kt9sRHx+PsrIyjI+PS8fRnIiICOzbtw8ul0tVBdyXvvOd70hHUDXVF6yGhgbpCDx/RbpnsVjgcrnEz1ktlpq3h0pKShAeHo7Dhw/z2R0/SEhIQFNTky6f3YmPj5eOoGqqLlhK+WZy0003SUcgEmE0GuF0OtHU1ISEhATpOEum5u2hrKwsZGVlobu7m+ezfEyPz+4YjUasWrVKOoaqqbpgnTt3TjoCAODGG2+UjkC07Orq6tDR0YH09HTNnUFU6/aQ0+lESkoKdu3ahZGREek4mqPmdy8X6sEHH9Tcv+vlpuqCpZQRDTfffLN0BKJlU1RUhNOnTyMnJ0fzB2Bnt4ecTqeqzmdVV1cjOjoatbW1mJ6elo6jOVFRUaiqqtL0szuxsbHSEVRP1QVLKa6//nrpCER+Zzab4XK5sG/fPkREREjHWTYGgwHp6eno6OhQ3fZQfn4+QkJC0N7ezmd3/ECt717Ox6FDh1jOl4gFywdWrFghHYHIr1pbW3HkyBFNnLNarKCgINVuD5nNZlitVvT19UlH0Rw1v3t5NU6nE3v27GExXwIWLB+44YYbpCMQ+UVNTQ2mpqaQkZHB8xh/Nbs91NPTo6rtIbvdDqPRyLEOfnLxu5dqOrd3NQ0NDaipqeGliUViwfKBr3zlK9IRiHyqoKAAw8PDyMvLQ3BwsHQcRUpMTMSRI0dUd31/dqxDU1OTYm5ia0lMTAyam5tVd27vSgoLC3H06FHpGKqk6oL15z//WToCkaaYzWb09PSgqqoKUVFR0nEUT83X97ds2YLU1FSOdfCDgIAApKeno729XXXPMV1OVlYWent7pWOojqoLllLGNHz++efSEYiWbPawbmJionQU1Zm9vj84OAibzSYdZ95cLhdSUlKwbds2DA0NScfRnODgYBQXF+PEiROq2k6+nKSkJIyOjkrHUBVVFyyl+OSTT6QjEC1aRUUFJiYmsGHDBtU8b6NUMTExOHTokOqu7zc0NCA2NhaVlZW8OeYHq1evhsPhQEtLi3SUJXnkkUcwMzMjHUM1WLCIdMpms2FwcBC7d+9GaGiodBzNCAgIUO31/cLCQoSEhKCtrY23x3wsMDAQGzduxODgoKrK98WcTicef/xxfm3MEwsWkc6YzWZ0dXXh0KFDiImJkY6jWWq+vp+ZmYn169fz3I0fxMTEwOFwqPZsVnV1NV599VXpGKrAgkWkIy0tLXA4HEhOTkZAQIB0HF1Q6/V9p9OJpKQk7N27l2dvfCwwMBDFxcXo6OiQjrIomzZtwsDAgHQMxVN1wVLK/CledSalKy0txdjYGDZu3MhzVkJmr+93dHSo6vp+eXk5IiMjUV9fz/M3PpaWlobTp0+rqnjP2r17N3/2XYOqC5ZS5k/xi4yUymKxoL+/H8XFxQgLC5OOo3sBAQFIS0vD8ePH0djYKB1nQXJzc2EymdDZ2cmxDj4UERGBpqYmFBUVSUdZEKfTiZ/+9KfSMRRN1QVLKStYREpjNBrR0dGB5uZmxMXFScehLwgMDITVasXY2JiqzuK4XC6YTCZkZ2dzi8iHDAYDHn/8cdXNUissLOQ5vatgwfKBjz/+WDoC0ZzGxkYcP34caWlpPGelcGFhYSguLkZ/f7+qtonsdjvi4+NRWVmJyclJ6TiaYDAYsH37dtTV1UlHWZAf/vCH/Bq4AlUXLKW8jcZ3vUgpampqYLVaec5KZeLi4vDkk09Kx1iwwsJCrFy5EocPH+ZRCR8ICAhATk6OquZluVwulJeXc9v4MliwfOCDDz6QjkAEQDmvG5C+ZGVl8TkVH9q4caOqbhhWV1fjl7/8pXQMxVF1wQKgiIFtJ06ckI5ARCRqdqzDjh07MDIyIh1H9dLS0uByuaRjzFtmZiZ3c75A9QXrlltukY4Ap9PJybZERLiwmhEdHY3a2lqOdViihIQE9Pf3q2asx9NPPy0dQVFUX7BWrFghHQEA8Nlnn0lHICJSjPz8fJhMJrS3t/MD6BLExcXBbreromSVl5ejr69POoZiqL5g3XzzzdIRAPAmIRHRF7lcLpjNZlitVpw8eVI6jmpFRUXhtddeU8SRmGs5ePAgLzz8leoLVlRUlHQEAOAL9EREV2C327FmzRqUlZXxnM4ihYaGoqmpSfEly263w+l0SsdQBNUXrG984xvSEQAAZ8+elY5ARKRoJSUlCA8Px8svv8xVjkUIDQ3Fc889p/jtwqysLM7GggYK1sqVK6UjAACGh4elIxARqcKmTZuQlZWF7u5uzk9aoLCwMNjtdukY16S2gan+oPqCpZQzWEePHpWOQESkGk6nEykpKdi2bRvHOixQVFSU4scDlZSU6P7cneoLVkhIiHQEABe+WfBKMhHRwjQ0NMyNdeBZ1vlbvXq14oeR7t+/X9crlKovWAEBAbDZbNIxAADvvfeedAQiIlXKz89HSEgI2traONZhntLS0hT9rI7dbscbb7whHUOM6gsWANx5553SEQAAo6Oj0hGIiFQtMzMTVquV85Tm6aGHHkJBQYF0jCuqqanR7SqWJgpWWFiYdAQA4DtcRKRIRqMRFotFOsa8zQ7W3Lt3Lz+4XkNAQAD+8z//U7HjG/S8isWC5UN8UZyIlGjNmjVoamqC0+lU/BX/i5WXlyMyMhJNTU0c63AVQUFBqKqqko5xRXpdxdJEwQoODpaOMGdsbEw6AhHRlxgMBqSnp6Ojo0N1V+i3bNmC1NRUdHZ26vIH9XzExMQodsCnXlexNFGwVq1aJR1hzqlTp6QjEBFdUVBQEHJycnD69GlFn935IpfLBZPJhOzsbAwNDUnHUaT09HRUVFRIx7gsPa5iaaJgGQwGxXyj+N3vficdgYjomiIiIlBVVYWenh7Fnt+5HLvdjtjYWFRWVnJa+GXk5uYqchtYj6tYmihYAHDPPfdIRwAAFBYW8qwAEalGYmIijhw5gtbWVukoC1JYWIiVK1dyrMMXBAUF4ZlnnpGOcVl6W8XSTMG6/fbbpSPMeffdd6UjEBHNm8FgQEZGBqamplBTUyMdZ0EyMzOxfv163uK+SEJCgiK3CvW2iqWZghURESEdYU53d7d0BCKiBQsODkZeXh4GBwcVM8B5PpxOJ5KSkrBjxw6OdfgrpW4VtrW1SUdYNpopWKGhoYo5R/Diiy/qahmUiLQlJiYGhw4dQldXl2K+r85HdXU1IiMjUV9fr/uny5S6VVheXo7x8XHpGMtCMwULANauXSsdAcCF2y6Dg4PSMYiIFi0gIADJyclwOByKfo7lcnJzc2EymdDe3q7rD7sJCQkoKiqSjvElXV1d0hGWhaYK1t133y0dYc7//M//SEcgIlqywMBAbNy4EWNjYygtLZWOM28ulwtmsxnZ2dkYGBiQjiPmkUcekY7wJVVVVboovpoqWLfccot0hDl62SZcsWKFdAScPXtWOgKR5oWFhaG4uBj9/f2qe3YnPj4eZWVlutmaulhERITiBsu6XC68+eab0jH8TlMFa9WqVYo51Od0OnUx1f3mm2+WjoD9+/fr/rwF0XKJi4tDc3MzOjo6FPP9dj5KSkoQHh6Ow4cP626UjsViUdzf1auvviodwe80VbAMBgMefPBB6Rhz2tvbpSP43de//nXpCHA6nTCZTHxGg2iZBAQEIC0tTZXP7mRlZSErK0tXt72DgoJQXFwsHeMS5eXlmh8Uq6mCBSjnoDtw4aCl1j8pBQUFSUcAcOkzGno+b0G0nC5+dkeJh6mvxOl0IiUlBWVlZbpZ/b7//vsVt7X7m9/8RjqCX2muYH3zm9+UjnCJzs5O6Qh+p6TBhBeft9D6pyMipYiIiMC+ffvmDparRUlJCSwWiy7eNgwICEB+fr50jEs8+eSTmt510FzBCgoKUtRNl5aWFk1/AQHAunXrpCN8SUlJCVauXKnL8xZEUhISElT37I7T6URsbKwuBmDec889ilrFcrlc6O/vl47hN5orWACQlJQkHWGO3W7X/G2J2267TVH/aC928XkLrRddIiVQ67M7mZmZmn9uJyAgAJs3b5aOcQkt/3zUZMH653/+Z+kIl9D6bQkl/qO92Ox5i23btuliK4BICWaf3RkeHkZBQYF0nHlJSkrS/FM7ycnJirpR+Mwzz2j2w68mC1ZwcLCi/kGXl5dr/h/t2rVrFf92WUNDA2JjY1FZWcnzWUTLJCoqCgcOHFDNszuPPPKIpg++BwYGKupGocvlwunTp6Vj+IUmCxYAfOc735GOcAmtj2wwGAx44oknFPXJ6EoKCwvnzmd5PB7pOESad/GzOw6HQzrOVTmdTrz++uvSMfwqLS1NUd+rtbpNqNmCddddd0lHuMRzzz2n+VWTsLAwPPXUU9Ix5i0rKwvr16/X/LkLIqUIDAzEhg0bMDExoajLSF/05JNPavpyTGBgILZv3y4dY86vfvUr6Qh+odmCFRYWpqhtQpfLhaNHj0rH8LvExETV3SBKSkrCjh07MDIyIh2HSBdCQ0MV/eyOy+XS/Aevb6RWp30AACAASURBVH3rW9IR5jQ0NGjyGSPNFiwAWL9+vXSES+Tm5mr+LBYAZGRkoL+/XxXnLWZVV1cjOjoatbW1mJ6elo5DpAtKfnbnueee0+zha+DC7DIlLUL84Q9/kI7gc5ouWAkJCYr7R/vss89KR1gWs984lfQPeD7y8/MREhKCtrY2ns8iWgazz+4cP34cjY2N0nHm2O12TE1NScfwq4ceekg6whwtDuXWdMEKDAzE97//fekYlygvL9fNqIDg4GAcOHBAkZ9OryUzM5Pns4iWUWBgIKxWK06fPq2YbcMPP/xQOoJf3X333Yr53lxeXq6525uaLlgAkJKSIh3hS5544glNLz1fTKmfTudj9nzW3r17dbG1S6QEERER+MlPfiIdAwDwpz/9STqCXxkMBuzYsUM6xpz33ntPOoJPab5gxcTEKObT0Cy73Y433nhDOsaymv10OjY2pujbQ5dTXl6OyMhI1NfXa+4TFpESrVixQjoCAOD999+XjuB39913n3SEOf/7v/8rHcGnNF+wAChumxC48ECylq8BX0lYWBiKi4vhcrkUV3yvJTc3FyaTCe3t7TyfRaQDWt8iBIDw8HDFXEj67//+b+kIPqWLgqWUPeaL2e12OJ1O6RhiEhIS0NTUBKfTqci/nytxuVwwm82wWq3o6+uTjkNEtCQBAQF4+OGHpWMAuLBboKUPr7ooWEFBQYp8dDQrK0vXZ3sMBgPS09PR0dGBuro66TgLYrfbYTQaeT6LiFRPSYO5x8bGpCP4jC4KFgCsW7dOOsJl/ehHP9JUY1+MoKAg5OTk4PTp06ob6zB7PqupqUmXW75EpH6xsbGK2UnQ0kF33RSsmJgYFBUVScf4ErvdjldffVU6hiJERESgqqoKPT09ijkTMF9btmxBamoqOjs7dXNDlIi0QUnbhG+//bZ0BJ/RTcECgM2bN0tHuKxNmzZhYGBAOoZiJCYm4siRI6p6cge4cD7LZDIhOzubf59EpCrJycnSEQBAU2eTdVWwlLqKBQA//vGPucV0EYPBgIyMDExNTSny/NzV2O12xMfHo6ysTJPvaxGR9tx6663SEQBcKFiTk5PSMXxCVwULUO4qlt1uR3Nzs3QMxQkODkZeXh6Gh4dhs9mk4yxISUkJwsPDeT6LiBQvODhYMUczPvjgA+kIPqG7gqXkVazc3FycPHlSOoYiRUVF4dChQ+jq6lLMN4H5mj2f1d3dzfNZRKRYDzzwgHQEANDMzWzdFSxAuatYAGCz2TSzPOprAQEBSE5OhsPhgMPhkI6zIC6XCykpKdi2bRveeust6ThERF9y5513SkcAwBUsVVPyKpbL5cJjjz3GLaWrCAwMxIYNGzAxMYGKigrpOAvS0NCA8vJy6RhERF8SHR0tHQEA8Ic//EE6gk/osmAByl7FamhowMGDB7mddA2hoaHYvXs3+vv7VffsDhGR0oSGhiriCEZ1dbV0BJ/QbcGKiYlR9FDLkpISvPLKK9IxVCEuLg7Nzc3o6OhQzLA8IiI1Wrt2rXQEAMD09LR0hCXTbcECgLy8POkIV7Vp0yb09vZKx1CFgIAApKWl4fjx42hsbJSOQ0SkSrGxsdIRAAAff/yxdIQl03XBioqKUvwbeElJSRgZGZGOoRqBgYGwWq0YGxtDaWmpdBwiIlX5h3/4B+kIAICJiQnpCEum64IFABaLRfHbSj/4wQ80sVy6nMLCwlBcXIwTJ07wfBYR0TyFhYVJRwAAnDlzRjrCkum+YAUFBSn+VpfT6cSePXswMzMjHUV1Vq9ejaamJjidTsUXaSIiaSEhIdIRAACnTp2SjrBkui9YAJCamqr4VY6Ghgbs2rWLJWsRDAYD0tPT0dHRofgtYSIiSQaDQRE/D7VwNIYFCxcOSD/xxBPSMa6JJWtpgoKCkJOTg9OnTyt2DhoRkbSkpCTpCBgaGpKOsGQsWH8VExOjiqGVsyWL094XLyIiAvv27UNPT48iZr4QESnJihUrpCPA6XRKR1gyFqyLbN68WRXndBoaGmC1WlmyligxMRFHjhxBa2urdBQiIsUIDQ2VjgAAqn/RhAXrIqGhoaq52u90OlmyfMBgMCAjIwNTU1OoqamRjkNEJO6mm26SjgAA+Pzzz6UjLAkL1hd8+9vfZsnSoeDgYOTl5WF4eFjRE/6JiPztxhtvlI4AQP3DRlmwviAgIACPPvqoKrYKgQsl69///d8xMDAgHUUToqKicODAAXR1danyfNbPf/5ztLe3w+PxSEehBZicnMTPfvYz6RhEAJRTsNSOBesygoOD0dDQIB1j3lwuF+Lj49HW1iYdRRMCAgKQnJwMh8MBh8MhHWdBXC4XzGYzrFYr+vr6pOPQNbjdbhw+fBgrV65EYWGhdBwiAMDXvvY16QgAgI8++kg6wpKwYF3B6tWrVTczKTMzE5WVlVy98JHAwEBs2LABExMTqrhhejG73Q6j0Yi9e/didHRUOg5dRnd3N7KyspCVlSUdhegSQUFB0hEAAH/5y1+kIywJC9ZVbN68WRED1xaisLAQeXl5PJflQ6Ghodi9ezcGBwdV9/VQXl6OyMhI1NfXc36aQoyMjGDHjh1ISUnRxFV0In85e/asdIQlYcG6CoPBgCeffFI6xoI1NDTwXJYfxMTEoLm5GR0dHao5ozcrNzcXJpMJnZ2d8Hq90nF0aXp6GrW1tYiOjkZ1dbV0HCLyMxasa4iIiFDlnKSLz2XxB6rvBAQEIC0tDcePH0djY6N0nAVxuVwwmUzIzs5m+V5GHo8HbW1tCAkJQX5+vnQcIlomLFjzcP/996tmdMMXZWZmYteuXRgfH5eOoimBgYGwWq0YGxtT3deG3W5HfHw8ysrK+HXhZ319fbBarcjMzJSOQrQgNptNOoLqsWDNQ0BAAH74wx+q7vzNrOrqaoSHh6O9vZ2rWT4WFhaG4uJinDhxQnVfHyUlJQgPD0dTU5PqJyYrzejoKPbu3Quj0Qi73S4dh4gEsGDNU1BQEA4ePKi6szcXM5vNXM3yk9WrV6OpqQlOp1N1XyNbtmxBamoqz2f5gNvtRn19PSIjI1FeXi4dh4gEsWAtQFhYmOrO3XzR7GrW4cOHOc7BxwwGA9LT09HR0aG6ER8Xn8/Swiv2y83r9aKzsxOpqanIzc2VjkNECsCCtUBxcXGauFqdlZUFq9WKkZER6SiaExQUhJycHJw+fRpFRUXScRbEbrcjNjYWlZWVHPUxTwMDA8jOzobJZILL5ZKOQ+QTn3zyiXQE1WPBWoT09HTVrVBcjt1uR3R0NM/g+ElERAT27duHnp4e1T27U1hYiJUrV+Lw4cP82riC8fFxlJWVIT4+nuesSHP4Nb10LFiLtHXrVtWtTlwJz+D4V2JiIo4cOaLKcR+zk8a7u7v5tfFXs8/bhIeHo6SkRDoOESkUC9YiBQQEYM+ePaq7OXYlnJHkXwaDARkZGZiamkJNTY10nAVxOp1ISUnBtm3bdH0+y+v18nkb0gWez/UNFqwlCAoKUuWk96vhjCT/Cg4ORl5eHoaHh1FQUCAdZ0EaGhrmzmdNT09Lx1lWQ0ND2LZtG5+3IV1QSsEKDAyUjrAkLFhL9Oc//1k6gl/MzkjiGRz/iIqKwoEDB9DV1aXK81khISFoa2tTzDdif5l93iY2NhYNDQ3ScYh0hQVL59555x3pCH7FMzj+ExAQgOTkZDgcDjgcDuk4C5aZmYn169ejt7dXOorP8Xkb0rNPP/1UOgIA4Oabb5aOsCQsWEvU1tYmHcHveAbHvwIDA7FhwwZMTEygoqJCOs6COJ1OJCUlYceOHZoZ+dHb24v169fzeZv/3979B8Vd3/kDf36PdHBom/ZASQqGNKDChVjR4aMDdoAUtGxHGFMwt4lxXCa3cJpCN5fAualw7ZKGDIkHwowccBk2IxLMEZMDO4u6XICpMHWZNEyIA1XWgC49aLLqTm/v9no7fv+w0MT8YmF3358fz8dMZjQ1ybPJhn3u+/36vN+kWZ9++qnoCACAb3zjG6IjrAoL1ip4PB5NbRtcPYPDM5KCLzY2FpWVlZicnFTcPWCNjY1ISkpCc3OzYuezZmdnsXfvXmRmZnLOijTN4/GIjgAAuOOOO0RHWBUWrFX46KOPREcQYvGMJC3M4IiQnJyMlpYW2O12xV27U1FRobj5LI/Hs3S9TWNjo+g4RMJdvnxZdAQAnMHStN/85jeiIwil5hkc0SIiIpCbm4vBwUFFXs9UWFgIg8GAsbEx0VFuyufzob+/H3l5ebzehugqv//970VHUMURSCxYq3DmzBnREYRT4wyOnERFRcFgMMDlcsFisYiOE5Du7m5IkoQDBw5gdnZWdJxrjI+Pw2AwQKfT8Xoboq+4dOmS6AhYv3696AirxoK1QrOzs5zTuIoaZnDkLC4uDtXV1ZiYmFDcJ7u6ujps3LgRbW1twmc7Fq+3SUtL41UgRDchh/GXuLg40RFWjQVrhT744APREWSpoqIC+fn56O/vV8wMjpKkpqbCarXCZrMpbj6rrKwMeXl5Ql4bXq8XVquV19sQ3YbP55PFh4+7775bdIRVY8FaoXPnzomOIFsOhwM6nU72MzhKFRkZifz8fNjtdsVdOh7u14bf78fAwABycnJQUlIS8l+PSOnm5+dFRwCg/CMaABasFfH5fKiqqhIdQ/bkPIOjBmvXrkVpaSlmZmYUd/H41a+NUF3JtHi9TV5eHuesiJbJ5XKJjgAA+M53viM6wqqxYK2AHAYAleTqGRxeuxN8CQkJOHTo0NLqkJLU1dUhPj4eVqs1aK+NhYUFHDlyhNfbEK2AXA6T5gyWRnF7cGXKysqQk5ODgYEBXrsTAunp6Th9+jR6e3tFRwlYSUnJql8bXq8Xp06dwrp16xS3wmw0GvnQDMnC+Pi46AgAgJiYGNERVo0FawUuXLggOoJiORwO5OXlYdeuXbh48aLoOKoTGRmJgoICXLlyBU1NTaLjBGQ1r43R0dGlezOVRKfTYWhoCC0tLdi8ebPoOKRxfr9fFoft6vV6REZGio6xaixYK2C320VHULzu7m5s2bIFtbW1IZvB0bLo6GiUl5djenoaJpNJdJyABPLacDqdir3eZvGS76ysLERERIiOQySbAfetW7eKjhAULFgB8ng8HJgNopqaGsTHx+PEiROczwqBxMRENDQ0YGhoSHHzWYuvjRvNZ7ndbjQ3NyMpKUkWn7gDUV9fj/n5eRQVFSn+KhBSlw8//FB0BABfzpWqAQtWgORyR5Pa7Ny5E8XFxRgeHuZ8VghkZWUtrZgoTUlJydJrw+v1or+/HzExMaioqBAdLSB6vR4TExOorKxEbGys6DhE15HL9W8bNmwQHSEoWLACJJclVDWy2WzIzs7Gc889J5snWdQkKioKRUVFmJ+fR319veg4AVl8bXz9619X3EqcJEmw2+3o7OxEamqq6DhEN+T3+/Fv//ZvomMAAO666y7REYKCBStAnBcKvfb2dqSkpODIkSNYWFgQHUd1YmNjUVlZicnJSRiNRtFxVK2jowODg4PIzc3lnBXJmsvlks34ixqeIARYsAL2/vvvi46gGVVVVVi3bh1OnTrFa3dCIDk5GS0tLbDb7Yq7dkfuLBYLXC4XDAYD56xIEeTy3mYymVTzYYQFK0Cjo6OiI2hOcXExtm3bxt/7EIiIiEBubi4GBwfR0dEhOo7i6fV6OBwOVFdXq+KgRNKO4eFh0REAAA8//LDoCEHDghUAr9eruEfB1cJmsyEzMxN79+6F0+kUHUd1oqKiYDAY4HK5YLFYRMdRHEmSYLPZYLVakZ6eLjoOUUC8Xi/q6upExwAAVZ0Hx4IVgP/8z/8UHUHzGhsbkZSUhObmZrjdbtFxVCcuLg7V1dWYmJiAXq8XHUcRWltbYbfbkZ+fr4rDEUl75LI9CACbNm0SHSFoWLACIJcnCFtbWzX/5ldRUYGYmBj09/dzPisEUlNTYbVaYbPZOJ91EyaTCTMzMygtLcXatWtFxyFasbNnz4qOAODLK6PU9HeJBSsAcnmC8NFHH11689M6nU4Hg8GAsbEx0VFUJzIyEvn5+bDb7WhtbRUdRzZ0Oh1GRkbQ0NCgmgMRSbu8Xq9s7u5Uywnui1iwAiCXZdS77rpr6c1PiWcaBVt3dzckScKBAwcwOzsrOo7qrF27FqWlpZiZmYHZbBYdR6je3l6cPn0aGRkZoqMQBYVcLncG1DV/BbBgBeTjjz8WHQEA8K1vfWvpnxfPNOLMDFBXV4eNGzeira0NHo9HdBzVSUhIwKFDh+BwOBR32OdqNTU14cqVKygoKOCcFamKnO7WVdP8FcCCFZDz58+LjgCdTnfDL/Cpqano7OzkmUYAysrKkJeXh4GBAV67EwLp6ek4ffo0ent7RUcJOZPJhOnpaZSXlyM6Olp0HKKg8ng8qKmpER0DgPrmrwAWrIDI4ZTbtLS0m/5vPNPoLxwOB/Ly8rBr1y5cvHhRdBzViYyMREFBAa5cuYKmpibRcYJOp9NhaGgIR48eRWJioug4RCExMjIiOsIStc1fASxYyyaXJ9Xuu+++2/43PNPoL7q7u7FlyxbU1tbK5iEFNYmOjkZ5eTmmp6dhMplExwmKxUuxs7KyVHOiNNFX+f1+HD9+XHSMJd/73vdERwg6FqxlkkvBWr9+/bL/28Uzjc6fP6/5+ayamhrEx8fDarXC6/WKjqM6iYmJaGhoQFdXl+goK1ZfX4/5+XkUFRXxehtSvd/+9rfo7u4WHQPAlwf1pqSkiI4RdCxYy/R///d/oiMAAO68886Af8wDDzzAM43+rKSkBDk5ORgeHuZ8VhB5vV6cOnUKO3fuFB0lYHq9HpOTk6isrERsbKzoOERh8cYbb4iOsOT5559X5WoxC9Yy/fGPfxQdAQDwta99bUU/jmca/YXD4UB2djaee+45TE1NiY6jaH6/H8PDwyguLkZxcbHoOAGRJAl2ux2dnZ1ITk4WHYcobJxOp2yuxgGg2g/+LFgK881vfnNVP55nGv1Fe3s7UlJScOTIESwsLIiOozhOpxPPPfccsrOzFXfobUdHBwYHB5Gbm6vKT85EtyKnoxnUuj0IsGAt26effio6AgBgzZo1Qfl5tHym0VdVVVVh3bp1OHXqFOezlsHtdqO5uRlJSUlob28XHScgFosFLpcLBoOBc1akSQsLCygrKxMdY8kzzzyj2g85LFgap6UzjW5ncZtrdHRUdBRZ8vl86OvrQ0xMDCoqKkTHCYher8f58+dRXV2NuLg40XGIhDlz5ozoCNfIysoSHSFkWLCW6fPPPxcdAQBwxx13BP3nVPuZRoGw2WzIzMzE3r174XQ6RceRjdHRUWzbtg2FhYWiowREkiTYbDZYrVY88MADouMQCSW31Ss1bw8CLFjL9qc//Ul0BAChKViL1Him0Uo1NjYiKSkJzc3NcLvdouMIMzs7iwMHDiAzM1Nxc1atra2w2+3Iz8/n9TZEkN/q1TPPPKPqv5ssWMukpdmcxTONRkZGND+fVVFRgZiYGPT19cnmLLRw8Hg8aGtrw8aNG2X1tNFymM1mzMzMoLS0VHVXbxCtlNxWrwB1bw8CLFjLJpdjGsIpIyNj6VRrrSssLITBYMDY2JjoKCHl9/vR39+PvLw82X0xvh2dToeRkREcOnQICQkJouMQyYrcVq90Oh22bNkiOkZIsWDRLUVFRaGoqAjz8/Oor68XHUeo7u5uSJKEAwcOYHZ2VnScoLt48SJ27doFnU4ni3s3A9Hb24vTp08jIyNDdBQi2ZmdnZXdB6bnnntOtU8PLmLBWiatn/AcGxuLyspKTE5Owmg0io4jVF1dHTZu3Ii2tjZ4PB7RcVZtbm4OtbW12LJli2yuzliupqYmXLlyBQUFBaqe5SBaKb/fj3/5l38RHeM62dnZoiOEHAsWBSQ5ORktLS0YGhrS/HxWWVkZ8vLy0N/fr8j5LK/XC6vVivj4eNTU1IiOExCTyYTp6WmUl5cjOjpadBwi2XrvvfdkN0fZ2tqqiflIFqxlksuhhHKYBYuIiEBWVhZ6enrQ0dEhOo5Qiwe1GgwGXLx4UXScZbn6epuSkhLRcQKi0+kwNDSEhoYGJCYmio5DJGterxc//elPRce4Tl5enugIYcGCtUxyKVhyuXQa+PL3xGAwwOVywWKxiI4jVHd3N7Zs2YLa2lrMzc2JjnNTU1NTir3eZvGBC7U/eUQULCdPnpTdPKXZbNbMhyMWrGUK1hU1ahQXF4fq6mpMTExAr9eLjiNUTU0N4uPjYbVaZXW0h9vtxpEjR5CSkqK4623q6+sxPz+PoqIi2XzQIZK72dlZWa5Q//jHPxYdIWxYsJZptZcsB8t///d/i45wU6mpqejs7ITdblft7ejLVVJSgpycHAwMDMDv9wvLcfX1NlVVVcJyrITRaMTk5CQqKys1/5AJUSB8Ph8OHjwoOsZ19Ho9HnzwQdExwoYFS2H+53/+R3SEW4qIiEBubi4GBwc5n+VwIC8vD8899xympqbC/usr+Xobu92OlpYWJCcni45DpDhvvPGGLFeqd+7cqfqjGa7GgrVM3/jGN0RHACCfK3tuZ3E+a2ZmBmazWXQcodrb25GSkoIjR45gYWEh5L+e0+nE3r17FXm9TUdHBwYHB5Gbm6upL8REwTI+Po6dO3eKjnEdSZKQm5srOkZYsWAtk1xmsC5fviw6QkASEhJw6NAhOBwOzc9nVVVVYd26dTh16lRI5rMWr7dJSkpCY2Nj0H/+ULJYLHC5XDAYDJyzIlohj8cj2w+01dXVmvu7zYK1THIpWEo9QTw9PR1WqxU2m03z81nFxcUoLi7G8PBwUH4+n8+n2Ott9Ho9JiYmUF1djbi4ONFxiBTt5ZdfluWqtRZXrwAWrGWTS/O+dOmS6AgrFhkZifz8fNjtdrS2toqOI5TNZkN2djb27t0Lp9O54p9nfHwcBoNBcdfbSJIEm80Gq9WK1NRU0XGIFK+/v1+2BwZrcfUKYMFSnPPnz4uOsGpr165FaWkppqenYTKZRMcRqrGxEUlJSWhubobb7V72j1u83iYtLU1x19u0trbCbrcjPz+f19sQBcHY2Jhsb9bQ6uoVwIIVEDnMENlsNlmdr7QaiYmJaGhowMjIiGy/OIRLRUUFYmJi0NfXd8trd5R8vY3ZbMbMzAxKS0s1cU0GUTg4nU5Zj128/PLLmly9AliwApKZmSk6AgDgs88+Ex0hqDIyMnD69Gn09vaKjiJcYWEhtm3bhrGxsWu+3+/3Y2BgADk5ObI8PPBWFrcvDx06hISEBNFxiFRjYWFBFh/8b0av1+Phhx8WHUMYeUxuK8R3v/td0REAAJ9++qnqBoIjIyNRUFCAK1eu4LXXXkNFRYXoSMLYbDbYbDaYzealpfXXX39dlufa3E5vby8ef/xxbgUSBZnH48GLL74o69nLiooKTR+3whWsANx5552iIwAAPv74Y9ERQiY6Ohrl5eWYnp6G0WgUHUeouro65OXlIS8vT3HlqqmpCVeuXEFBQQHLFVGQ+Xw+HD58WNZfF7S+egWwYAVk3bp1oiMAAD744APREUIuMTERLS0tGBoa0vx8lpKYTCZMT0+jvLwc0dHRouMQqY7f70dbWxvq6upER7mlffv2aXr1CmDBCsj69etFRwAAWZ5zEgoRERHIyspCT08Penp6RMehW9DpdBgZGUFDQwMSExNFxyFSrZMnT8p+hMJisSA9PV10DOFYsAIQFRUli6c1bDZbWK5ckYuoqCgUFRVhfn4e9fX1ouPQVywW4IyMDNFRiFRtYGBAltfgXE2SJOzZs0d0DFlgwQpQXl6e6AgAlHui+2rExsaisrISk5OTsn5yRivq6+sxPz+PoqIizT6GTRQu4+Pjsnn/uZWjR49yPODPWLACdN9994mOAEAbc1g3k5ycjM7OTtjtdlmsKGqN0WjE5OQkKisrERsbKzoOkepNTU0p4qEfs9mMRx99VHQM2WDBCpBc5kvee+890RGEioiIQG5uLgYHB9HR0SE6jiZIkoShoSG0tLQgOTlZdBzVGR8fFx2BZGh0dBQpKSmyPo5hkclk0vxg+9VYsAIUExMjOgKAL69YudWJ31oRFRUFg8EAl8sFi8UiOo5qdXR0YHBwEFlZWfwCGmR+vx/Dw8Oora0VHYVk5tSpU7I54Pp2bDYbV7S/ggUrQHfddZfoCEuUfPFzsMXFxaG6uhoTExOczwoii8UCl8sFg8HAOasQcDqd2L9/P7KzsxWxQkHh4fP50NzcjOLiYtFRlsVkMuGxxx4THUN2WLACJJcVLAA4d+6c6Aiyk5qaCqvVCpvNxvmsVdDr9ZiYmEB1dbXqbg2QA7fbjebmZiQlJaGxsVF0HJIRj8eDX/ziF7I/iuFqe/fu5cr2DbBgBSgiIgImk0l0DADg3X03ERkZifz8fNjtdrS2toqOoyiSJMFms6GzsxOpqami46iOz+dDX18fYmJiFPUGSuGxsLCAsrIy2R8ierWenh7eMXoTLFgrIJfj/7u7uzV5XMNyrV27FqWlpZiZmYHZbBYdR/ZaW1tht9uRn5/PT6MhMDo6im3btqGwsFB0FJKhqakpPPHEE+ju7hYdZdn0ej2eeOIJ0TFkiwVrBb73ve+JjrDk/fffFx1B9hISEnDo0CE4HA7OZ92A2WzGzMwMSktLsXbtWtFxVGd2dhYHDhxAZmamZm5hoMAo6UnBq/3yl7/kXaO3wIK1Avfcc4/oCEveeOMN0REUIz09HVarlVurf6bX6+FwOHDo0CEu8YeAx+NBW1sbNm7cqKgtHwovJT0peLXe3l7ZHFskVyxYKxAZGSmbLaf29nZNXZuzWpGRkSgoKMCVK1fQ1NQkOo4wNpsNVquV94WFgM/nQ39/P/Ly8lBWViY6DsmU1+vFkSNHFPOk4NXq6+vxox/9SHQM2WPBWqGsrCzREZZcuHBBdATFiY6ORnl5Oaanp2Xz0EI4wC7j6AAAHzBJREFUNDU14cqVK8jPz+fSfgiMj4/DYDBAp9MpbruHwmd8fBzFxcWoqqoSHSVgRqMRe/bs4ZzmMrBgrdDmzZtFR1jy5ptvio6gWImJiWhoaMDIyAh0Op3oOCFjMpkwPT2N8vJy3hMWAnNzc6itrUVaWpqihpQpvHw+H06cOIG0tDRFzuNJkoSf//znPBNvmViwVig+Pl425yw1NjZibm5OdAxFy8jIwOnTp9HT0yM6SlDpdDqMjIygoaGB8xIh4PV6YbVaER8fj5qaGtFxSMacTicMBgN27twpOsqKtbe381y8ALBgrVBERASeeuop0TGWvP3226IjKF5kZCSKioowPz+P+vp60XFWraenB6dPn0ZGRoboKKrj9/sxMDCAnJwclJSUiI5DMub1enHixAkkJSUpenWzt7cXDzzwgOgYisKCtQqPPPKI6AhLXnnlFXi9XtExVCE2NhaVlZWYnJxUxA32X1VfX4/5+XkUFRVxzioEpqamsGvXLuTl5XHOim5pdHQUxcXFil61AjjUvlIsWKuQkpIiOsISh8OBsbEx0TFUJTk5GS0tLRgaGlLEfJbRaMTk5CQqKyt56WoILCws4MiRI0hJSVH0SgSF3tzcnGrOPuNQ+8qxYK1CbGysrN54Ozs7RUdQnYiICGRlZaGnpwddXV2i49yQTqfD0NAQWlpakJycLDqO6ni9Xpw6dQrr1q1T5FNfFD4ej2dpJk8NZ59xqH11WLBWafv27aIjLGlvb8fU1JToGKoUFRWFHTt2wOVywWKxiI6zpKOjAz09PcjKyuInzCDz+/0YHh5GcXGxIs8qovDxeDw4ceIEvvWtb6lqJo9D7avDgrVKDz74oOgI1xgaGhIdQdXi4uJQXV2NiYkJodfuWCwWuFwuGAwGfroMAafTif379yM7O1vxWzwAsGHDBtERVOnqYqX0Oauv4lD76rFgrdKWLVtkc1wDAJSVlfFk9zBITU1FZ2cn7HZ7WP/89Xo9JiYmUF1dzU+WIeB2u9Hc3IykpCQ0NjaKjhM0LFjB5Xa7VVusAKCrqwsFBQWiYygeC9YqRUREYO/evaJjXOPMmTOiI2hCREQEcnNzMTg4iI6OjpD+WpIkwW63o7OzE6mpqSH9tbTI5/Ohr68PMTExqKioEB0n6NavXy86QkA+++wz0RGu4/f7MT4+jtraWsTExKiyWAFflqsdO3aIjqEKLFhBkJ2dLTrCNbiKFV5RUVEwGAyYmZkJyR2Vra2tsNvtyM3N5ZxVCIyOjmLbtm0oLCwUHSVk7rzzTtERFMvj8aC/vx+7du1CWlqaqg+UZbkKsi8oKEwm0xcAZPOttbVV9G+JZjkcji/0ev2q/wzNZvMXMzMzov/vqNbMzMwXZrNZ+N/VUH+TJOmL//qv/xL92x2QyclJ4b9vi793ojOE61tXV5foP3bV+X9ffPHFF6BVGx0dRWZmpugY13C5XJzTEcTv92NiYgKvv/56wI9rt7a2Ii8vj1fbhIjH40F3dzfKyspERwmLjo4OGAwG0TECMj4+jrS0NNExNIMrV6HBghUkXq8XOTk5sjrZ2Ww249ChQ6JjaN7c3ByGhobwySef3PAcJZ1Oh61bt+L+++9HZmYm1q5dKyCl+vl8Ppw9exY1NTWy+nsaavPz84o7eJYFK3xYrkKHBSuIrFar7M5AmZyc5OGTMuP3++FyubBmzRquMIbJ+Pg4Dh8+rLkT2JX6IWtgYAB5eXmiY6gey1Voccg9iLKyskRHuM7x48dFR6CviIiIQEJCAstVGMzNzaG2thZpaWmaK1eSJGH//v2iY5BMsVyFHgtWECUmJsrucuC6ujqMjo6KjkEUVl6vd+nKEjU/9XUr7e3tiI6OFh1jReR4TIOasFyFBwtWkP3t3/6t6AjX+elPfwqPxyM6BlHI+f1+DAwMICcnR3bb9eGk9FO4//d//1d0BNXq7e1luQoTFqwgy8jIEB3hOg6Hg1uFpHpTU1PYtWsX8vLyNDXE/lVdXV340Y9+JDrGqnz44YeiI6iOJEmYmJjgCe1hxIIVZFFRUWhtbRUd4zoVFRUYHx8XHYMo6BYWFnDkyBGkpKRobs7qapIkweFwYMeOHYo/kJZjDcFlNBrx5ptv8haIMONThCEwNTWFlJQU0TGuo9frcezYMV4OTKrg9Xphs9lQXFwsOopwJpMJZrNZcccx3IjX68XXv/510TFUw2KxYN++ffy6LwBXsEIgOTk5JFemrFZ3dzdOnjwpOgbRqvj9fgwPD6O4uFjz5WrxjsqjR4+qolwBwOXLl0VHUI2enh4cOHCA5UoQrmCFiNPpRFJSkugYNzQ9Pc1TwkmRnE4nDh8+jPb2dtFRhOvo6MD27dtV9+Y5NjYGSZJEx1A0SZLwyiuvID09XXQUTeMKVogkJibKchYLAH72s5/B7/eLjkG0bG63G83NzUhKStJ8ubJYLHC5XDAYDKorVwDw+9//XnQERdPr9Thz5gzLlQywYIXQk08+KTrCDXV3d+PYsWOiYxDdls/nQ19fH2JiYlBRUSE6jlB6vR7nz59HdXW1qg+pvXTpkugIimU2m3Hs2DFVvz6UhAUrhGJjY2W7ilVWVoaBgQHRMYhuanR0FNu2bUNhYaHoKEJJkgSbzQar1aros62Wa2RkRHQERerq6kJtba0qVzWVijNYIbawsIB169aJjnFTvKuQ5GZ2dhYNDQ1obGwUHUW41tZW6PV6zVwA7vf7sWbNGtExFEWv1+OXv/wl52pliCtYISbnVSwAeOaZZ+B2u0XHIILH40FbWxs2btyo+XJlMpkwMzOD0tJSzZQrAHC5XKIjKEpXVxesVivLlUyxYIWBXGexgC9PeX/hhRfg8/lERyGN8vl86O/vR15eHsrKykTHEUqn02FkZAQNDQ1ISEgQHSfsPvjgA9ERFMFkMmF6eho7duxAZGSk6Dh0E1yLDYPFVSy5vnm0t7fj/vvvR3l5uegopDFjY2N46aWXNH0C+6Le3l48/vjjmn7DPHfunOgIsmez2fDYY48p/rR+LeAMVpjIfRYL+PILPO+ponCYm5vDsWPHUFNTIzqKcE1NTXj66acRHR0tOopQfr8fGRkZmr5H8lZMJhMqKyv5hKCCsGCFUVtbm2xXsRadP39eE08qkRherxcnT55ESUmJ6CjCGY1G7Nu3jw+Z/Nns7Cw2btwoOoYscdVKmTiDFUbFxcWyP6E4LS2Nl0JT0Pn9fgwMDCAnJ0fz5Uqn02FoaAgtLS0sV1d5//33RUeQHYvFgvn5eeTn57NcKRBnsMIoOjoaR48eRXZ2tugot5SWloaJiQnevE5BcfHiRRw8eJBzVvjybjidTsezim5geHhYdATZMBqN2LNnD3cTFI5bhGHm9/tRXV2Nuro60VFuSZIkdHd38/FfWrGFhQUcP34cVVVVoqMIZ7FYsHv3bs7P3ITP58Mdd9whOoZwLFbqwoIlwNzcHOLj40XHuC2WLFoJr9cLm82G4uJi0VGE0+v1ePHFF7kafBtTU1NISUkRHUMYFit14gyWAHFxcejp6REd47YcDgf0ej2cTqfoKKQAfr8fw8PDKC4u1ny5kiQJdrsdnZ2dLFfLMDExITqCEEajEefPn0dbWxvLlQpxBUsQn88Hg8GgiLkUrmTR7TidThw+fBjt7e2iowjX0dGB7du3c85qmfx+PwoKCmCz2URHCRuuWGkDC5ZASloWlyQJr776Kp96omu43W689tprqKioEB1FOLPZjL//+7/X5Ansq3Hx4kVs2bJFdIywYLHSFj5FKFBycrKsT3i/msPhQEpKCkZGRpCRkSE6Dgnm8/nw9ttvo7CwUHQU4fR6Pfbt24f09HTRURTp3XffFR0h5JqamvCDH/yA28UawxUswbxeL3JychR1enFXVxe2b9/Oc1k0anR0FLW1tZra0rkRSZJgsViwdetWTV9vsxpK/Pq3XEajEbt27UJaWpqmLuymv2DBkoHx8XGkpaWJjhEQi8WCqqoqvrFoyOzsLBoaGtDY2Cg6inC83iY4RkdHkZmZKTpG0EiShL179+KRRx7hzCpxi1AOHnjgAXR1dWHnzp2ioyxbTU0NPv74Yxw8eBCxsbGi41AIeTwedHd3K2IrO9RMJhPKy8v55hkkfX19oiMEhdlsxo9//GPcf//9/NBJS7iCJRN+vx/79+9X3OqATqdDQ0MDh99VyOfz4ezZs6ipqVHlFk4gdDodqqurOX8YRG63GzExMaJjrJhOp8Pu3buxdetWrmTSDbFgycjc3ByefPJJRb6Z8TJSdRkbG8NLL72kiGNEQq2npwdPPPEEVyaCrL+/HzqdTnSMgNTX1+ORRx7BPffcw1P56bZYsGRGyTMJFosFe/bs4ac5BZubm8OxY8dQU1MjOopw9fX1ePbZZ7kFHgJ+vx+7du2SfYG3WCyQJAn33Xcft4UpYCxYMtTW1qbYeRdJknD06FFkZWWJjkIB8Hq9OHnyJEpKSkRHEc5oNGLfvn3c9g4huX6QNJvNyMjIwH333Yd77rmHK/K0KixYMuTz+VBeXq7oU7G5mqUMfr8fg4ODMJvNityaDqbFDwePPvoo31hDSI6rVxMTE9i0aRNP36egYsGSKSXPYy2SJAmvvPIKD2CUqYsXL+LgwYOyeqMThdfbhI/cVq+amppQXl4uOgapEC97lqm4uDi8/PLLomOsisPhgCRJaG5uhtvtFh2H/mxhYQFHjhzBli1bNF+uLBYLXC4XDAYDy1WYnDx5UnSEa3CcgUKFK1gy19fXp5rrSHp6eqDT6fhGJojX64XNZkNxcbHoKMLp9Xq8+OKLvLokzOR2/6okSRgdHeWWMIUEV7BkrqCgAB0dHaJjBEVxcTFycnIwMDAAn88nOo5meL1e9PX1IScnR/PlSpIk2Gw2dHZ2slwJcPz4cdERrrF3716WKwoZrmApgN/vxz//8z+jqqpKdJSg0ev1qKio4MGNIeT1ejEwMIDa2lpFz/IFS2trK/R6Pe+FE0Ruq1cAMDMzg4SEBNExSKW4gqUAERERqKiogMlkEh0laLq7u5GZmYnS0lJMTU2JjqMqPp8PAwMDKC4uRmFhoebLldlsxszMDEpLS1muBJLb6pXRaGS5opDiCpaCeDwe7N+/X9HHN9yM0WhEaWkp7/JaBZ/Ph1//+td46aWXYLPZRMcRTqfTwWKx8ClWGRgbG4MkSaJjXMNutyM3N1d0DFIxFiyFWVhYgMFgUO0bKO/3Cpzb7cbZs2dx7Ngx1b4uAtXb24vHH3+cZV0GvF4vdu/eLbsnVq9cucKvMRRSLFgK5HQ6odfrVb/109TUhMcff5wnat+A3+/HxMQEent7ea3NVZqamvD000/zjVNGTpw4gZ07d4qOcQ2LxYLq6mrRMUjlWLAUampqCs8884zqSxbw5fbhrl27kJaWpvkZmrm5OQwNDaGhoUETf/bLZTKZUF5ezvviZGZubg7x8fGiY1zH4XBw65hCjgVLwbSyknU1k8mEJ554Ag8++KBmVik8Hg9+97vf4bXXXkNjY6PoOLKi0+nwwgsv8HobGfL7/aiurkZdXZ3oKNfQ6/Xo7Ozk64VCjgVL4bRYshaZTCb84Ac/wCOPPILY2FjRcYLG7/djZmYGFy9exH/8x3+wVN0ED66VN7ldibNoZGSEx8NQWLBgqYDT6cRPfvITTQ84G41G/PCHP8TGjRuRkJCguMLldrsxNTWFsbExVFRUiI4ja/X19Xj22WcV92esJV6vFzk5ObL74MeT2ymcWLBUQu1PFwZKkiQ89dRTeOihh3D33Xdjw4YNslnp8Hg8uHz5Mj766CNMT09jbGxMlUdvBBuvt1GO5uZmWX5Q6O3tRUFBgegYpBEsWCrCknVrRqMR9957L+6//3587Wtfw6ZNm7BmzRqsW7cuJI/z+3w+zM/P49KlS/jDH/4Ap9OpqtP4w0WSJNTV1SEnJ4crDwog161BSZIwODgomw9apH4sWCrDkrVyZrMZf/3Xf42UlJSAvgifO3fumn+W23k/StbR0YHt27fzTVEh5ubm8OSTT8puaxAAurq6sGPHDtExSENYsFTI7XajtraWw9GkWGazGT/5yU8QFxcnOgotk8/nQ3l5uWy3u+fn5zm3R2G1RnQACr7o6GgcPnwYcXFx3JIiRdHr9di3bx/PKFKgpqYm2Zar1tZWlisKO65gqdypU6dQXFwsOgbRLUmSBIvFgq1bt/J6GwUaGBhAXl6e6Bg3xdUrEuGvRAeg0CoqKoLD4ZDdRatEi1pbW2G325Gfn89ypUCzs7OyLldcvSJRWLA0ID09felQRiK5MJlMmJ6eRmlpqeavQFIqr9eLf/zHfxQd46YkScKTTz4pOgZpFAuWRiQkJKC7uxsmk0l0FNI4nU6HkZERNDQ08O5ABfP5fDh48KCsn5qtrq7m6hUJwxksjfH5fDh+/DjKyspERyEN6u3txeOPP86tQIXz+/145ZVXZHmY6CKdToeenh4e8UHCsGBp1NjYGJ5//nlZnldD6lNfX4/du3dr5oJutbNarSgpKREd45Z45yCJxi1CjUpPT0d/fz8sFovoKKRiRqMRk5OTqKysZLlSib6+PtmXK71ej4cfflh0DNI4rmBpnN/vxzvvvMMBeAoqnU6HF154AY8++iivt1GR4eFhZGdni45xW5OTk0hOThYdgzSOK1gaFxERgfz8fLhcLuj1etFxSAW6urrQ09ODrKwslisVGR8fV0S5MpvNLFckC1zBoiU+nw9vvPEGdu7cKToKKZDFYsHu3bt5vY0KOZ1O6PV6Rcxs8lBRkguuYNGSyMhI7NixAxMTE1zNomXT6/WYmJhAdXU1y5UKjY+PIykpSRHlymazsVyRbLBg0XVSU1NhtVphs9l4AjzdlCRJsNvt6OzsRGpqqug4FALDw8NIS0sTHWNZTCYTHnvsMdExiJZwi5Buye1247XXXpP1eTcUfq2trdDr9TyBXcX6+vpQWFgoOsayuVwurqCSrHAFi24pOjoa5eXlmJ6ehtFoFB2HBDObzZiZmeH1Nirm9/tx4sQJRZUrm83GckWyw4JFy5KYmIiWlhYMDQ1x21CDFgecDx06hISEBNFxKEQWT2hX0oMu3BokueIWIQXM6/Xi3//93xX1RZhWTq/X49ixY7xyROV8Ph9+8YtfoK6uTnSUgHBrkOSKK1gUsKioKOzYsQOff/45urq6RMehEOvu7sbPfvYzuN1u0VEoRObm5mAwGBRXrrg1SHLGFSxaNY/Hg1/96ldc0VI5SZLQ3t6OBx54QHQUCiKlnM7+VSaTCUePHuVhtiRbLFgUNCxa2tDT04Mnn3ySb2wK5/P50NbWpsgnhCVJwpkzZ7h6RbLGgkVBx6KlfmazGS+88AKfJFSoubk57Nu3D93d3aKjrMj58+e5kkqyx4JFIeP1ejE2NobOzk60t7eLjkNBptPpUFdXxzc6hVHqluCi3t5eFBQUiI5BdFssWBQWTqcTw8PDKCkpER2FgqypqQm7d+/mU4Yyp4ZDg+vr6/EP//AP3J4mRWDBorDiqpY66XQ6vPDCC8jKyhIdhb7C7/fjnXfeQU1NjSLuE7wZo9GIxsZGFnlSDBYsEmZxVeuVV15R9Bd++guLxYI9e/YgOjpadBQCMDU1hZ///OeKnbVaxKF2UiIWLBLO7/fjww8/xLlz5/Dqq6/CZrOJjkSrZLPZ8Nhjj3ErRxA1bAdezeFwID09XXQMooCwYJHszM7OwuFw4K233uI2ooIZjUbs2bOHQ/BhpJbtwKv19PSgqKhIdAyigLFgkawtLCzgwoULGBkZQU1Njeg4tAIsWqHn9/vx3nvvoampSfHbgVdramrC888/z5VQUiQWLFKU2dlZXLp0CZOTkzh79qyq3kzUzmw249lnn0VycrLoKKrh8/nw61//Gi+99JLqttYtFgsOHDjAckWKxYJFiubxePDxxx/D6XTi/Pnzil7lslgs2LBhAzZs2IC7774bL730kiq3SFm0Vk/NxQr48jXyT//0T4iMjBQdhWjFWLBIdTweDz777DO4XC58/vnnuHDhAj744APZlBWz2Yzvfve7SEpKwqZNm/Dtb3/7hk/deTwe7N+/Xza5g81oNKKkpAQPPfQQ30iXyev1YmBgALW1taqZsfoqHsdAasGCRZqysLCAP/7xj/joo4+u+b5PPvlk6d/Pnj0b8KqAJEl46qmnAAB33XUXNmzYAABYv349vvnNbwIA4uPjA97uUHvJAr78vdu7dy+ys7P5GP5NTE1NYXR0VPVHmuj1erS2tvIKJlIFFiwimdNCyVpkMpnw9NNP4/7779f8qpbb7ca7776Lrq4uTcwa6nQ6WK1WxMbGio5CFBQsWEQKoKWStai1tRWPPPII7r33Xs1sF3m9Xrz//vt44403UFdXJzpO2PAgUVIjFiwihdBiyVpUX1+P73//+0hNTVXd9pHb7cbU1BQuXLiAsrIy0XHCTpIkdHd3IzExUXQUoqBiwSJSEC2XrEVmsxm5ubnYtGkT4uPjFbeV6PF48Lvf/Q4TExN46623NLH9dzPcFiQ1Y8EiUhiWrGsZjUZkZmYiOTkZGzdulN0209zcHP7whz/g/fffx9mzZ/nn9mdGoxEHDx5kuSLVYsEiUiCWrFuzWCz49re/jc2bNyMqKgrx8fG44447QvZmvng0yKVLl/D5559jcnIS586d0/Tq1K0YjUYcPXpUddu9RFdjwSJSKJasldHr9XjooYeW/j0xMRHf/va3b/vj/vSnP+HChQvXfN+nn36qqWH0YOAhoqQVLFhECubxeHD48GG+yZMi1NfXo6KiguWKNIEFi0jh/H4/jh07pskn0Eg5eHEzaQ0LFpFKDAwMIC8vT3QMouv09vaioKBAdAyisPor0QGIKDhyc3MxOTkJnU4nOgoRgC/PuJqYmGC5Ik1iwSJSkeTkZFitVhiNRtFRSOOMRiPefPNNpKamio5CJAS3CIlUyOfzoampCVVVVaKjkAZxmJ2IBYtI1U6dOoXi4mLRMUhDOG9F9CVuERKpWFFRERwOByRJEh2FVI7zVkTXYsEiUrn09HScOXMGer1edBRSKZPJhP7+fs5bEV2FW4REGuHz+fD222+jsLBQdBRSEZvNhscee4znWxF9BVewiDQiMjISBQUFcLlcMJlMouOQwplMJrhcLuTn57NcEd0AV7CINMjv9+Odd97hmVm0Ily1Iro9rmARaVBERATy8/O5mkUB4aoV0fJxBYtI4/x+P959913s378fDodDdBySKa5aEQWGK1hEGhcREYGsrCz09/fDYrGIjkMy09TUhCtXrnDViihAXMEiomsMDw9zNYtgMplQXl6OxMRE0VGIFIkFi4iu4/V6MTAwgNraWhYtjdHr9di3bx/S09NFRyFSNBYsIropj8eDX/3qV9i5c6foKBRikiTBYrFg69atvEOQKAhYsIjotli01K21tRV6vR5r164VHYVINViwiGjZFhYWcObMGZSVlYmOQkHQ1dWFH/7wh4iOjhYdhUh1WLCIKGAsWsolSRKqq6uRnZ3NFSuiEGLBIqIVm52dxeuvv46qqirRUeg29Ho9/u7v/g7f//73OWNFFAYsWES0anNzcxgaGsKrr74Km80mOg5dxWg0oqSkBA8//DDPsSIKIxYsIgoav9+PiYkJvP3221zVEqyjowOSJCE1NVV0FCJNYsEiopDweDwYGRnB8ePH0d3dLTqOJphMJjz99NPYvHkzoqKiRMch0jQWLCIKOafTieHhYZSUlIiOojp6vR7FxcXYunUrnwYkkhEWLCIKG5/PhwsXLuC1115DY2Oj6DiKJUkSnn/+eW4BEskYCxYRCeHxePDRRx/ht7/9Ld566y1uI96G2WxGVlYWNm/ejISEBNFxiOg2WLCISBbcbjempqZw4cIF/Ou//qvm70DU6XTYvn07HnzwQdx7772cqSJSGBYsIpKlubk5fPjhh/jNb36jiScS9Xo9MjMzsXnzZvzN3/wN4uLiREciolVgwSIi2fP7/ZiZmcFHH32EhYUFfPLJJ4ouXTqdDlu3bsVDDz2ETZs2Yf369VyhIlIZFiwiUiyv14vLly/D5XLh8uXLmJycxLlz52Qzz2U0GnHvvffirrvuwoYNG3D33XfjO9/5Dq+oIdIAFiwiUqXZ2Vl8+umnuHz58tL3nTt37rr/7oMPPkB7e/uyf976+vrrvu+hhx4CAGzatAlr1qzBunXreB0NkcaxYBEREREF2V+JDkBERESkNixYREREREHGgkVEREQUZCxYREREREHGgkVEREQUZCxYREREREHGgkVEREQUZCxYREREREHGgkVEREQUZCxYREREREHGgkVEREQUZCxYREREREHGgkVEREQUZCxYREREREHGgkVEREQUZCxYREREREHGgkVEREQUZCxYREREREHGgkVEREQUZCxYREREREHGgkVEREQUZCxYREREREHGgkVEREQUZCxYREREREHGgkVEREQUZCxYREREREHGgkVEREQUZCxYREREREHGgkVEREQUZCxYREREREHGgkVEREQUZCxYREREREHGgkVEREQUZCxYREREREHGgkVEREQUZCxYREREREHGgkVEREQUZCxYREREREHGgkVEREQUZCxYREREREHGgkVEREQUZCxYREREREHGgkVEREQUZP8fe/GU2/6yKTAAAAAASUVORK5CYII=;" vertex="1" parent="1">
          <mxGeometry x="492.5" y="213.5" width="52" height="52" as="geometry" />
        </mxCell>
        <mxCell id="seNpa9M3IsFzkgEDLgjZ-71" value="(6)" style="endArrow=classic;startArrow=none;html=1;rounded=0;entryX=1;entryY=0.5;entryDx=0;entryDy=0;exitX=0;exitY=0.75;exitDx=0;exitDy=0;startFill=0;fontStyle=0;fontSize=20;" edge="1" parent="1" source="seNpa9M3IsFzkgEDLgjZ-12" target="seNpa9M3IsFzkgEDLgjZ-69">
          <mxGeometry x="0.0055" width="50" height="50" relative="1" as="geometry">
            <mxPoint x="816" y="232" as="sourcePoint" />
            <mxPoint x="633" y="233" as="targetPoint" />
            <mxPoint as="offset" />
          </mxGeometry>
        </mxCell>
        <mxCell id="seNpa9M3IsFzkgEDLgjZ-57" value="(1)" style="endArrow=none;startArrow=classic;html=1;rounded=0;exitX=0;exitY=0.5;exitDx=0;exitDy=0;endFill=0;entryX=1;entryY=0.5;entryDx=0;entryDy=0;fontSize=20;fontStyle=0" edge="1" parent="1" source="seNpa9M3IsFzkgEDLgjZ-12" target="seNpa9M3IsFzkgEDLgjZ-1">
          <mxGeometry x="-0.0097" y="2" width="50" height="50" relative="1" as="geometry">
            <mxPoint x="617.42" y="292" as="sourcePoint" />
            <mxPoint x="821.42" y="223" as="targetPoint" />
            <mxPoint as="offset" />
          </mxGeometry>
        </mxCell>
        <mxCell id="seNpa9M3IsFzkgEDLgjZ-78" value="(5)" style="text;html=1;align=center;verticalAlign=middle;whiteSpace=wrap;rounded=0;fontSize=20;fontStyle=0" vertex="1" parent="1">
          <mxGeometry x="1024" y="114" width="60" height="30" as="geometry" />
        </mxCell>
      </root>
    </mxGraphModel>
  </diagram>
</mxfile>
